<?xml version="1.0" standalone="no"?>
<!DOCTYPE svg PUBLIC "-//W3C//DTD SVG 1.1//EN" "http://www.w3.org/Graphics/SVG/1.1/DTD/svg11.dtd" >
<svg xmlns="http://www.w3.org/2000/svg">
	<metadata></metadata>
	<defs>
		<font id="rubikmedium_italic" horiz-adv-x="1263">
			<font-face units-per-em="2048" ascent="1638" descent="-410"/>
			<missing-glyph horiz-adv-x="475"/>
			<glyph unicode="&#xfb01;" horiz-adv-x="1312"
				   d="M104 874l29 136q4 23 24.5 39t43.5 16h135l20 92q20 98 60.5 167t98.5 112t134 61.5t168 18.5h494q23 0 35 -16.5t8 -39.5l-29 -135q-4 -23 -24.5 -39t-43.5 -16h-452q-61 0 -116.5 -29t-72.5 -104l-14 -72h612q23 0 35.5 -16.5t7.5 -38.5l-202 -955q-4 -23 -23.5 -39 t-42.5 -16h-155q-23 0 -36.5 16.5t-9.5 38.5l162 764h-399l-164 -764q-4 -23 -23.5 -39t-41.5 -16h-156q-23 0 -36 16.5t-9 38.5l164 764h-135q-23 0 -36.5 16.5t-9.5 38.5z"/>
			<glyph unicode="&#xfb02;" horiz-adv-x="1331"
				   d="M104 874l29 136q4 23 24.5 39t43.5 16h135l20 92q20 98 60.5 167t98.5 112t134 61.5t168 18.5h187q23 0 35 -16.5t8 -39.5l-29 -135q-4 -23 -24.5 -39t-43.5 -16h-145q-61 0 -116.5 -29t-72.5 -104l-14 -72h420l84 395q4 23 23.5 39.5t41.5 16.5h156q23 0 36 -16.5 t9 -39.5l-299 -1405q-4 -23 -23.5 -39t-41.5 -16h-156q-23 0 -36 16.5t-9 38.5l162 764h-418l-164 -764q-4 -23 -23.5 -39t-41.5 -16h-156q-23 0 -36 16.5t-9 38.5l164 764h-135q-23 0 -36.5 16.5t-9.5 38.5z"/>
			<glyph unicode="&#xfb03;" horiz-adv-x="1998"
				   d="M104 874l29 136q4 23 24.5 39t43.5 16h135l20 92q20 98 60.5 167t98.5 112t134 61.5t168 18.5h187q23 0 35 -16.5t8 -39.5l-29 -135q-4 -23 -24.5 -39t-43.5 -16h-145q-61 0 -116.5 -29t-72.5 -104l-14 -72h420l20 92q20 98 60.5 167t99 112t134 61.5t167.5 18.5h494 q23 0 35 -16.5t8 -39.5l-29 -135q-4 -23 -24.5 -39t-42.5 -16h-453q-61 0 -116.5 -29t-71.5 -104l-15 -72h613q23 0 35 -16.5t8 -38.5l-203 -955q-4 -23 -23.5 -39t-42.5 -16h-155q-23 0 -36.5 16.5t-8.5 38.5l161 764h-399l-164 -764q-4 -23 -23.5 -39t-41.5 -16h-156 q-23 0 -36 16.5t-9 38.5l164 764h-420l-164 -764q-4 -23 -23.5 -39t-41.5 -16h-156q-23 0 -36 16.5t-9 38.5l164 764h-135q-23 0 -36.5 16.5t-9.5 38.5z"/>
			<glyph unicode="&#xfb04;" horiz-adv-x="2017"
				   d="M104 874l29 136q4 23 24.5 39t43.5 16h135l20 92q20 98 60.5 167t98.5 112t134 61.5t168 18.5h187q23 0 35 -16.5t8 -39.5l-29 -135q-4 -23 -24.5 -39t-43.5 -16h-145q-61 0 -116.5 -29t-72.5 -104l-14 -72h420l20 92q20 98 60.5 167t99 112t134 61.5t167.5 18.5h187 q23 0 35 -16.5t8 -39.5l-29 -135q-4 -23 -24.5 -39t-43.5 -16h-145q-61 0 -116.5 -29t-71.5 -104l-15 -72h420l84 395q4 23 23.5 39.5t42.5 16.5h155q23 0 36 -16.5t9 -39.5l-299 -1405q-4 -23 -23.5 -39t-41.5 -16h-156q-23 0 -36 16.5t-9 38.5l162 764h-418l-164 -764 q-4 -23 -23.5 -39t-41.5 -16h-156q-23 0 -36 16.5t-9 38.5l164 764h-420l-164 -764q-4 -23 -23.5 -39t-41.5 -16h-156q-23 0 -36 16.5t-9 38.5l164 764h-135q-23 0 -36.5 16.5t-9.5 38.5z"/>
			<glyph horiz-adv-x="0"/>
			<glyph horiz-adv-x="0"/>
			<glyph unicode="&#xd;" horiz-adv-x="593"/>
			<glyph unicode=" " horiz-adv-x="475"/>
			<glyph unicode="&#x09;" horiz-adv-x="475"/>
			<glyph unicode="&#xa0;" horiz-adv-x="475"/>
			<glyph unicode="!" horiz-adv-x="550"
				   d="M14 55l39 181q4 23 24.5 39t43.5 16h176q23 0 35 -16.5t8 -38.5l-39 -181q-4 -23 -23.5 -39t-41.5 -16h-177q-23 0 -36 16.5t-9 38.5zM113 469l194 909q4 23 23.5 39.5t42.5 16.5h155q23 0 36.5 -16.5t8.5 -39.5l-194 -909q-4 -23 -24.5 -39t-43.5 -16h-155q-23 0 -35 16 t-8 39z"/>
			<glyph unicode="&#x22;" horiz-adv-x="856"
				   d="M221 1016l33 364q4 31 20.5 52.5t49.5 21.5h172q33 0 42 -21.5t-1 -52.5l-123 -364q-10 -29 -28.5 -43.5t-41.5 -14.5h-78q-23 0 -36 14.5t-9 43.5zM606 1016l33 364q4 31 20.5 52.5t49.5 21.5h172q33 0 42 -21.5t-1 -52.5l-123 -364q-10 -29 -28.5 -43.5t-41.5 -14.5 h-78q-23 0 -36 14.5t-9 43.5z"/>
			<glyph unicode="#" horiz-adv-x="1400"
				   d="M43 387l27 129q4 23 24.5 39t42.5 16h172l103 281h-162q-25 0 -36 15.5t-7 39.5l26 129q4 23 25 39.5t43 16.5h197l75 206q6 16 22.5 29.5t37.5 13.5h164q18 0 29.5 -14t2.5 -37l-71 -198h205l75 206q6 16 22.5 29.5t37.5 13.5h164q18 0 29.5 -14t2.5 -37l-71 -198h137 q23 0 35 -16.5t8 -39.5l-27 -129q-4 -23 -24.5 -39t-42.5 -16h-174l-101 -281h162q23 0 35 -16t8 -39l-27 -129q-4 -23 -24.5 -39t-42.5 -16h-199l-76 -209q-6 -18 -22.5 -30.5t-36.5 -12.5h-162q-18 0 -30.5 14.5t-4.5 34.5l74 203h-207l-75 -209q-6 -18 -22.5 -30.5 t-37.5 -12.5h-162q-18 0 -30.5 14.5t-3.5 34.5l73 203h-137q-23 0 -35 16.5t-8 38.5zM569 571h205l103 281h-207z"/>
			<glyph unicode="$" horiz-adv-x="1323"
				   d="M16 377q4 25 23.5 40t42.5 15h143q35 0 51.5 -12t22.5 -37q8 -27 23.5 -53.5t46 -47t80 -33.5t126.5 -13q61 0 121 9t108 30.5t81 53t43 79.5q10 45 -13.5 73.5t-77 49t-135 39t-190.5 46.5q-195 51 -273.5 151.5t-37.5 285.5q35 166 157.5 269t337.5 126l29 135 q4 23 24.5 39t43.5 16h165q23 0 35.5 -16t7.5 -39l-30 -147q88 -23 154.5 -63t108.5 -90t60.5 -103.5t10.5 -102.5q-4 -25 -23.5 -40t-42.5 -15h-143q-35 0 -50.5 13.5t-23.5 35.5q-20 51 -74.5 89t-177.5 38q-109 0 -195 -44t-102 -122q-10 -47 3 -76.5t54 -51t113 -40 t180 -43.5q236 -53 324 -158.5t53 -275.5q-18 -84 -57 -154.5t-104.5 -123t-160 -85t-223.5 -40.5l-22 -134q-4 -23 -24.5 -39t-43.5 -16h-166q-23 0 -35 16.5t-8 38.5l27 150q-82 18 -153.5 53t-122 83t-76 108.5t-15.5 132.5z"/>
			<glyph unicode="%" horiz-adv-x="1736"
				   d="M104 20.5q-10 20.5 13 42.5l1294 1332q18 18 35.5 28.5t46.5 10.5h145q31 0 41.5 -20.5t-12.5 -43.5l-1294 -1331q-18 -18 -36 -28.5t-46 -10.5h-146q-31 0 -41 20.5zM158 971q6 53 18 113.5t29 113.5q14 47 37.5 92t62.5 79t96.5 54.5t141.5 20.5q68 0 120 -23.5 t87.5 -61.5t51 -86t9.5 -95q-6 -53 -18.5 -113.5t-28.5 -114.5q-14 -47 -38 -91t-62.5 -77.5t-97 -54t-140.5 -20.5q-68 0 -121 23.5t-88 61t-50 85t-9 94.5zM356 981q-4 -41 12.5 -69.5t75.5 -28.5t87 28.5t42 69.5q4 12 10.5 39t12.5 55.5t11 55t5 38.5q4 41 -11 70 t-75 29q-59 0 -87.5 -29t-43.5 -70q-4 -12 -10 -38.5t-12 -55t-11.5 -55.5t-5.5 -39zM971 252q6 53 18 113.5t29 113.5q14 47 37.5 92t62.5 79t96.5 54.5t141.5 20.5q68 0 120 -23.5t87.5 -61.5t51 -86t9.5 -95q-6 -53 -18.5 -113.5t-28.5 -114.5q-14 -47 -37.5 -91 t-62.5 -77.5t-97.5 -54t-140.5 -20.5q-68 0 -121 23.5t-88 61.5t-50 85t-9 94zM1169 262q-4 -41 12.5 -69.5t75.5 -28.5t87 28.5t42 69.5q4 12 10.5 39t12.5 55.5t11 55t5 39.5q4 41 -11 69.5t-75 28.5q-59 0 -87.5 -28.5t-43.5 -69.5q-4 -12 -10 -39t-12 -55.5t-11.5 -55.5 t-5.5 -39z"/>
			<glyph unicode="&#x26;" horiz-adv-x="1470"
				   d="M61 387q14 72 47 126t78 97t98.5 78t112.5 70q-61 88 -75.5 179t4.5 173q16 74 53 136.5t93 108.5t129 72.5t163 26.5q98 0 172 -31.5t120 -86t61.5 -125t-1.5 -148.5q-12 -61 -39.5 -108.5t-67.5 -87.5t-93.5 -75.5t-116.5 -74.5l194 -234q47 53 84 111t64 111 q20 45 63 45h156q23 0 37 -16.5t8 -39.5q-27 -86 -93.5 -191.5t-166.5 -205.5l164 -197q20 -25 12 -43q-4 -25 -22.5 -41t-41.5 -16h-202q-23 0 -32 7t-15 13l-84 99q-102 -63 -218 -101t-243 -38q-100 0 -183 28.5t-138.5 81.5t-78 128t-2.5 169zM326 371q-6 -31 7 -57.5 t39.5 -45t64.5 -29t79 -10.5q84 0 141.5 19.5t116.5 54.5l-225 270q-88 -47 -149.5 -95t-73.5 -107zM580 1083q-10 -53 12 -96t59 -90q92 51 140.5 89t60.5 97q10 41 -14.5 78t-96.5 37q-68 0 -109.5 -34t-51.5 -81z"/>
			<glyph unicode="'" horiz-adv-x="471"
				   d="M221 1016l33 364q4 31 20.5 52.5t49.5 21.5h172q33 0 42 -21.5t-1 -52.5l-123 -364q-10 -29 -28.5 -43.5t-41.5 -14.5h-78q-23 0 -36 14.5t-9 43.5z"/>
			<glyph unicode="(" horiz-adv-x="755"
				   d="M55 261q8 181 58 413q49 229 110.5 401t148.5 287t204.5 171t279.5 56q23 0 36 -16.5t9 -38.5l-29 -135q-6 -23 -25.5 -38t-41.5 -18q-78 -8 -140.5 -51t-113.5 -124t-93 -203.5t-79 -290.5q-35 -168 -53.5 -303t-9 -233.5t52.5 -154t133 -63.5q23 -2 36 -17.5t7 -37.5 l-29 -135q-4 -23 -23.5 -40.5t-41.5 -15.5q-145 8 -235.5 79t-129.5 199t-31 309z"/>
			<glyph unicode=")" horiz-adv-x="755"
				   d="M-135 -272l29 135q6 23 25.5 38t41.5 17q76 8 139.5 51t114.5 124t93 204t79 291q35 168 53.5 303t9 233.5t-53.5 153.5t-132 63q-23 2 -36 17.5t-7 38.5l29 135q4 23 23.5 40t41.5 15q145 -8 235.5 -78.5t129.5 -198.5t30.5 -310.5t-57.5 -411.5q-49 -231 -110.5 -402.5 t-148.5 -286t-204.5 -171t-279.5 -56.5q-23 0 -36 16.5t-9 39.5z"/>
			<glyph unicode="*" horiz-adv-x="911"
				   d="M209 1132.5q-10 18.5 0 38.5l84 156q14 27 36.5 32t41.5 -9l137 -101l-6 187q0 23 14 41t39 18h168q29 0 34 -20.5t-5 -40.5l-84 -185l182 101q20 10 40.5 7t24.5 -30l19 -156q4 -23 -13.5 -40t-43.5 -19l-191 -14l117 -119q16 -16 13 -37.5t-30 -38.5l-151 -96 q-23 -14 -42.5 -6t-23.5 30l-34 170l-105 -170q-14 -23 -36.5 -30.5t-41.5 6.5l-110 96q-16 16 -10 39t24 35l168 121l-182 14q-23 2 -33 20.5z"/>
			<glyph unicode="+" horiz-adv-x="1247"
				   d="M57 549l29 135q4 23 24.5 39t43.5 16h366l80 371q4 23 23.5 39t42.5 16h155q23 0 36 -16t9 -39l-80 -371h365q23 0 35 -16t8 -39l-29 -135q-4 -23 -23.5 -39t-41.5 -16h-365l-80 -373q-4 -23 -24.5 -39t-42.5 -16h-156q-23 0 -35 16t-8 39l80 373h-367q-23 0 -36 16 t-9 39z"/>
			<glyph unicode="," horiz-adv-x="546"
				   d="M-66 -104l123 335q10 29 35 54.5t70 25.5h178q27 0 35 -19.5t-4 -39.5l-217 -354q-12 -20 -32 -36t-61 -16h-92q-20 0 -31.5 14.5t-3.5 35.5z"/>
			<glyph unicode="-" horiz-adv-x="991"
				   d="M115 547l28 135q4 23 24.5 39t43.5 16h625q23 0 35 -16t8 -39l-29 -135q-4 -23 -23.5 -39t-42.5 -16h-624q-23 0 -36 16t-9 39z"/>
			<glyph unicode="." horiz-adv-x="530"
				   d="M2 55l43 201q4 23 24.5 39t43.5 16h190q23 0 35 -16t8 -39l-43 -201q-4 -23 -23.5 -39t-41.5 -16h-191q-23 0 -36 16.5t-9 38.5z"/>
			<glyph unicode="/" horiz-adv-x="1107"
				   d="M-102 -151.5q-9 20.5 6 42.5l1040 1661q16 25 40 41.5t63 16.5h178q27 0 35 -19.5t-9 -44.5l-1044 -1657q-12 -20 -37 -40.5t-66 -20.5h-170q-27 0 -36 20.5z"/>
			<glyph unicode="0" horiz-adv-x="1335"
				   d="M97.5 314.5q-17.5 101.5 2.5 220.5q14 78 35 177t41 177q31 119 77 222t121 179t184.5 120t266.5 44q135 0 230.5 -42t152 -116.5t74.5 -176t-2 -220.5q-6 -39 -15.5 -86t-20.5 -96t-21.5 -96.5t-20.5 -85.5q-31 -119 -74 -220.5t-115.5 -176.5t-183 -116.5t-276.5 -41.5 q-135 0 -230.5 41.5t-151.5 116.5t-73.5 176.5zM379 545q-23 -147 21 -228t188 -81q143 0 221 80.5t119 228.5q23 78 42 172t31 172q23 147 -21 228t-187 81t-221 -81t-119 -228q-23 -78 -42.5 -172t-31.5 -172z"/>
			<glyph unicode="1" horiz-adv-x="927"
				   d="M116 1011.5q7 22.5 29 37.5l521 350q18 12 37.5 23.5t39.5 11.5h160q23 0 36 -16.5t9 -39.5l-282 -1323q-4 -23 -23.5 -39t-42.5 -16h-166q-23 0 -36 16.5t-9 38.5l207 971l-315 -213q-23 -14 -44.5 -11t-31.5 21l-86 148q-10 18 -3 40.5z"/>
			<glyph unicode="2" horiz-adv-x="1253"
				   d="M-23 55l27 125q8 35 33.5 68t42.5 43l721 520q72 49 99.5 96t37.5 90q6 33 4 69t-20.5 65.5t-56.5 48t-105 18.5q-63 0 -108.5 -17.5t-78 -46t-55 -63.5t-41.5 -70q-12 -27 -32.5 -40t-38.5 -13h-162q-23 0 -37 15.5t-6 40.5q25 92 71.5 174t118.5 143t171.5 97t228.5 36 q121 0 208.5 -44t141 -112.5t73 -151.5t0.5 -163q-29 -133 -84 -214t-143 -148l-504 -365h549q23 0 36 -16.5t7 -38.5l-31 -146q-4 -23 -23.5 -39t-41.5 -16h-956q-23 0 -36.5 16.5t-9.5 38.5z"/>
			<glyph unicode="3" horiz-adv-x="1298"
				   d="M18 354q4 25 24.5 40.5t43.5 15.5h162q20 0 30.5 -13.5t20.5 -38.5q8 -25 23.5 -46t45 -38.5t79 -27.5t122.5 -10q125 0 212 50t108 142q18 92 -49.5 132t-192.5 40h-170q-23 0 -36 16.5t-7 38.5l31 146q4 23 23.5 42t35.5 34l353 301h-566q-23 0 -36 16t-9 39l33 145 q4 23 23.5 39.5t42.5 16.5h897q23 0 36 -16.5t9 -39.5l-33 -145q-4 -23 -23.5 -42.5t-36.5 -33.5l-366 -315q180 -37 266 -141.5t49 -282.5q-45 -213 -201.5 -325.5t-426.5 -112.5q-135 0 -236.5 33.5t-166 87t-93.5 121t-21 132.5z"/>
			<glyph unicode="4" horiz-adv-x="1310"
				   d="M8 358l31 146q6 29 23.5 50t41.5 46l793 782q51 51 94 52h146q23 0 36 -16.5t9 -39.5l-174 -819h176q23 0 35 -16.5t8 -38.5l-31 -146q-4 -23 -24.5 -39t-43.5 -16h-176l-53 -248q-4 -23 -23.5 -39t-41.5 -16h-166q-23 0 -36.5 16.5t-8.5 38.5l53 248h-625 q-23 0 -35 16.5t-8 38.5zM412 559h319l86 399z"/>
			<glyph unicode="5" horiz-adv-x="1249"
				   d="M29 383q2 25 23.5 40t43.5 15h166q20 0 33.5 -13t15.5 -36q2 -47 22.5 -76.5t52.5 -47t73 -23.5t88 -6q117 0 203 63t108 174q18 92 -40 153.5t-175 63.5q-61 0 -99 -9t-62.5 -21.5t-45 -21.5t-49.5 -9h-188q-23 0 -36 16.5t-9 38.5l211 694q6 23 24.5 39.5t40.5 16.5 h770q23 0 36 -16.5t9 -39.5l-33 -145q-4 -23 -23.5 -39t-41.5 -16h-576l-77 -263q59 23 104 27t80 4q106 0 197.5 -30.5t155 -91t92 -148.5t12.5 -203q-18 -133 -73.5 -226t-137.5 -152.5t-187.5 -87t-224.5 -27.5q-133 0 -226 32.5t-151.5 89t-84 129t-21.5 152.5z"/>
			<glyph unicode="6" horiz-adv-x="1265"
				   d="M63 496q12 59 35 107t50.5 89t59.5 78t66 74l506 549q10 12 26.5 26.5t45.5 14.5h184q23 0 36 -16.5t9 -39.5q-4 -10 -8 -16t-8 -10l-332 -365q113 -2 205 -40t152.5 -105.5t84 -161.5t-0.5 -205q-25 -113 -79.5 -204t-136 -155.5t-189 -100t-239.5 -35.5 q-115 0 -211 38.5t-160.5 107.5t-92.5 163t-3 207zM340 485q-23 -104 38.5 -176.5t186.5 -72.5q61 0 116.5 19t99.5 53t74 79t42 98q20 104 -41 175t-186 71q-61 0 -116.5 -18.5t-99.5 -52t-74 -78.5t-40 -97z"/>
			<glyph unicode="7" horiz-adv-x="1120"
				   d="M126 26.5q-7 26.5 9 53.5l711 1098h-615q-23 0 -36 16t-9 39l33 145q4 23 23.5 39.5t42.5 16.5h897q23 0 36 -16.5t9 -39.5l-29 -135q-4 -20 -18.5 -41.5t-36.5 -56.5l-707 -1096q-12 -18 -28.5 -33.5t-40.5 -15.5h-199q-35 0 -42 26.5z"/>
			<glyph unicode="8" horiz-adv-x="1327"
				   d="M61 436q23 106 84.5 189.5t157.5 140.5q-98 109 -61 278q41 190 191.5 300t387.5 110q102 0 192.5 -31.5t153 -89t91 -136.5t8.5 -173q-18 -86 -65.5 -155.5t-115.5 -123.5q70 -57 97.5 -140t5.5 -189q-43 -201 -204 -318.5t-435 -117.5q-121 0 -220.5 33.5t-166 94 t-95.5 144.5t-6 184zM336 426q-10 -47 6 -83t51 -59.5t85 -35.5t106 -12q55 0 110.5 12t100.5 35.5t76.5 59.5t41.5 83t-7 82t-52 58.5t-85 35.5t-105 12t-110.5 -12t-99.5 -35.5t-76 -58.5t-42 -82zM516 1034q-10 -41 3 -71.5t43 -51t70 -31t87 -10.5q45 0 90 10.5t83 31 t63.5 51t35.5 71.5q8 41 -5 72t-42 51.5t-69.5 30.5t-86.5 10q-47 0 -92 -10t-81.5 -30.5t-63.5 -51.5t-35 -72z"/>
			<glyph unicode="9" horiz-adv-x="1232"
				   d="M137 971q25 113 79 202t136 151t186.5 96t227.5 34q106 0 201.5 -37t161 -103.5t94 -158.5t4.5 -205q-12 -59 -36 -109t-54.5 -93t-65.5 -82t-67 -76l-502 -549q-10 -12 -26.5 -26.5t-45.5 -14.5h-184q-31 0 -41 27.5t12 54.5l352 387q-92 12 -180 50t-152.5 101.5 t-94 151.5t-5.5 199zM414 859.5q12 -44.5 42.5 -74t76 -45t100.5 -15.5t106.5 15.5t94.5 46t73.5 74.5t42.5 100q12 55 0 99t-41.5 74.5t-75 47t-100.5 16.5t-107.5 -16.5t-95.5 -47t-73.5 -74.5t-42.5 -99q-12 -57 0 -101.5z"/>
			<glyph unicode=":" horiz-adv-x="561"
				   d="M12 55l43 201q4 23 24.5 39t43.5 16h190q23 0 35 -16t8 -39l-43 -201q-4 -23 -23.5 -39t-41.5 -16h-191q-23 0 -36 16.5t-9 38.5zM166 772l41 201q4 23 24.5 39t42.5 16h191q23 0 35 -16.5t8 -38.5l-41 -201q-4 -23 -24.5 -39t-43.5 -16h-190q-23 0 -35 16.5t-8 38.5z "/>
			<glyph unicode=";" horiz-adv-x="595"
				   d="M-49 -102l123 333q10 29 36.5 54.5t67.5 25.5h178q27 0 34 -20.5t-3 -38.5l-207 -338q-12 -20 -36.5 -43t-65.5 -23h-92q-20 0 -31.5 14.5t-3.5 35.5zM199 772l41 201q4 23 24.5 39t42.5 16h191q23 0 36 -16.5t7 -38.5l-41 -201q-6 -23 -25.5 -39t-42.5 -16h-190 q-23 0 -35 16.5t-8 38.5z"/>
			<glyph unicode="&#x3c;" horiz-adv-x="1026"
				   d="M76 674l18 86q8 33 27.5 50t50.5 36l819 483q23 14 43.5 3t16.5 -40l-43 -205q-6 -31 -35 -53t-51 -37l-525 -307l394 -313q16 -14 33.5 -37t11.5 -53l-33 -154q-4 -25 -27.5 -34t-46.5 7l-610 482q-25 18 -37 35.5t-6 50.5z"/>
			<glyph unicode="=" horiz-adv-x="1171"
				   d="M70 295l28 135q4 23 24.5 39t43.5 16h788q23 0 35 -16t8 -39l-28 -135q-4 -23 -24.5 -39t-43.5 -16h-788q-23 0 -35 16t-8 39zM178 801l29 135q4 23 24.5 39t42.5 16h789q23 0 35 -16.5t8 -38.5l-29 -135q-4 -23 -24.5 -39.5t-42.5 -16.5h-789q-23 0 -35 16.5t-8 39.5z "/>
			<glyph unicode="&#x3e;" horiz-adv-x="1024"
				   d="M23 139l43 205q6 31 34.5 53.5t51.5 36.5l524 307l-393 314q-16 14 -34 36.5t-11 53.5l32 153q4 25 28 34t46 -7l610 -481q25 -18 37.5 -35.5t5.5 -50.5l-18 -86q-8 -33 -27.5 -50.5t-50.5 -35.5l-819 -484q-23 -14 -43.5 -2.5t-15.5 39.5z"/>
			<glyph unicode="?" horiz-adv-x="1155"
				   d="M150 1034q14 72 63 146.5t126 135t179 99.5t225 39q88 0 176.5 -29.5t155 -84t99 -130t10.5 -168.5q-18 -76 -58.5 -134t-90.5 -107t-105.5 -89t-104.5 -79t-88 -79t-55 -85q-8 -23 -26.5 -39t-41.5 -16h-155q-23 0 -36 16t-7 39q20 80 62 141.5t93.5 109.5t106.5 87 t104 75t84 71.5t47 76.5q20 76 -28.5 127t-171.5 51q-100 0 -167 -44t-126 -130q-16 -23 -29.5 -34t-40.5 -11h-166q-18 0 -28.5 12.5t-5.5 32.5zM317 55l39 181q4 23 24.5 39t43.5 16h176q23 0 35 -16.5t8 -38.5l-39 -181q-4 -23 -23.5 -39t-41.5 -16h-177q-23 0 -36 16.5 t-9 38.5z"/>
			<glyph unicode="@" horiz-adv-x="1765"
				   d="M59 379q4 29 13.5 77t19.5 100t21.5 99t19.5 74q37 127 108.5 245t179 208t253 144t332.5 54q203 0 339 -51t215.5 -139t107.5 -207t9 -254q-6 -53 -21.5 -124t-31.5 -126q-41 -156 -136 -236.5t-228 -80.5q-51 0 -90.5 9t-68 23.5t-50 31t-35.5 30.5q-20 -20 -40 -40.5 t-48.5 -37t-70.5 -27t-105 -10.5q-76 0 -134.5 30t-94.5 85t-46 132t10 171q18 94 54.5 171t85.5 132.5t112.5 86t139.5 30.5q86 0 131 -25.5t63 -64.5l4 18q4 23 23.5 39.5t42.5 16.5h106q23 0 36 -16.5t9 -39.5l-94 -436q-10 -49 16.5 -75.5t67.5 -26.5t77 27.5t52 92.5 q16 55 29.5 116t17.5 114q12 113 -8 199t-77.5 142t-155 85t-238.5 29q-119 0 -220.5 -34t-182 -94.5t-139 -144.5t-91.5 -182q-8 -27 -19.5 -71t-21.5 -92t-18 -93t-10 -74q-10 -98 13 -180t78.5 -142.5t142.5 -94t206 -33.5q84 0 147.5 8t112.5 22.5t85 31.5t66 36 q25 16 41.5 23.5t38.5 7.5h152q23 0 36 -15.5t7 -42.5q-6 -16 -23 -30q-53 -43 -109 -88.5t-134 -80t-184.5 -57t-258.5 -22.5q-170 0 -296 52t-206.5 141t-115.5 207t-19 247zM702 559q-23 -100 5 -155.5t100 -55.5q76 0 125 54.5t72 156.5q20 100 -5.5 156.5t-101.5 56.5 q-72 0 -123.5 -56.5t-71.5 -156.5z"/>
			<glyph unicode="A" horiz-adv-x="1441"
				   d="M-90 24q-6 11 -6 21q0 13 8 25l776 1294q20 35 40 52.5t52 17.5h232q33 0 45 -17.5t18 -52.5l228 -1294q1 -5 1 -9q0 -23 -18 -41q-22 -20 -51 -20h-137q-41 0 -53.5 17.5t-16.5 33.5l-41 228h-647l-135 -228q-10 -16 -29.5 -33.5t-60.5 -17.5h-164q-29 0 -41 24z M494 535h450l-100 583z"/>
			<glyph unicode="B" horiz-adv-x="1406"
				   d="M43 55l283 1323q4 23 23.5 39.5t41.5 16.5h584q131 0 213 -42t127 -104.5t55 -135.5q5 -33 5 -64q0 -37 -7 -70q-12 -61 -38.5 -109.5t-57.5 -82t-58.5 -56t-44.5 -31.5q27 -23 50.5 -52.5t39 -69t19.5 -89.5q1 -12 1 -25q0 -39 -9 -85q-16 -78 -55 -153t-103.5 -133 t-157 -95t-215.5 -37h-651q-23 0 -36 16q-10 13 -10 29q0 5 1 10zM362 256h379q113 0 175.5 48t78.5 126q4 21 4 40q1 51 -31 87q-44 49 -153 49h-379zM492 862h362q207 0 238 158q5 22 5 41q0 48 -29 77q-40 40 -146 40h-363z"/>
			<glyph unicode="C" horiz-adv-x="1396"
				   d="M94 545q12 78 31.5 172t42.5 172q33 123 91 227.5t144 179t201 116.5t264 42q152 0 258.5 -43t171 -110.5t88.5 -152.5q16 -57 17 -113q0 -27 -4 -54q-4 -25 -23.5 -40t-42.5 -15h-166q-20 0 -36.5 13t-14.5 40v11q0 35 -11 69q-13 39 -46 69.5t-88.5 50t-134.5 19.5 q-80 0 -144.5 -24.5t-114 -65.5t-82 -98.5t-51.5 -120.5q-23 -78 -42 -172t-31 -172q-5 -35 -5 -67q0 -29 4 -55q9 -56 40.5 -97t86 -65.5t134.5 -24.5t143.5 19t109.5 50t77 70t47 80q10 27 29.5 40t39.5 13h166q23 0 37 -15.5t6 -39.5q-23 -84 -71 -168t-129.5 -151.5 t-202.5 -110.5t-287 -43q-133 0 -235.5 41.5t-168.5 116.5q-64 76 -90 180q-15 61 -15 128q0 48 7 99z"/>
			<glyph unicode="D" horiz-adv-x="1441"
				   d="M43 55l283 1323q4 23 23.5 39.5t41.5 16.5h506q152 0 255 -40t162.5 -114t77.5 -178q9 -50 9 -107q0 -60 -10 -127q-12 -78 -27.5 -151.5t-38.5 -151.5q-35 -129 -97.5 -233.5t-151.5 -178t-206.5 -113.5t-265.5 -40h-516q-23 0 -36 16q-10 13 -10 29q0 5 1 10zM362 256 h285q84 0 150.5 23.5t117 64.5t83 98.5t51.5 122.5q23 78 38 151.5t27 151.5q5 35 5 67q0 29 -4 55q-9 56 -43 98t-92 66t-146 24h-275z"/>
			<glyph unicode="E"
				   d="M43 55l283 1323q4 23 23.5 39.5t41.5 16.5h883q23 0 36 -16q10 -13 10 -30q0 -5 -1 -10l-33 -145q-4 -23 -23.5 -39t-41.5 -16h-662l-70 -326h617q23 0 35 -16.5t8 -38.5l-31 -146q-4 -23 -24.5 -39t-42.5 -16h-617l-72 -340h678q23 0 36.5 -16.5t6.5 -38.5l-30 -146 q-4 -23 -23.5 -39t-42.5 -16h-899q-23 0 -36 16q-10 13 -10 29q0 5 1 10z"/>
			<glyph unicode="F" horiz-adv-x="1226"
				   d="M43 55l283 1323q4 23 23.5 39.5t41.5 16.5h875q23 0 36 -16q10 -13 10 -30q0 -5 -1 -10l-33 -145q-4 -23 -23.5 -39t-42.5 -16h-653l-86 -398h612q23 0 36.5 -16t8.5 -39l-30 -145q-6 -23 -25.5 -39.5t-42.5 -16.5h-612l-101 -469q-4 -23 -23.5 -39t-41.5 -16h-166 q-23 0 -36 16q-10 13 -10 29q0 5 1 10z"/>
			<glyph unicode="G" horiz-adv-x="1447"
				   d="M92 539q6 39 16.5 86t20.5 96t20.5 96t20.5 86q31 123 87 224.5t143 174t207 112.5t280 40q170 0 278.5 -46t169 -110.5t79.5 -133.5q15 -50 15 -89q0 -14 -2 -26q-4 -25 -23.5 -40.5t-41.5 -15.5h-166q-23 0 -34 11.5t-15 23.5q-2 8 -13.5 36t-42 57.5t-88 53 t-149.5 23.5q-76 0 -142.5 -21.5t-120.5 -61.5t-91 -96t-56 -126q-18 -78 -37.5 -167t-31.5 -167q-9 -49 -9 -91q0 -101 54 -156q76 -76 229 -76q76 0 142.5 16t121 53t93 97.5t57.5 148.5l2 16h-250q-23 0 -35 16.5t-8 39.5l31 145q4 23 24.5 39t42.5 16h471q23 0 35.5 -16 t7.5 -39l-47 -225q-27 -123 -79 -226.5t-138 -178.5t-211 -116.5t-295 -41.5q-139 0 -246.5 40.5t-176 114.5t-95.5 177q-14 57 -14 119q0 52 10 108z"/>
			<glyph unicode="H" horiz-adv-x="1495"
				   d="M43 55l283 1323q4 23 23.5 39.5t41.5 16.5h166q23 0 36 -16.5t9 -39.5l-113 -526h619l113 526q4 23 23.5 39.5t41.5 16.5h166q23 0 36 -16q10 -13 10 -30q0 -5 -1 -10l-283 -1323q-4 -23 -23.5 -39t-41.5 -16h-166q-23 0 -36 16.5t-9 38.5l115 541h-619l-115 -541 q-4 -23 -23.5 -39t-41.5 -16h-166q-23 0 -36 16q-10 12 -10 28q0 5 1 11z"/>
			<glyph unicode="I" horiz-adv-x="600"
				   d="M43 55l283 1323q4 23 23.5 39.5t41.5 16.5h166q23 0 36 -16q10 -13 10 -30q0 -5 -1 -10l-283 -1323q-4 -23 -23.5 -39t-41.5 -16h-166q-23 0 -36 16q-10 13 -10 29q0 5 1 10z"/>
			<glyph unicode="J" horiz-adv-x="1335"
				   d="M6 432q4 25 24.5 40t43.5 15h166q16 0 32.5 -10t14.5 -28q0 -41 12 -80t41 -69t76 -47t119 -17q141 0 233 73.5t121 214.5l139 654h-672q-23 0 -36 16t-9 39l33 145q4 23 23.5 39.5t42.5 16.5h893q23 0 36 -16q10 -13 10 -30q0 -5 -1 -10l-185 -866q-29 -131 -79 -230.5 t-130 -167t-191.5 -101t-262.5 -33.5q-131 0 -229.5 35.5t-162 97t-90.5 143.5q-17 54 -17 112q0 32 5 64z"/>
			<glyph unicode="K" horiz-adv-x="1277"
				   d="M43 55l283 1323q4 23 23.5 39.5t41.5 16.5h166q23 0 36 -16.5t9 -39.5l-98 -471l536 482q23 20 45.5 32.5t55.5 12.5h211q23 0 36 -16q10 -13 10 -30q0 -5 -1 -10q-4 -14 -21 -30l-690 -619l434 -643q12 -18 8 -31q-4 -23 -23.5 -39t-41.5 -16h-162q-41 0 -61.5 20.5 t-24.5 26.5l-377 559l-119 -551q-4 -23 -23.5 -39t-41.5 -16h-166q-23 0 -36 16q-10 13 -10 29q0 5 1 10z"/>
			<glyph unicode="L" horiz-adv-x="1196"
				   d="M43 55l283 1323q4 23 23.5 39.5t41.5 16.5h166q23 0 36 -16.5t9 -39.5l-240 -1122h676q23 0 36 -16q9 -11 9 -26q0 -6 -2 -13l-30 -146q-4 -23 -23.5 -39t-42.5 -16h-897q-23 0 -36 16q-10 13 -10 29q0 5 1 10z"/>
			<glyph unicode="M" horiz-adv-x="1667"
				   d="M43 55l283 1323q4 23 23.5 39.5t41.5 16.5h129q41 0 57.5 -21.5t20.5 -34.5l233 -678l529 678q10 10 33.5 33t64.5 23h166q23 0 36 -16q10 -13 10 -30q0 -5 -1 -10l-283 -1323q-4 -23 -23.5 -39t-41.5 -16h-166q-23 0 -36 16.5t-9 38.5l170 801l-356 -461 q-14 -18 -37 -34.5t-51 -16.5h-123q-29 0 -43.5 17.5t-20.5 33.5l-160 461l-170 -801q-4 -23 -23.5 -39t-41.5 -16h-166q-23 0 -36 16q-10 13 -10 29q0 5 1 10z"/>
			<glyph unicode="N" horiz-adv-x="1452"
				   d="M43 55l283 1323q4 23 23.5 39.5t41.5 16.5h119q35 0 50 -18.5t20 -29.5l415 -878l183 870q4 23 23.5 39.5t41.5 16.5h166q23 0 36 -16q10 -13 10 -30q0 -5 -1 -10l-280 -1323q-4 -23 -24 -39t-42 -16h-121q-35 0 -50 19.5t-22 29.5l-409 875l-187 -869q-4 -23 -23.5 -39 t-41.5 -16h-166q-23 0 -36 16q-10 13 -10 29q0 5 1 10z"/>
			<glyph unicode="O" horiz-adv-x="1423"
				   d="M94 532q6 39 15.5 86.5l19.5 97.5t21.5 97t21.5 86q31 115 84 216.5t137 176t202 118.5t275 44q135 0 237.5 -43t168.5 -119q67 -76 93 -176q15 -58 15 -121q0 -46 -8 -96q-6 -39 -15 -86t-20.5 -97t-22.5 -97.5t-20 -86.5q-31 -115 -81 -216t-133 -175.5t-201.5 -117.5 t-284.5 -43q-135 0 -237.5 43t-168.5 117q-64 74 -90 176q-15 60 -15 124q0 45 7 92zM373 543q-7 -38 -6 -72q-1 -96 51 -155q70 -80 215 -80q143 0 246.5 79.5t144.5 227.5q20 78 41 173t33 173q6 36 6 69q0 98 -53 159q-70 81 -213 81t-248 -81t-144 -228 q-23 -78 -43 -173t-30 -173z"/>
			<glyph unicode="P" horiz-adv-x="1351"
				   d="M43 55l283 1323q4 23 23.5 39.5t41.5 16.5h529q115 0 208 -30t154 -88.5t85 -143.5q12 -42 11 -90q0 -50 -12 -107q-25 -113 -69 -199t-116.5 -144.5t-175 -89t-239.5 -30.5h-348l-99 -457q-4 -23 -23.5 -39t-41.5 -16h-166q-23 0 -36 16q-10 13 -10 29q0 5 1 10z M471 768h317q117 0 197 45t105 162q7 33 7 61q0 67 -43 98q-61 44 -177 44h-318z"/>
			<glyph unicode="Q" horiz-adv-x="1423"
				   d="M94 532q6 39 15.5 86.5l19.5 97.5t21.5 97t21.5 86q31 115 84 216.5t137 176t202 118.5t275 44q135 0 237.5 -43t169 -118.5t92.5 -176.5q15 -58 15 -121q0 -47 -8 -96q-6 -39 -15 -86t-20.5 -97t-22.5 -97.5t-20 -86.5q-31 -117 -83 -219t-138 -178l101 -205 q6 -10 2 -18q-2 -20 -17.5 -32.5t-34.5 -12.5h-194q-37 2 -51.5 20.5t-20.5 30.5l-41 86q-94 -24 -213 -24h-10q-135 0 -237.5 43t-168 117.5t-90.5 175.5q-15 60 -15 124q0 45 7 92zM373 543q-7 -38 -7 -72q0 -96 52 -155q71 -80 215 -80q143 0 246.5 79.5t144.5 227.5 q20 78 41 173t33 173q6 36 6 69q0 98 -53 159q-70 81 -213 81t-248 -81t-144 -228q-23 -78 -43 -173t-30 -173z"/>
			<glyph unicode="R" horiz-adv-x="1370"
				   d="M43 55l283 1323q4 23 23.5 39.5t41.5 16.5h508q119 0 212 -31t153 -89q62 -60 84 -142q11 -42 11 -89q0 -46 -11 -98q-16 -74 -43 -136.5t-69 -113.5t-102.5 -91t-144.5 -71l176 -505q6 -25 -11 -46.5t-42 -21.5h-147q-41 0 -57.5 19.5t-20.5 35.5l-166 477h-299 l-103 -477q-4 -23 -23.5 -39t-41.5 -16h-166q-23 0 -36 16q-10 13 -10 29q0 5 1 10zM475 788h297q117 0 196 41t103 156q7 31 7 57q0 21 -5 38q-10 38 -38.5 59.5t-75 30t-103.5 8.5h-297z"/>
			<glyph unicode="S" horiz-adv-x="1325"
				   d="M20 377q4 25 23.5 40t42.5 15h143q35 0 51.5 -12t22.5 -37q8 -27 23.5 -53.5t46 -47t80 -33.5t127.5 -13q61 0 120.5 9t107.5 30.5t81 53t43 79.5q3 13 3 25q-1 29 -17 49q-24 28 -77 49.5t-134.5 41t-190.5 48.5q-196 51 -270 157q-51 74 -51 177q0 46 10 98 q35 186 187.5 293.5t414.5 107.5q131 0 229.5 -37t162 -92t91.5 -121q21 -52 21 -100q0 -14 -2 -27q-4 -25 -23.5 -40t-42.5 -15h-143q-35 0 -50.5 13.5t-23.5 35.5q-20 51 -74.5 89t-177.5 38q-109 0 -194.5 -44t-102.5 -122q-4 -20 -4 -37q-1 -23 7 -39q14 -30 54.5 -53.5 t112.5 -42t180 -43.5q236 -53 323 -163q63 -79 63 -184q0 -40 -9 -83q-18 -92 -63 -167t-122 -129t-188.5 -82.5t-265.5 -28.5q-109 0 -212 27.5t-182 79.5t-122 126q-32 56 -32 121q0 21 3 43z"/>
			<glyph unicode="T" horiz-adv-x="1208"
				   d="M174 1233l33 145q4 23 23.5 39.5t41.5 16.5h1014q23 0 36 -16q10 -13 10 -30q0 -5 -1 -10l-33 -145q-4 -23 -23.5 -39t-41.5 -16h-369l-239 -1123q-4 -23 -23.5 -39t-42.5 -16h-166q-23 0 -36 16.5t-9 38.5l240 1123h-369q-23 0 -36 16q-10 12 -10 29q0 5 1 10z"/>
			<glyph unicode="U" horiz-adv-x="1472"
				   d="M130 310q-11 48 -11 101q0 60 14 128l180 839q4 23 23.5 39.5t42.5 16.5h166q23 0 36 -16.5t9 -39.5l-178 -829q-12 -54 -11 -98q0 -23 3 -45q10 -60 43.5 -98t87 -55t120.5 -17q68 0 129.5 17t110.5 55t85 97.5t54 143.5l178 829q4 23 23.5 39.5t42.5 16.5h164 q23 0 36 -16q10 -13 10 -30q0 -5 -1 -10l-180 -839q-27 -127 -77 -229.5t-131 -176.5t-199 -113.5t-279 -39.5q-133 0 -235.5 39.5t-167 114t-88.5 176.5z"/>
			<glyph unicode="V" horiz-adv-x="1359"
				   d="M217 1358q-1 5 -1 9q0 23 18 43q22 24 51 24h141q31 0 42 -17.5t15 -34.5l138 -976l550 976q10 16 29 34t49 18h176q35 0 43 -25q3 -8 3 -17q0 -17 -11 -34l-727 -1288q-20 -35 -39.5 -52.5t-52.5 -17.5h-176q-33 0 -46 17.5t-18 52.5z"/>
			<glyph unicode="W" horiz-adv-x="1644"
				   d="M219 70l12 1292q0 14 2 16q4 23 23.5 39.5t42.5 16.5h152q20 0 36.5 -12.5t16.5 -43.5l-8 -829l270 508q6 14 26.5 36.5t57.5 22.5h145q37 0 48.5 -22.5t11.5 -36.5l57 -516l344 837q12 31 32.5 43.5t41.5 12.5h164q23 0 36 -16q10 -13 10 -30q0 -5 -1 -10l-6 -16 l-533 -1292q-14 -31 -34.5 -50.5t-51.5 -19.5h-160q-31 0 -43 19.5t-14 50.5l-61 579l-310 -579q-16 -31 -35.5 -50.5t-50.5 -19.5h-164q-31 0 -45 20q-12 17 -12 42v8z"/>
			<glyph unicode="X" horiz-adv-x="1366"
				   d="M-89 28q-3 9 -3 16q0 18 14 34l627 674l-301 600q-14 29 6 55.5t57 26.5h146q41 0 55 -20.5t20 -31.5l218 -428l395 428q10 10 32.5 31t63.5 21h205q33 0 43 -28q3 -9 3 -18q0 -17 -13 -32l-607 -654l314 -616q8 -16 5 -31.5t-13.5 -28t-24.5 -19.5t-29 -7h-145 q-39 0 -54.5 20.5t-21.5 30.5l-229 449l-416 -449q-10 -10 -32.5 -30.5t-63.5 -20.5h-207q-35 0 -44 28z"/>
			<glyph unicode="Y" horiz-adv-x="1349"
				   d="M215 1354q-3 10 -3 19q0 21 16 37q22 24 51 24h139q41 0 56 -20.5t20 -31.5l202 -571l447 571q16 20 35.5 36t60.5 16h182q29 0 41 -26q6 -11 6 -21q0 -14 -10 -27l-670 -854l-96 -451q-4 -23 -23.5 -39t-41.5 -16h-162q-23 0 -36 16.5t-9 38.5l96 451z"/>
			<glyph unicode="Z" horiz-adv-x="1296"
				   d="M-37 55l31 146q6 27 21.5 44t25.5 27l895 906h-657q-23 0 -36.5 16t-9.5 39l33 145q4 23 23.5 39.5t42.5 16.5h985q23 0 36 -16q10 -13 10 -30q0 -5 -1 -10l-33 -145q-4 -23 -15 -38t-26 -30l-901 -909h700q23 0 36.5 -16.5t6.5 -38.5l-30 -146q-4 -23 -23.5 -39 t-42.5 -16h-1026q-23 0 -36 16q-10 13 -10 29q0 5 1 10z"/>
			<glyph unicode="[" horiz-adv-x="722"
				   d="M-49 -270l385 1804q4 23 23.5 39t41.5 16h418q23 0 36 -16.5t9 -38.5l-28 -135q-4 -23 -24.5 -39.5t-43.5 -16.5h-207l-303 -1423h207q23 0 35 -16.5t8 -38.5l-29 -135q-4 -23 -23.5 -39.5t-41.5 -16.5h-418q-23 0 -36 16.5t-9 39.5z"/>
			<glyph unicode="\" horiz-adv-x="1054"
				   d="M250 1546q-4 25 13.5 44.5t41.5 19.5h135q39 0 55.5 -19.5t20.5 -42.5l334 -1657q4 -23 -12.5 -43t-40.5 -20h-129q-41 0 -57.5 20.5t-20.5 40.5z"/>
			<glyph unicode="]" horiz-adv-x="720"
				   d="M-131 -270l29 135q4 23 24.5 39t42.5 16h207l303 1423h-207q-23 0 -35 16.5t-8 39.5l29 135q4 23 23.5 39t41.5 16h418q23 0 36 -16.5t9 -38.5l-385 -1804q-4 -23 -23.5 -39.5t-41.5 -16.5h-418q-23 0 -36 16.5t-9 39.5z"/>
			<glyph unicode="^" horiz-adv-x="878"
				   d="M242 1251q4 16 16 27l234 209q25 23 43 31t40 8h123q23 0 37.5 -8.5t30.5 -30.5l143 -209q8 -10 4 -27q-6 -33 -39 -32h-63q-20 0 -31.5 5t-27.5 17l-131 96l-172 -96q-20 -12 -34 -17t-34 -5h-113q-33 0 -26 32z"/>
			<glyph unicode="_" horiz-adv-x="1509"
				   d="M-39 -68l31 136q4 23 23.5 39t41.5 16h1198q23 0 36.5 -16.5t8.5 -38.5l-30 -136q-4 -23 -23.5 -39t-42.5 -16h-1198q-23 0 -36 16.5t-9 38.5z"/>
			<glyph unicode="`" horiz-adv-x="507"
				   d="M67 1500q13 26 44 26h194q23 0 37 -5t31 -34l129 -209q12 -20 -0.5 -39.5t-34.5 -19.5h-113q-33 0 -48 10t-30 24l-202 201q-20 20 -7 46z"/>
			<glyph unicode="a"
				   d="M61 471q6 31 14.5 72t16.5 71q25 94 70 180.5t112.5 151t155.5 102t199 37.5q63 0 114.5 -12t89 -30.5t62.5 -40t37 -39.5l10 47q4 23 23.5 39t42.5 16h155q23 -1 36 -17q10 -13 10 -28q0 -5 -1 -10l-202 -955q-4 -23 -23.5 -39t-42.5 -16h-156q-23 0 -36 16.5t-9 38.5 l11 47q-20 -25 -45 -47t-62 -38.5t-87 -26.5t-122 -10q-96 0 -172 40.5t-125 109.5t-71 158q-12 51 -12 104q0 39 7 79zM330 475q-3 -28 -4 -52q0 -34 7 -61q11 -47 37.5 -77.5t67.5 -45t90 -14.5q100 0 181.5 59.5t115.5 170.5q10 31 19.5 78t13.5 77q2 19 2 37 q0 81 -45 131q-55 62 -156 62q-100 0 -182 -58.5t-123 -191.5q-10 -31 -15 -57.5t-9 -57.5z"/>
			<glyph unicode="b"
				   d="M25 55l286 1344q4 23 23.5 39t42.5 16h155q23 0 36.5 -16.5t9.5 -38.5l-95 -436q20 18 49 39.5t67 40t87.5 30.5t112.5 12q94 0 169.5 -42t125.5 -111q50 -70 70 -159q11 -50 12 -102q0 -40 -7 -81q-4 -31 -12 -72t-18 -72q-25 -94 -70 -179t-111.5 -148.5t-154.5 -101 t-199 -37.5q-63 0 -113.5 12t-88 30.5t-63.5 40t-38 39.5l-10 -47q-4 -23 -23.5 -39t-42.5 -16h-155q-22 0 -36 16q-10 12 -10 28q0 5 1 11zM377 455q-3 -22 -3 -42q0 -81 45 -129q56 -60 156 -59q100 0 182.5 58.5t123.5 191.5q10 31 15 57.5t9 57.5q3 26 3 50 q0 92 -45 140q-56 60 -156 60t-181.5 -61.5t-115.5 -168.5q-10 -31 -19.5 -78t-13.5 -77z"/>
			<glyph unicode="c" horiz-adv-x="1177"
				   d="M57 449q4 37 14.5 81.5t20.5 83.5q27 94 75 180.5t119.5 151t170 102t225.5 37.5q125 0 212 -38.5t142 -94.5q54 -56 76 -118q16 -46 16 -83q0 -12 -2 -22q-4 -23 -24.5 -39t-42.5 -16h-150q-23 0 -34 18.5t-21 36.5q-10 25 -24.5 44.5t-37 34.5t-56.5 23.5t-85 8.5 q-43 0 -86 -13.5t-83 -41t-73 -73t-53 -108.5q-10 -31 -18 -71.5t-12 -71.5q-2 -20 -2 -38q0 -39 9 -71q13 -46 40.5 -73t65.5 -40.5t81 -13.5q100 0 151.5 32t92.5 79q16 18 36.5 36.5t43.5 18.5h157q23 0 37.5 -16.5t5.5 -38.5q-12 -43 -44.5 -104.5t-97 -118t-166 -95 t-249.5 -38.5q-104 0 -189 37.5t-142.5 102t-83.5 149.5q-18 59 -19 122q0 28 4 58z"/>
			<glyph unicode="d" horiz-adv-x="1265"
				   d="M63 473q6 31 14.5 72t16.5 71q25 94 70 179.5t111.5 150t154.5 102t199 37.5q63 0 114.5 -12t89 -30.5t62.5 -40t37 -39.5l94 436q4 23 23.5 39t42.5 16h155q23 0 36 -16q10 -13 10 -29q0 -5 -1 -10l-286 -1344q-4 -23 -23.5 -39t-42.5 -16h-156q-23 0 -36 16.5t-9 38.5 l11 47q-18 -23 -44 -45t-62 -39.5t-87 -27.5t-123 -10q-96 0 -171 41.5t-125 110.5t-70 158q-12 50 -12 102q0 40 7 81zM330 475q-3 -28 -3 -52q0 -34 6 -61q11 -47 37.5 -77.5t67.5 -45t90 -14.5q100 0 181.5 59.5t115.5 170.5q10 31 19.5 78t13.5 77q2 19 2 37 q0 81 -45 131q-55 62 -156 62q-100 0 -182 -58.5t-123 -191.5q-10 -31 -15 -57.5t-9 -57.5z"/>
			<glyph unicode="e" horiz-adv-x="1165"
				   d="M66 314q-10 47 -11 99q0 61 15 128q25 115 71.5 214t119.5 172.5t173.5 115.5t231.5 42q106 0 193 -42t143 -113q56 -70 78 -165q10 -46 11 -94q0 -52 -12 -106l-18 -92q-6 -23 -25.5 -39t-42.5 -16h-684q-4 -21 -5 -40q0 -23 8 -43q12 -36 39.5 -60.5t67.5 -37t85 -12.5 q66 0 109.5 13.5t74.5 33.5q25 16 41 22.5t41 6.5h164q23 0 36 -16.5t7 -38.5q-8 -29 -42 -74t-96.5 -88t-153.5 -73.5t-214 -30.5q-100 0 -185 41.5t-141.5 115t-78.5 177.5zM358 651h463q1 10 1 21q0 21 -3 44q-4 34 -23.5 61.5t-57 45t-103.5 17.5q-59 0 -105.5 -17.5 t-81 -45t-57 -61.5t-33.5 -65z"/>
			<glyph unicode="f" horiz-adv-x="876"
				   d="M104 874l29 136q4 23 24.5 39t43.5 16h135l20 92q20 98 60.5 167t98.5 112t134 61.5t168 18.5h187q23 0 35 -16q9 -13 9 -29q0 -5 -1 -11l-29 -135q-4 -23 -24.5 -39t-43.5 -16h-145q-61 0 -116.5 -29t-72.5 -104l-14 -72h285q23 0 35 -16.5t8 -38.5l-29 -136 q-4 -23 -23.5 -39t-41.5 -16h-285l-164 -764q-4 -23 -23.5 -39t-41.5 -16h-156q-23 0 -36 16.5t-9 38.5l164 764h-135q-23 0 -36 17q-11 12 -11 28q0 5 1 10z"/>
			<glyph unicode="g"
				   d="M-49 -125q4 23 23.5 39t41.5 16h140q29 0 46 -19.5t27 -35.5q20 -35 60.5 -57.5t138.5 -22.5q43 0 91 13.5t91 42t76 72.5t45 104l17 75q-18 -23 -43 -44t-62 -38.5t-88 -28.5t-123 -11q-96 0 -171 40.5t-124 109.5t-69 158q-12 50 -12 102q0 40 7 81q6 31 14.5 72 t16.5 71q25 94 70 180.5t110.5 151t153.5 102t199 37.5q63 0 114.5 -12t89 -30.5t62.5 -40t37 -39.5l10 47q4 23 24.5 39t43.5 16h155q23 0 35 -17q9 -12 9 -27q0 -5 -1 -11l-202 -961q-53 -248 -193.5 -374t-413.5 -126q-96 0 -181 28t-146.5 74t-93.5 105q-27 46 -27 95 q0 12 2 24zM328 475q-3 -28 -3 -52q0 -34 6 -61q11 -47 37.5 -77.5t67.5 -45t90 -14.5q100 0 181 59.5t116 170.5q10 31 19.5 78t13.5 77q2 19 2 37q0 80 -45 131q-55 62 -156 62q-100 0 -182 -58.5t-123 -191.5q-10 -31 -15 -57.5t-9 -57.5z"/>
			<glyph unicode="h" horiz-adv-x="1267"
				   d="M25 55l286 1344q4 23 23.5 39t42.5 16h155q23 0 36.5 -16.5t9.5 -38.5l-95 -436q53 59 128 90.5t173 31.5q109 0 187 -38.5t122 -104.5q44 -64 56 -152q4 -33 5 -67q0 -57 -13 -117l-117 -551q-4 -23 -23.5 -39t-42.5 -16h-155q-23 0 -36 16.5t-9 38.5l110 520 q11 48 11 89q0 63 -26 108q-42 74 -161 74q-109 0 -186.5 -74t-104.5 -197l-110 -520q-4 -23 -23.5 -39t-42.5 -16h-155q-22 0 -36 16q-10 12 -10 28q0 5 1 11z"/>
			<glyph unicode="i" horiz-adv-x="548"
				   d="M25 55l202 955q4 23 24.5 39t43.5 16h156q23 0 35 -16.5t8 -38.5l-203 -955q-4 -23 -23.5 -39t-42.5 -16h-155q-22 0 -36 16q-10 12 -10 28q0 5 1 11zM266 1239l35 160q4 23 23.5 39t42.5 16h176q23 0 36 -16q10 -13 10 -29q0 -5 -1 -10l-35 -160q-4 -23 -24.5 -39 t-43.5 -16h-176q-23 0 -35 16q-9 12 -9 28q0 5 1 11z"/>
			<glyph unicode="j" horiz-adv-x="569"
				   d="M-274 -334l28 135q4 23 24.5 39.5t43.5 16.5h31q76 0 119.5 34.5t58.5 98.5l217 1020q4 23 24.5 39t42.5 16h156q23 0 35 -16.5t8 -38.5l-219 -1030q-39 -184 -148.5 -276.5t-285.5 -92.5h-92q-23 0 -35 17q-9 11 -9 26q0 6 1 12zM287 1239l35 160q4 23 23.5 39t41.5 16 h176q23 0 36 -16q10 -13 10 -29q0 -5 -1 -10l-35 -160q-4 -23 -24.5 -39t-42.5 -16h-176q-23 0 -35 16q-9 13 -9 28q0 6 1 11z"/>
			<glyph unicode="k" horiz-adv-x="1175"
				   d="M25 55l286 1344q4 23 23.5 39t42.5 16h155q23 0 36.5 -16.5t9.5 -38.5l-144 -672l416 303q14 10 36.5 22.5t51.5 12.5h240q20 -1 32 -15q9 -11 8 -24q0 -5 -1 -10q-2 -10 -8.5 -19.5t-22.5 -21.5l-570 -418l406 -469q10 -12 12 -20.5t0 -18.5q-4 -20 -21.5 -34.5 t-37.5 -14.5h-160q-31 0 -50.5 12.5t-27.5 22.5l-364 407l-82 -387q-4 -23 -23.5 -39t-42.5 -16h-155q-22 0 -36 16q-10 12 -10 28q0 5 1 11z"/>
			<glyph unicode="l" horiz-adv-x="550"
				   d="M25 55l286 1344q4 23 23.5 39t42.5 16h155q22 0 36 -16q10 -13 11 -29q0 -5 -1 -10l-287 -1344q-4 -23 -23.5 -39t-42.5 -16h-155q-22 0 -36 16q-10 12 -10 28q0 5 1 11z"/>
			<glyph unicode="m" horiz-adv-x="1880"
				   d="M25 55l202 955q4 23 24.5 39t43.5 16h156q23 0 35 -16.5t8 -38.5l-11 -47q51 55 115 88.5t156 33.5q115 0 200.5 -51t122.5 -123q74 84 159 129t189 45q109 0 181.5 -38.5t111.5 -104.5q38 -64 46 -152q2 -23 2 -47q0 -66 -15 -137l-117 -551q-4 -23 -23.5 -39t-41.5 -16 h-156q-23 0 -36 16.5t-9 38.5l115 541q12 58 12 101q0 61 -24 93q-41 56 -138 56q-82 0 -151.5 -53.5t-102.5 -186.5l-116 -551q-4 -23 -23.5 -39t-42.5 -16h-156q-23 0 -36 16.5t-9 38.5l115 541q12 58 12 101q0 61 -24 93q-41 56 -137 56q-84 0 -156 -56.5t-100 -193.5 l-115 -541q-4 -23 -23.5 -39t-42.5 -16h-155q-22 0 -36 16q-10 12 -10 28q0 5 1 11z"/>
			<glyph unicode="n" horiz-adv-x="1267"
				   d="M25 55l202 955q4 23 24.5 39t43.5 16h156q23 0 35 -16.5t8 -38.5l-11 -47q53 57 128 89.5t173 32.5q109 0 187 -38.5t122 -104.5q44 -64 56 -152q4 -33 5 -67q0 -57 -13 -117l-117 -551q-4 -23 -23.5 -39t-42.5 -16h-155q-23 0 -36 16.5t-9 38.5l110 520q11 48 11 89 q0 63 -26 108q-42 74 -161 74q-109 0 -186.5 -74t-104.5 -197l-110 -520q-4 -23 -23.5 -39t-42.5 -16h-155q-22 0 -36 16q-10 12 -10 28q0 5 1 11z"/>
			<glyph unicode="o" horiz-adv-x="1214"
				   d="M57 438q2 18 7.5 46t11.5 56.5t12 57.5t12 47q27 94 75 175t120 139.5t169 92t224 33.5q104 0 190.5 -36.5t145.5 -99t87 -146.5q18 -55 18 -114q0 -32 -5 -64q-2 -18 -7 -47t-11 -57.5t-12.5 -56.5t-12.5 -46q-29 -94 -72.5 -174t-113.5 -138.5t-168 -92t-233 -33.5 q-104 0 -190.5 36.5t-145 99t-86.5 145.5q-19 58 -19 121q0 27 4 56zM324 440q-2 -19 -2 -36q0 -40 10 -69q14 -42 44 -66.5t68.5 -34t81.5 -9.5t86 9.5t83 34t73 66.5t51 105q4 14 10.5 40t12.5 52.5t10 51.5t6 41q3 23 3 43q0 35 -9 62q-14 42 -44 66.5t-69 34t-82 9.5 t-86 -9.5t-82.5 -34t-72.5 -66.5t-54 -105q-4 -16 -10 -41t-12 -51.5t-10 -52t-6 -40.5z"/>
			<glyph unicode="p" horiz-adv-x="1267"
				   d="M-57 -334l286 1344q4 23 23.5 39t42.5 16h156q23 0 36 -16.5t9 -38.5l-11 -47q20 18 46 39.5t63 40t87 30.5t120 12q94 0 171 -42t126 -111.5t70 -159.5q12 -53 12 -108q0 -38 -6 -76q-6 -31 -14.5 -72t-16.5 -72q-25 -94 -70 -179t-112.5 -148.5t-155.5 -100t-199 -36.5 q-63 0 -114.5 12t-89 30.5t-62.5 40t-37 39.5l-94 -436q-4 -23 -23.5 -39t-42.5 -16h-155q-23 0 -36 17q-10 12 -10 28q0 5 1 10zM377 455q-2 -19 -2 -37q0 -80 45 -131q55 -62 155 -62t182.5 58.5t123.5 191.5q10 31 15 57.5t9 57.5q3 26 3 50q0 93 -45 140q-56 60 -156 60 t-181.5 -59.5t-115.5 -170.5q-10 -31 -19.5 -78t-13.5 -77z"/>
			<glyph unicode="q"
				   d="M63 475q4 31 12.5 72t18.5 71q25 94 70 179.5t111.5 149t154.5 101t199 37.5q63 0 113.5 -12t88 -30.5t63.5 -40t38 -39.5l10 47q4 23 23.5 39t42.5 16h155q23 0 36 -17q10 -12 10 -28q0 -5 -1 -10l-286 -1344q-4 -23 -23.5 -39t-42.5 -16h-156q-23 0 -36 16.5t-9 38.5 l95 436q-23 -18 -50.5 -39.5t-65.5 -40t-87.5 -30.5t-112.5 -12q-96 0 -171 41.5t-125 111.5t-70 159q-12 50 -12 102q0 40 7 81zM328 475q-3 -28 -3 -52q0 -34 6 -61q11 -47 37.5 -77.5t67.5 -45t90 -14.5q100 0 181 61.5t116 168.5q10 31 19.5 78t13.5 77q3 22 3 42 q0 81 -45 128q-56 60 -157 60q-100 0 -182 -58.5t-123 -191.5q-10 -31 -15 -57.5t-9 -57.5z"/>
			<glyph unicode="r" horiz-adv-x="856"
				   d="M25 55l202 955q4 23 24.5 39t43.5 16h156q23 0 35 -16.5t8 -38.5l-11 -47q25 27 49.5 46t54 31.5t65.5 18.5t85 6h133q24 -1 36 -17q9 -12 8 -26q0 -6 -1 -12l-28 -136q-4 -23 -23.5 -39t-42.5 -16h-133q-123 0 -188.5 -54t-91.5 -177l-115 -533q-4 -23 -23.5 -39 t-42.5 -16h-155q-22 0 -36 16q-10 12 -10 28q0 5 1 11z"/>
			<glyph unicode="s" horiz-adv-x="1062"
				   d="M6 264q2 23 23.5 39t44.5 16h157q31 0 43.5 -14t28.5 -32.5t47 -33t101 -14.5q31 0 64.5 4t63 13.5t51 24.5t25.5 38q6 23 -5 37t-45 26.5t-91 25t-143 32.5t-138.5 54t-79 79t-28.5 101v15q0 48 10 101q12 61 44 117.5t87.5 98.5t138 67.5t197.5 25.5q92 0 165 -22.5 t124 -59t79.5 -85t30.5 -97.5q2 -23 -21.5 -39t-45.5 -16h-158q-31 0 -44 11t-28.5 25.5t-43 26t-89.5 11.5q-61 0 -112 -18.5t-62 -65.5q-4 -23 4.5 -38.5t37 -27.5t81.5 -25.5t139 -31.5q88 -18 144.5 -52t86.5 -79q30 -44 35 -100q1 -16 1 -34q0 -40 -8 -83 q-12 -61 -46 -116.5t-94.5 -97.5t-148.5 -66.5t-211 -24.5q-100 0 -178 25.5t-130 65.5q-54 40 -80 91q-25 47 -24 95v7z"/>
			<glyph unicode="t" horiz-adv-x="886"
				   d="M92 874l29 136q4 23 24.5 39t42.5 16h136l71 334q4 23 23.5 39t42.5 16h155q23 0 36.5 -16.5t9.5 -38.5l-72 -334h264q23 -1 35 -17q9 -12 9 -27q0 -5 -1 -11l-29 -136q-4 -23 -23.5 -39t-41.5 -16h-264l-95 -434q-5 -27 -6 -50q0 -29 10 -51q16 -38 87 -38h165 q23 0 35.5 -16.5t7.5 -39.5l-28 -135q-4 -23 -23.5 -39t-42.5 -16h-131q-193 0 -286 100q-66 70 -66 180q0 46 12 99l94 440h-135q-23 1 -36 17q-10 13 -10 28q0 5 1 10z"/>
			<glyph unicode="u" horiz-adv-x="1247"
				   d="M87 275q-4 31 -4 63q0 58 13 121l117 551q4 23 24.5 39t43.5 16h155q23 0 35 -16.5t8 -38.5l-110 -521q-11 -52 -11 -95q0 -60 21 -102q37 -74 156 -73q109 0 181 74t99 196l111 521q4 23 24.5 39t42.5 16h156q23 -1 35 -17q9 -12 9 -27q0 -5 -1 -11l-203 -955 q-4 -23 -23.5 -39t-41.5 -16h-156q-23 0 -36 16.5t-9 38.5l10 47q-47 -57 -111.5 -89.5t-179.5 -32.5q-109 0 -184.5 38.5t-117.5 104t-53 152.5z"/>
			<glyph unicode="v" horiz-adv-x="1210"
				   d="M139 987q-2 9 -2 17q-1 22 15 38q22 22 53 23h139q31 0 42 -16.5t15 -32.5l142 -627l403 627q10 16 28.5 32.5t49.5 16.5h176q31 1 42 -23q5 -10 5 -21q0 -13 -8 -26l-612 -944q-12 -18 -29.5 -34.5t-48.5 -16.5h-143q-31 0 -42.5 14.5t-15.5 36.5z"/>
			<glyph unicode="w" horiz-adv-x="1701"
				   d="M145 995q-1 5 -1 9q0 22 18 40q22 20 51 21h141q29 0 37 -15.5t10 -31.5l68 -576l319 574q10 16 28 32.5t40 16.5h148q23 0 34 -16.5t13 -32.5l77 -553l304 553q10 16 24 32.5t43 16.5h184q29 -1 39 -25q5 -11 5 -21q0 -13 -7 -26l-514 -942q-10 -18 -25.5 -34.5 t-43.5 -16.5h-152q-29 0 -37 16.5t-12 34.5l-86 567l-330 -567q-10 -20 -25.5 -35.5t-43.5 -15.5h-146q-29 0 -38 16.5t-11 34.5z"/>
			<glyph unicode="x" horiz-adv-x="1183"
				   d="M-75 32q-2 7 -1.5 14.5t1.5 15.5q3 14 14 24l479 473l-244 416q-14 25 5.5 57.5t56.5 32.5h124q27 0 47.5 -7t34.5 -32l166 -287l291 287q25 25 48.5 32t49.5 7h185q18 0 28.5 -10.5t13.5 -23.5q1 -6 1 -12q0 -9 -2 -17q-4 -16 -15 -23l-471 -461l252 -432 q16 -29 -6 -57.5t-55 -28.5h-127q-27 0 -47.5 7t-34.5 32l-172 297l-301 -297q-27 -25 -49.5 -32t-49.5 -7h-182q-16 0 -26.5 9t-13.5 23z"/>
			<glyph unicode="y" horiz-adv-x="1202"
				   d="M84 -366q-6 11 -6 22q0 13 8 25l258 399l-201 915q-6 29 15.5 49.5t48.5 20.5h145q47 0 58 -49l135 -625l403 625q10 16 31.5 32.5t46.5 16.5h170h4q26 0 37 -23q5 -10 5 -21q0 -15 -9 -30l-862 -1337q-10 -16 -29.5 -29.5t-44.5 -13.5h-172q-29 0 -41 23z"/>
			<glyph unicode="z" horiz-adv-x="1103"
				   d="M-31 55l31 140q6 25 16.5 40t26.5 29l612 555h-446q-23 0 -36 16.5t-9 38.5l29 136q4 23 24.5 39t42.5 16h770q23 -1 35 -17q9 -12 9 -27q0 -5 -1 -11l-29 -140q-4 -18 -15 -37.5t-28 -31.5l-612 -555h508q23 0 35 -16.5t8 -39.5l-29 -135q-4 -23 -23.5 -39t-41.5 -16 h-832q-23 0 -36 16q-10 13 -10 29q0 5 1 10z"/>
			<glyph unicode="{" horiz-adv-x="808"
				   d="M6 578l23 106q12 49 75 76l39 14q66 25 108 90.5t62 163.5q57 274 195.5 417.5t396.5 143.5q23 0 36 -16.5t9 -38.5l-28 -135q-6 -23 -25.5 -39.5t-42.5 -16.5q-86 0 -167 -96t-122 -286q-16 -74 -40.5 -128.5t-54.5 -93.5t-63.5 -64.5t-64.5 -43.5q25 -18 46.5 -44 t35.5 -65t16 -93t-14 -128q-37 -174 -6 -274.5t131 -106.5q23 -2 36 -17.5t7 -37.5l-29 -135q-4 -23 -23.5 -39.5t-41.5 -16.5q-80 0 -153 39t-125 111t-75.5 176t-1.5 233q16 98 4 164t-67 90l-31 15q-55 27 -45 76z"/>
			<glyph unicode="|" horiz-adv-x="544"
				   d="M-68 -371l457 2151q4 23 24.5 39t43.5 16h155q23 0 35 -16.5t8 -38.5l-456 -2151q-4 -23 -24.5 -39t-43.5 -16h-156q-23 0 -35 16.5t-8 38.5z"/>
			<glyph unicode="}" horiz-adv-x="808"
				   d="M-131 -270l29 135q6 23 25.5 39t41.5 16q86 0 167 96.5t122 286.5q14 74 39.5 128t55.5 93t63.5 64.5t64.5 44.5q-25 18 -46 43.5t-35.5 64.5t-16.5 93.5t14 128.5q37 174 6.5 274t-131.5 106q-23 2 -36 17.5t-7 38.5l29 135q4 23 23.5 39t41.5 16q80 0 153 -39 t125 -110.5t74.5 -176t2.5 -233.5q-16 -98 -4 -163.5t67 -90.5l31 -14q55 -27 45 -76l-22 -106q-12 -49 -76 -76l-39 -15q-66 -25 -108 -90t-62 -163q-29 -137 -77 -243t-119.5 -176.5t-169 -106.5t-226.5 -36q-23 0 -36 16.5t-9 39.5z"/>
			<glyph unicode="~" horiz-adv-x="1140"
				   d="M121 539l18 82q6 33 27.5 63.5t52.5 52t68 34.5t73 13q76 0 125.5 -13t92.5 -29.5t90 -30t118 -13.5q25 0 50.5 6.5t49 14.5t42 17t28.5 16q47 29 64.5 12.5t5.5 -70.5l-18 -82q-6 -35 -28 -64.5t-52.5 -51t-67.5 -34.5t-74 -13q-76 0 -125 13t-92 29.5t-90 30t-119 13.5 q-25 0 -50 -6.5t-48.5 -14.5t-42 -17.5t-29.5 -15.5q-47 -29 -64 -12.5t-5 70.5z"/>
			<glyph unicode="&#xa1;" horiz-adv-x="534"
				   d="M-61 -311l194 909q4 23 24.5 39t43.5 16h155q23 0 35 -16t8 -39l-194 -909q-4 -23 -23.5 -39.5t-42.5 -16.5h-155q-23 0 -36.5 16.5t-8.5 39.5zM172 831l39 181q4 23 23.5 39t41.5 16h177q23 0 36 -16.5t9 -38.5l-39 -181q-4 -23 -24.5 -39t-43.5 -16h-176 q-23 0 -35 16.5t-8 38.5z"/>
			<glyph unicode="&#xa2;" horiz-adv-x="1191"
				   d="M66 449q4 37 14 81.5t20 83.5q23 82 63 158t97 137.5t134 105.5t175 60l27 119q6 23 25.5 39t42.5 16h155q23 0 36 -16t7 -39l-26 -127q84 -23 143 -63.5t96 -90t51.5 -98.5t8.5 -86q-4 -23 -24.5 -39t-43.5 -16h-149q-23 0 -34.5 18.5t-21.5 36.5q-10 25 -24.5 44.5 t-37 34.5t-56 23.5t-85.5 8.5q-43 0 -86 -13.5t-82.5 -41t-72.5 -73t-53 -108.5q-10 -31 -18.5 -71.5t-12.5 -71.5q-6 -63 7 -108.5t41 -73t65.5 -41t80.5 -13.5q100 0 151.5 32t92.5 79q16 18 36.5 36.5t43.5 18.5h158q23 0 37 -16.5t6 -38.5q-10 -39 -39 -93.5t-81 -105.5 t-132 -93t-195 -56l-28 -138q-4 -23 -25 -39t-43 -16h-156q-23 0 -35 16.5t-8 38.5l31 152q-72 25 -127 69t-92 103t-52.5 129t-4.5 146z"/>
			<glyph unicode="&#xa3;" horiz-adv-x="1466"
				   d="M-31 45q10 49 35 101.5t61.5 99.5t87 83t111.5 54q10 57 15.5 111.5t9.5 109.5h-146q-45 0 -34 45l24 115q10 45 53 45h117q23 141 71 260t128 204t192.5 133t261.5 48q129 0 223.5 -45t154 -114.5t83 -155.5t8.5 -168q-4 -18 -19 -31.5t-34 -13.5h-186q-16 0 -26.5 13 t-10.5 32q2 41 -6 82t-33 72.5t-70 52t-116 20.5q-66 0 -123.5 -25.5t-103.5 -74.5t-76.5 -122t-40.5 -167h387q20 0 30.5 -12.5t6.5 -32.5l-25 -115q-10 -45 -55 -45h-359q-4 -96 -18 -190q74 -14 119 -44t78.5 -60.5t64.5 -53.5t72 -23q57 0 97 33t75 88q12 20 29.5 32.5 t33.5 12.5h180q18 0 28.5 -13t6.5 -32q-14 -68 -49 -134t-92 -120.5t-138 -88.5t-186 -34q-104 0 -167.5 30t-107.5 64.5t-81 64.5t-88 30q-57 0 -98 -33t-76 -88q-12 -20 -28.5 -32.5t-33.5 -12.5h-180q-18 0 -29.5 13.5t-7.5 31.5z"/>
			<glyph unicode="&#xa4;" horiz-adv-x="1230"
				   d="M39 268q4 23 24 39l103 86q-23 53 -28 111t9 121q27 137 113 247l-63 82q-14 16 -9 39t25 39l86 74q20 16 43 16t37 -16l61 -82q57 29 121 45t135 16q59 0 116.5 -18t107.5 -51l110 92q20 16 43 16t37 -16l80 -107q12 -16 8 -38.5t-27 -38.5l-106 -88q45 -109 20 -234 q-31 -143 -110 -250l61 -80q12 -16 8 -38.5t-24 -38.5l-86 -74q-20 -16 -43 -16.5t-35 16.5l-63 80q-115 -57 -256 -58q-125 0 -224 70l-108 -90q-18 -16 -41 -16.5t-37 16.5l-80 106q-12 16 -8 39zM384 525q9 -42 33.5 -73.5t63.5 -50t86 -18.5t93.5 18.5t85 50t65.5 73.5 t37 89t1 89t-33.5 74t-63.5 50.5t-86 18.5t-93.5 -18.5t-85 -50.5t-65.5 -74t-37 -89t-1 -89z"/>
			<glyph unicode="&#xa5;" horiz-adv-x="1380"
				   d="M123 297l16 74q10 45 56 45h315l12 61h-315q-45 0 -35 45l14 74q10 45 56 45h245l-262 713q-10 33 12.5 56.5t51.5 23.5h131q41 0 56.5 -20.5t19.5 -31.5l209 -571l456 571q16 20 36 36t60 16h177q29 0 42 -26t-6 -48l-575 -719h248q45 0 35 -45l-15 -74q-10 -45 -55 -45 h-313l-15 -61h316q45 0 34 -45l-16 -74q-4 -20 -18.5 -32.5t-34.5 -12.5h-316l-40 -197q-4 -23 -23.5 -39t-42.5 -16h-162q-23 0 -36 16.5t-9 38.5l41 197h-313q-43 0 -37 45z"/>
			<glyph unicode="&#xa6;" horiz-adv-x="555"
				   d="M27 55l131 615q4 23 24.5 39t42.5 16h156q23 0 35 -16.5t8 -38.5l-131 -615q-4 -23 -23.5 -39t-42.5 -16h-155q-23 0 -36 16.5t-9 38.5zM233 1028l132 614q4 23 24.5 39.5t42.5 16.5h156q23 0 35 -16.5t8 -39.5l-131 -614q-4 -23 -24.5 -39t-43.5 -16h-156 q-23 0 -35 16.5t-8 38.5z"/>
			<glyph unicode="&#xa7;" horiz-adv-x="1226"
				   d="M12 10q4 27 24.5 41.5t39.5 14.5h157q31 0 44.5 -16.5t31 -37t48 -37t98.5 -16.5q72 0 131 29.5t71 89.5q10 53 -49 90t-207 82q-199 59 -276.5 158.5t-44.5 248.5q20 102 76.5 162t138.5 107q-23 68 -2 155q37 180 166 276.5t334 96.5q111 0 191.5 -31.5t131.5 -78 t73.5 -97.5t16.5 -90q-4 -27 -25.5 -41t-39.5 -14h-158q-31 0 -45 16.5t-30.5 37t-47.5 36.5t-98 16q-72 0 -130.5 -29.5t-70.5 -88.5q-12 -53 47.5 -90t206.5 -82q199 -59 277 -158.5t47 -249.5q-23 -104 -79 -163.5t-140 -106.5q10 -33 12 -70t-8 -84 q-37 -180 -166 -276.5t-334 -96.5q-111 0 -191.5 32t-132 78t-73 97t-15.5 90zM342 643q-6 -29 12.5 -50.5t56.5 -42t93 -41t123 -44.5q70 -29 129 -55q59 27 84.5 53t33.5 61q6 27 -12 49.5t-56 43t-93.5 41t-122.5 44.5q-72 25 -129 56q-57 -27 -84 -53.5t-35 -61.5z"/>
			<glyph unicode="&#xa8;" horiz-adv-x="806"
				   d="M63 1274l37 180q4 23 24.5 39t43.5 16h170q23 0 35 -16t8 -39l-37 -180q-4 -23 -24.5 -39t-43.5 -16h-170q-23 0 -35 16t-8 39zM487 1274l37 180q4 23 24.5 39t43.5 16h170q23 0 35 -16t8 -39l-37 -180q-4 -23 -24.5 -39t-43.5 -16h-170q-23 0 -35 16t-8 39z"/>
			<glyph unicode="&#xa9;" horiz-adv-x="1665"
				   d="M122 446q-32 137 1 291t111.5 285t193.5 227.5t259 150.5t304 54q154 0 278 -61.5t205.5 -165t114.5 -240.5t0 -291t-112.5 -284.5t-194.5 -227t-259 -150.5t-304 -54q-154 0 -278 61t-205.5 164.5t-113.5 240.5zM288.5 493.5q20.5 -104.5 80 -182.5t152.5 -123t212 -45 t231.5 45t205 123t159 182.5t90.5 223.5q25 119 4.5 223t-81 182t-153.5 123t-212 45t-231.5 -45t-204.5 -123t-157.5 -182t-90.5 -223t-4.5 -223.5zM481 649q4 31 12.5 69.5t16.5 69.5q18 74 50 133.5t80 102.5t113.5 66.5t153.5 23.5q76 0 138.5 -26.5t104.5 -64.5 t61.5 -82t11.5 -81q-10 -45 -56 -45h-120q-25 0 -32 15.5t-11 27.5q-18 45 -53.5 54.5t-63.5 9.5q-68 0 -108 -35t-56 -99q-8 -31 -16.5 -69.5t-12.5 -69.5q-10 -63 14.5 -98t92.5 -35q29 0 66.5 9.5t76.5 54.5q10 12 23.5 27.5t38.5 15.5h120q45 0 35 -45q-8 -37 -33.5 -81 t-71.5 -82t-115 -64.5t-161 -26.5q-72 0 -132 23.5t-102 66.5t-59.5 102t-5.5 133z"/>
			<glyph unicode="&#xaa;" horiz-adv-x="733"
				   d="M172 1042q16 74 91 123t188 66l124 18q4 16 -6 40t-55 24q-20 0 -36.5 -6.5t-31 -14.5t-30 -14t-31.5 -6h-76q-20 0 -31.5 7t-5.5 28q4 14 21.5 37.5t48.5 46t75 38t103 15.5q57 0 103.5 -14.5t78 -41t44 -67.5t2.5 -92l-64 -295q-4 -20 -18.5 -32.5t-34.5 -12.5h-82 q-43 0 -37 45l4 14q-23 -29 -77 -49t-109 -20q-45 0 -78 14t-52.5 37.5t-26.5 52.5t-1 59zM360 1051q-4 -18 5.5 -29.5t40.5 -11.5q59 0 97 40t48 80l-94 -14q-35 -6 -62.5 -20.5t-34.5 -44.5z"/>
			<glyph unicode="&#xab;" horiz-adv-x="1271"
				   d="M86 608l29 135q4 18 15 33t26 25l487 391q23 18 47.5 6t18.5 -41l-50 -221q-8 -35 -19 -53.5t-36 -38.5l-254 -205l168 -205q16 -20 20.5 -38.5t-3.5 -53.5l-31 -147q-6 -29 -35 -41.5t-49 10.5l-318 387q-23 25 -16 57zM641 608l29 135q4 18 15 33t26 25l487 391 q23 18 47.5 6t18.5 -41l-50 -221q-8 -35 -19 -53.5t-36 -38.5l-254 -205l168 -205q16 -20 20.5 -38.5t-3.5 -53.5l-31 -147q-6 -29 -35 -41.5t-49 10.5l-318 387q-23 25 -16 57z"/>
			<glyph unicode="&#xac;" horiz-adv-x="1175"
				   d="M100 526l29 136q4 23 24.5 39t43.5 16h809q23 0 35 -16.5t8 -38.5l-82 -390q-4 -23 -24.5 -39t-43.5 -16h-156q-23 0 -35 16.5t-8 38.5l41 199h-598q-23 0 -35 16.5t-8 38.5z"/>
			<glyph unicode="&#xad;" horiz-adv-x="991"
				   d="M115 547l28 135q4 23 24.5 39t43.5 16h625q23 0 35 -16t8 -39l-29 -135q-4 -23 -23.5 -39t-42.5 -16h-624q-23 0 -36 16t-9 39z"/>
			<glyph unicode="&#xae;" horiz-adv-x="1665"
				   d="M122 446q-32 137 1 291t111.5 285t193.5 227.5t259 150.5t304 54q154 0 278 -61.5t205.5 -165t114.5 -240.5t0 -291t-112.5 -284.5t-194.5 -227t-259 -150.5t-304 -54q-154 0 -278 61t-205.5 164.5t-113.5 240.5zM288.5 493.5q20.5 -104.5 80 -182.5t152.5 -123t212 -45 t231.5 45t205 123t159 182.5t90.5 223.5q25 119 4.5 223t-81 182t-153.5 123t-212 45t-231.5 -45t-204.5 -123t-157.5 -182t-90.5 -223t-4.5 -223.5zM477 389l139 660q10 45 56 45h264q82 0 138 -19.5t89 -53.5t43.5 -79t-0.5 -96q-14 -66 -54 -125t-110 -96l70 -207 q4 -14 2 -29q-4 -16 -18.5 -30.5t-36.5 -14.5h-113q-39 0 -51 39l-57 195h-109l-39 -189q-10 -45 -55 -45h-123q-45 0 -35 45zM772 772h121q49 0 71.5 19.5t28.5 54.5q8 35 -6 54.5t-63 19.5h-121z"/>
			<glyph unicode="&#xaf;" horiz-adv-x="735"
				   d="M63 1274l29 135q4 23 23.5 39t42.5 16h530q23 0 36 -16t9 -39l-28 -135q-4 -23 -25 -39t-43 -16h-531q-23 0 -35 16t-8 39z"/>
			<glyph unicode="&#xb0;" horiz-adv-x="831"
				   d="M184 1124q14 70 51 130.5t90.5 105.5t122 69.5t146.5 24.5q63 0 118.5 -24.5t94.5 -69.5t55.5 -105.5t1.5 -130.5q-14 -72 -51 -131t-90 -104t-122 -69.5t-146 -24.5q-63 0 -118.5 24.5t-94.5 69.5t-55.5 104t-2.5 131zM369 1124q-14 -70 19.5 -112.5t103.5 -42.5 q27 0 57.5 11t57 31.5t47 49.5t26.5 63q16 70 -18.5 113t-104.5 43q-27 0 -56.5 -11.5t-56 -31.5t-47 -49t-28.5 -64z"/>
			<glyph unicode="&#xb1;" horiz-adv-x="1140"
				   d="M25 55l28 135q4 23 24.5 39.5t43.5 16.5h751q23 0 35.5 -16.5t7.5 -39.5l-28 -135q-4 -23 -23.5 -39t-42.5 -16h-751q-23 0 -36.5 16.5t-8.5 38.5zM133 754l29 135q4 23 23.5 39t41.5 16h285l61 289q4 23 24.5 39t43.5 16h156q23 0 35 -16.5t8 -38.5l-62 -289h283 q23 0 36 -16.5t9 -38.5l-29 -135q-4 -23 -24.5 -39.5t-42.5 -16.5h-283l-61 -290q-4 -23 -24.5 -39.5t-43.5 -16.5h-156q-23 0 -35 16.5t-8 39.5l62 290h-285q-23 0 -35 16.5t-8 39.5z"/>
			<glyph unicode="&#xb2;" horiz-adv-x="716"
				   d="M90 762l10 61q4 16 15.5 37t46.5 43q102 68 173.5 110t117.5 72.5t68.5 53t29.5 51.5q8 29 -3.5 53.5t-54.5 24.5q-41 0 -61.5 -18.5t-32.5 -34.5q-16 -23 -28.5 -26t-28.5 -3h-107q-39 0 -28 39q10 39 34.5 79t63.5 70.5t90 50t115 19.5q66 0 116 -20.5t80.5 -54.5 t42 -79t0.5 -96q-10 -49 -24.5 -84t-45 -66.5t-81.5 -66.5t-135 -84h208q45 0 35 -45l-18 -86q-10 -45 -55 -45h-510q-43 0 -33 45z"/>
			<glyph unicode="&#xb3;" horiz-adv-x="718"
				   d="M104 897q4 20 18.5 30.5t24.5 10.5h119q14 0 20.5 -7t16.5 -18q16 -18 36.5 -24t63.5 -6q41 0 69.5 16t35.5 45q6 33 -11.5 45.5t-64.5 12.5h-94q-45 0 -35 45l8 47q4 23 33 47l162 117h-236q-45 0 -35 45l19 86q10 45 55 45h442q45 0 35 -45l-18 -84q-4 -23 -11.5 -35 t-35.5 -33l-134 -90q90 -23 122 -84t18 -133q-18 -92 -106.5 -157.5t-231.5 -65.5q-76 0 -131.5 20.5t-90 50t-51 62t-12.5 57.5z"/>
			<glyph unicode="&#xb4;" horiz-adv-x="610"
				   d="M62 1240.5q-1 21.5 18 37.5l219 209q29 27 45 33t39 6h195q29 0 31.5 -25.5t-17.5 -40.5l-295 -207q-20 -14 -40.5 -24t-53.5 -10h-113q-27 0 -28 21.5z"/>
			<glyph unicode="&#xb5;" horiz-adv-x="1265"
				   d="M-70 -354l289 1364q4 23 24.5 39t43.5 16h155q23 0 35 -16.5t8 -38.5l-110 -521q-25 -123 21 -196.5t155 -73.5t187.5 74t103.5 196l110 521q4 23 24.5 39t43.5 16h156q23 0 35 -16.5t8 -38.5l-203 -955q-4 -23 -23.5 -39t-42.5 -16h-155q-23 0 -36.5 16.5t-8.5 38.5 l10 47q-53 -59 -105.5 -90.5t-134.5 -31.5t-140 31.5t-87 90.5l-96 -456q-4 -23 -24.5 -39.5t-43.5 -16.5h-156q-23 0 -35 16.5t-8 39.5z"/>
			<glyph unicode="&#xb6;" horiz-adv-x="1150"
				   d="M153 901q-15 70 1 150t60 149.5t107.5 121.5t139.5 82t155 30h508q23 0 36.5 -16.5t8.5 -39.5l-325 -1528q-4 -23 -24.5 -39t-43.5 -16h-90q-23 0 -35 16.5t-8 38.5l293 1383h-162l-293 -1383q-4 -23 -24.5 -39t-42.5 -16h-90q-23 0 -35.5 16.5t-7.5 38.5l174 818 q-80 0 -142.5 29.5t-103.5 81.5t-56 122z"/>
			<glyph unicode="&#xb7;" horiz-adv-x="675"
				   d="M92 519q-10 44 0 95t40 95.5t70 78t89 53t100 19.5t91 -19.5t66.5 -53t36 -77.5t-0.5 -96q-10 -51 -39 -95t-70 -77.5t-89 -53t-99 -19.5t-92 19.5t-67 53t-36 77.5z"/>
			<glyph unicode="&#xb8;" horiz-adv-x="520"
				   d="M65.5 -380.5q-8.5 18.5 12.5 34.5l33 27q20 14 30.5 14t21.5 -7t27.5 -15.5t47.5 -8.5q78 0 90 66q12 61 -64 61q-16 0 -32.5 -6t-31 -10t-26.5 -4t-22 12l-25 37q-10 16 -10 27.5t20 39.5l113 168h125l-115 -170q14 8 33.5 14.5t42.5 6.5q68 0 100.5 -54.5t16.5 -127.5 q-16 -74 -67.5 -124.5t-152.5 -50.5q-37 0 -73.5 10.5t-61 26t-33 34z"/>
			<glyph unicode="&#xb9;" horiz-adv-x="536"
				   d="M150 1211.5q7 17.5 26 29.5l276 178q23 14 52 15h77q45 0 35 -45l-133 -627q-10 -45 -55 -45h-107q-45 0 -35 45l82 385l-102 -66q-16 -10 -33.5 -8t-27.5 19l-52 86q-10 16 -3 33.5z"/>
			<glyph unicode="&#xba;" horiz-adv-x="714"
				   d="M193 1106q2 16 11 55t13 56q29 111 104.5 169t188.5 58q49 0 95 -14.5t81 -44t53.5 -71.5t10.5 -97q-2 -16 -11.5 -55.5t-13.5 -55.5q-29 -111 -99.5 -169t-193.5 -58q-53 0 -100 14t-81 44t-50.5 72t-7.5 97zM381 1116q-8 -51 6 -72.5t55 -21.5t62.5 21.5t36.5 72.5 q4 16 11 45t9 45q6 47 -7 70.5t-54 23.5t-63.5 -23.5t-35.5 -70.5q-4 -16 -11 -44.5t-9 -45.5z"/>
			<glyph unicode="&#xbb;" horiz-adv-x="1271"
				   d="M37 193l49 221q8 35 19.5 53t35.5 39l254 205l-168 204q-16 20 -20 39t4 54l31 147q6 29 34.5 41t49.5 -10l317 -387q23 -25 16 -58l-28 -135q-4 -18 -15.5 -32.5t-25.5 -24.5l-488 -391q-23 -18 -47 -6t-18 41zM592 193l49 221q8 35 19.5 53t35.5 39l254 205l-168 204 q-16 20 -20 39t4 54l31 147q6 29 34.5 41t49.5 -10l317 -387q23 -25 16 -58l-28 -135q-4 -18 -15.5 -32.5t-25.5 -24.5l-488 -391q-23 -18 -47 -6t-18 41z"/>
			<glyph unicode="&#xbc;" horiz-adv-x="1617"
				   d="M57 20.5q-10 20.5 12 42.5l1295 1332q18 18 35.5 28.5t46.5 10.5h125q31 0 41 -20.5t-13 -43.5l-1294 -1331q-18 -18 -35.5 -28.5t-46.5 -10.5h-125q-31 0 -41 20.5zM187 1211.5q7 17.5 26 29.5l276 178q23 14 52 15h77q45 0 35 -45l-133 -627q-10 -45 -55 -45h-107 q-45 0 -35 45l82 385l-102 -66q-16 -10 -33.5 -8t-27.5 19l-52 86q-10 16 -3 33.5zM774 162l18 88q2 4 8.5 20.5t30.5 40.5l353 369q20 23 37.5 30t31.5 7h154q45 0 35 -45l-80 -379h71q45 0 35 -45l-18 -86q-10 -45 -55 -45h-72l-14 -72q-10 -45 -56 -45h-106q-45 0 -35 45 l14 72h-317q-41 0 -35 45zM1024 293h141l41 192z"/>
			<glyph unicode="&#xbd;" horiz-adv-x="1630"
				   d="M57 20.5q-10 20.5 12 42.5l1295 1332q18 18 35.5 28.5t46.5 10.5h125q31 0 41 -20.5t-13 -43.5l-1294 -1331q-18 -18 -35.5 -28.5t-46.5 -10.5h-125q-31 0 -41 20.5zM187 1211.5q7 17.5 26 29.5l276 178q23 14 52 15h77q45 0 35 -45l-133 -627q-10 -45 -55 -45h-107 q-45 0 -35 45l82 385l-102 -66q-16 -10 -33.5 -8t-27.5 19l-52 86q-10 16 -3 33.5zM834 45l10 61q4 16 15.5 37t46.5 43q102 68 173.5 110t117.5 72.5t68.5 53t29.5 51.5q8 29 -3.5 53.5t-54.5 24.5q-41 0 -61.5 -18.5t-32.5 -34.5q-16 -23 -28.5 -26t-28.5 -3h-107 q-39 0 -28 39q10 39 34.5 79t63.5 70.5t90 50t115 19.5q66 0 116 -20.5t80.5 -54.5t42 -79t0.5 -96q-10 -49 -24.5 -84t-45 -66.5t-81.5 -66.5t-135 -84h208q45 0 35 -45l-18 -86q-10 -45 -55 -45h-510q-43 0 -33 45z"/>
			<glyph unicode="&#xbe;" horiz-adv-x="1665"
				   d="M110 20.5q-10 20.5 12 42.5l1295 1332q18 18 35.5 28.5t46.5 10.5h125q31 0 41 -20.5t-13 -43.5l-1294 -1331q-18 -18 -35.5 -28.5t-46.5 -10.5h-125q-31 0 -41 20.5zM127 897q4 20 18.5 30.5t24.5 10.5h119q14 0 20.5 -7t16.5 -18q16 -18 36.5 -24t63.5 -6q41 0 69.5 16 t35.5 45q6 33 -11.5 45.5t-64.5 12.5h-94q-45 0 -35 45l8 47q4 23 33 47l162 117h-236q-45 0 -35 45l19 86q10 45 55 45h442q45 0 35 -45l-18 -84q-4 -23 -11.5 -35t-35.5 -33l-134 -90q90 -23 122 -84t18 -133q-18 -92 -106.5 -157.5t-231.5 -65.5q-76 0 -131.5 20.5 t-90 50t-51 62t-12.5 57.5zM827 162l18 88q2 4 8.5 20.5t30.5 40.5l353 369q20 23 37.5 30t31.5 7h154q45 0 35 -45l-80 -379h71q45 0 35 -45l-18 -86q-10 -45 -55 -45h-72l-14 -72q-10 -45 -56 -45h-106q-45 0 -35 45l14 72h-317q-41 0 -35 45zM1077 293h141l41 192z"/>
			<glyph unicode="&#xbf;" horiz-adv-x="1146"
				   d="M-64 25q18 76 58.5 134t90.5 107t105.5 89t104.5 79t88 79t55 85q8 23 26.5 39t41.5 16h155q23 0 36 -16t7 -39q-20 -80 -62 -141.5t-93.5 -109.5t-106.5 -87t-104 -75t-84 -71.5t-47 -76.5q-20 -76 28.5 -127t171.5 -51q100 0 167 44t126 130q16 23 29.5 34t40.5 11h166 q18 0 28.5 -12.5t5.5 -32.5q-14 -72 -63 -146.5t-126 -135t-179 -99.5t-225 -39q-88 0 -176.5 29.5t-155 84t-99 130t-10.5 168.5zM477 831l39 181q4 23 23.5 39t41.5 16h177q23 0 36 -16.5t9 -38.5l-39 -181q-4 -23 -24.5 -39t-43.5 -16h-176q-23 0 -35 16.5t-8 38.5z"/>
			<glyph unicode="&#xc0;" horiz-adv-x="1441"
				   d="M-90 23.5q-12 23.5 2 46.5l776 1294q20 35 40 52.5t52 17.5h232q33 0 45 -17.5t18 -52.5l228 -1294q4 -29 -17.5 -49.5t-50.5 -20.5h-137q-41 0 -53.5 17.5t-16.5 33.5l-41 228h-647l-135 -228q-10 -16 -29.5 -33.5t-60.5 -17.5h-164q-29 0 -41 23.5zM494 535h450 l-100 583zM588 1815q10 28 43 28h204q23 0 37.5 -5t30.5 -34l129 -209q12 -20 0 -39.5t-35 -19.5h-123q-33 0 -48 10t-30 25l-200 198q-18 18 -8 46z"/>
			<glyph unicode="&#xc1;" horiz-adv-x="1441"
				   d="M-90 23.5q-12 23.5 2 46.5l776 1294q20 35 40 52.5t52 17.5h232q33 0 45 -17.5t18 -52.5l228 -1294q4 -29 -17.5 -49.5t-50.5 -20.5h-137q-41 0 -53.5 17.5t-16.5 33.5l-41 228h-647l-135 -228q-10 -16 -29.5 -33.5t-60.5 -17.5h-164q-29 0 -41 23.5zM494 535h450 l-100 583zM826 1557.5q-1 21.5 18 37.5l219 209q29 27 45 33t39 6h205q29 0 32 -25.5t-18 -39.5l-295 -207q-20 -14 -40.5 -24.5t-53.5 -10.5h-123q-27 0 -28 21.5z"/>
			<glyph unicode="&#xc2;" horiz-adv-x="1441"
				   d="M-90 23.5q-12 23.5 2 46.5l776 1294q20 35 40 52.5t52 17.5h232q33 0 45 -17.5t18 -52.5l228 -1294q4 -29 -17.5 -49.5t-50.5 -20.5h-137q-41 0 -53.5 17.5t-16.5 33.5l-41 228h-647l-135 -228q-10 -16 -29.5 -33.5t-60.5 -17.5h-164q-29 0 -41 23.5zM494 535h450 l-100 583zM549 1558.5q-3 22.5 20 40.5l229 205q25 23 43.5 31t40.5 8h142q23 0 37 -8t30 -31l144 -209q14 -20 1.5 -39.5t-36.5 -19.5h-72q-20 0 -31.5 5t-27.5 18l-144 96l-178 -96q-20 -10 -33.5 -16.5t-33.5 -6.5h-99q-29 0 -32 22.5z"/>
			<glyph unicode="&#xc3;" horiz-adv-x="1441"
				   d="M-90 23.5q-12 23.5 2 46.5l776 1294q20 35 40 52.5t52 17.5h232q33 0 45 -17.5t18 -52.5l228 -1294q4 -29 -17.5 -49.5t-50.5 -20.5h-137q-41 0 -53.5 17.5t-16.5 33.5l-41 228h-647l-135 -228q-10 -16 -29.5 -33.5t-60.5 -17.5h-164q-29 0 -41 23.5zM494 535h450 l-100 583zM585 1575q8 39 31 81t56.5 76.5t78.5 57t101 22.5q45 0 75.5 -11t56 -23.5t49.5 -23.5t52 -11q25 0 38 9t22.5 20.5t19.5 20.5t29 9h114q18 0 26.5 -11t4.5 -28q-8 -39 -30.5 -81t-56.5 -76.5t-79 -57t-100 -22.5q-45 0 -77 11t-57.5 23.5t-49 23.5t-52.5 11 q-25 0 -37 -9t-22 -20.5t-19.5 -20.5t-27.5 -9h-115q-18 0 -26.5 11.5t-4.5 27.5z"/>
			<glyph unicode="&#xc4;" horiz-adv-x="1441"
				   d="M-90 23.5q-12 23.5 2 46.5l776 1294q20 35 40 52.5t52 17.5h232q33 0 45 -17.5t18 -52.5l228 -1294q4 -29 -17.5 -49.5t-50.5 -20.5h-137q-41 0 -53.5 17.5t-16.5 33.5l-41 228h-647l-135 -228q-10 -16 -29.5 -33.5t-60.5 -17.5h-164q-29 0 -41 23.5zM494 535h450 l-100 583zM540 1591l37 181q4 23 24.5 39t43.5 16h170q23 0 35 -16.5t8 -38.5l-37 -181q-4 -23 -24.5 -39t-43.5 -16h-170q-23 0 -35 16.5t-8 38.5zM1026 1591l37 181q4 23 24.5 39t42.5 16h170q23 0 35 -16.5t8 -38.5l-37 -181q-4 -23 -24.5 -39t-42.5 -16h-170 q-23 0 -35 16.5t-8 38.5z"/>
			<glyph unicode="&#xc5;" horiz-adv-x="1441"
				   d="M-90 23.5q-12 23.5 2 46.5l776 1294q20 35 40 52.5t52 17.5h232q33 0 45 -17.5t18 -52.5l228 -1294q4 -29 -17.5 -49.5t-50.5 -20.5h-137q-41 0 -53.5 17.5t-16.5 33.5l-41 228h-647l-135 -228q-10 -16 -29.5 -33.5t-60.5 -17.5h-164q-29 0 -41 23.5zM494 535h450 l-100 583zM759 1619q-9 32 1 71q18 78 76.5 126t144.5 48q35 0 65.5 -13.5t52 -36t29.5 -54t0 -70.5q-18 -78 -76.5 -126t-144.5 -48q-35 0 -65.5 12t-52 35.5t-30.5 55.5zM882 1690q-6 -27 6.5 -44.5t39.5 -17.5t49 17.5t28 44.5t-6 44t-39 17t-49.5 -17t-28.5 -44z"/>
			<glyph unicode="&#xc6;" horiz-adv-x="2070"
				   d="M-115 55q2 10 15 25l1028 1286q16 23 40.5 45.5t65.5 22.5h1047q23 0 36 -16.5t9 -39.5l-33 -145q-4 -23 -23.5 -39t-41.5 -16h-662l-70 -326h617q23 0 35 -16.5t8 -38.5l-31 -146q-4 -23 -24.5 -39t-42.5 -16h-617l-72 -340h678q23 0 36 -16.5t7 -38.5l-30 -146 q-4 -23 -23.5 -39t-42.5 -16h-899q-23 0 -36 16.5t-9 38.5l47 224h-535l-180 -228q-12 -16 -33.5 -33.5t-56.5 -17.5h-162q-23 0 -36 16.5t-9 38.5zM569 535h383l138 645z"/>
			<glyph unicode="&#xc7;" horiz-adv-x="1396"
				   d="M94 545q12 78 31.5 172t42.5 172q33 123 91 227.5t144 179t201 116.5t264 42q152 0 258.5 -43t171 -110.5t89 -152.5t12.5 -167q-4 -25 -23.5 -40t-42.5 -15h-166q-20 0 -36.5 13t-14.5 40q2 41 -11 80t-46 69.5t-88.5 50t-134.5 19.5q-80 0 -144.5 -24.5t-114 -65.5 t-82 -98.5t-51.5 -120.5q-23 -78 -42 -172t-31 -172q-10 -66 -1 -122t40.5 -97t86 -65.5t134.5 -24.5t143.5 19t109.5 50t77 70t47 80q10 27 29.5 40t39.5 13h166q23 0 37 -15.5t6 -39.5q-23 -84 -71 -168t-129.5 -151.5t-202.5 -110.5t-287 -43h-4l-64 -95q14 8 34 14.5 t42 6.5q68 0 100.5 -54.5t16.5 -127.5q-16 -74 -67.5 -124.5t-151.5 -50.5q-37 0 -74 10.5t-61.5 26t-32.5 34t12 34.5l33 27q20 14 30.5 14t21.5 -7t27.5 -15.5t47.5 -8.5q78 0 90 66q12 61 -64 61q-16 0 -32.5 -6t-30.5 -10t-26.5 -4t-22.5 12l-25 37q-10 16 -10 27.5 t21 39.5l67 103q-104 18 -182 66t-127 120t-67.5 166t-2.5 203z"/>
			<glyph unicode="&#xc8;"
				   d="M43 55l283 1323q4 23 23.5 39.5t41.5 16.5h883q23 0 36 -16.5t9 -39.5l-33 -145q-4 -23 -23.5 -39t-41.5 -16h-662l-70 -326h617q23 0 35 -16.5t8 -38.5l-31 -146q-4 -23 -24.5 -39t-42.5 -16h-617l-72 -340h678q23 0 36.5 -16.5t6.5 -38.5l-30 -146q-4 -23 -23.5 -39 t-42.5 -16h-899q-23 0 -36 16.5t-9 38.5zM535 1815q10 28 43 28h204q23 0 37.5 -5t30.5 -34l129 -209q12 -20 0 -39.5t-35 -19.5h-123q-33 0 -48 10t-30 25l-200 198q-18 18 -8 46z"/>
			<glyph unicode="&#xc9;"
				   d="M43 55l283 1323q4 23 23.5 39.5t41.5 16.5h883q23 0 36 -16.5t9 -39.5l-33 -145q-4 -23 -23.5 -39t-41.5 -16h-662l-70 -326h617q23 0 35 -16.5t8 -38.5l-31 -146q-4 -23 -24.5 -39t-42.5 -16h-617l-72 -340h678q23 0 36.5 -16.5t6.5 -38.5l-30 -146q-4 -23 -23.5 -39 t-42.5 -16h-899q-23 0 -36 16.5t-9 38.5zM724 1557.5q-1 21.5 18 37.5l219 209q29 27 45 33t39 6h205q29 0 32 -25.5t-18 -39.5l-295 -207q-20 -14 -40.5 -24.5t-53.5 -10.5h-123q-27 0 -28 21.5z"/>
			<glyph unicode="&#xca;"
				   d="M43 55l283 1323q4 23 23.5 39.5t41.5 16.5h883q23 0 36 -16.5t9 -39.5l-33 -145q-4 -23 -23.5 -39t-41.5 -16h-662l-70 -326h617q23 0 35 -16.5t8 -38.5l-31 -146q-4 -23 -24.5 -39t-42.5 -16h-617l-72 -340h678q23 0 36.5 -16.5t6.5 -38.5l-30 -146q-4 -23 -23.5 -39 t-42.5 -16h-899q-23 0 -36 16.5t-9 38.5zM488 1558.5q-3 22.5 20 40.5l229 205q25 23 43.5 31t40.5 8h142q23 0 37 -8t30 -31l144 -209q14 -20 1.5 -39.5t-36.5 -19.5h-72q-20 0 -31.5 5t-27.5 18l-144 96l-178 -96q-20 -10 -33.5 -16.5t-33.5 -6.5h-99q-29 0 -32 22.5z"/>
			<glyph unicode="&#xcb;"
				   d="M43 55l283 1323q4 23 23.5 39.5t41.5 16.5h883q23 0 36 -16.5t9 -39.5l-33 -145q-4 -23 -23.5 -39t-41.5 -16h-662l-70 -326h617q23 0 35 -16.5t8 -38.5l-31 -146q-4 -23 -24.5 -39t-42.5 -16h-617l-72 -340h678q23 0 36.5 -16.5t6.5 -38.5l-30 -146q-4 -23 -23.5 -39 t-42.5 -16h-899q-23 0 -36 16.5t-9 38.5zM483 1591l37 181q4 23 24.5 39t43.5 16h170q23 0 35 -16.5t8 -38.5l-37 -181q-4 -23 -24.5 -39t-43.5 -16h-170q-23 0 -35 16.5t-8 38.5zM969 1591l37 181q4 23 24.5 39t42.5 16h170q23 0 35 -16.5t8 -38.5l-37 -181 q-4 -23 -24.5 -39t-42.5 -16h-170q-23 0 -35 16.5t-8 38.5z"/>
			<glyph unicode="&#xcc;" horiz-adv-x="600"
				   d="M43 55l283 1323q4 23 23.5 39.5t41.5 16.5h166q23 0 36 -16.5t9 -39.5l-283 -1323q-4 -23 -23.5 -39t-41.5 -16h-166q-23 0 -36 16.5t-9 38.5zM177 1815q10 28 43 28h204q23 0 37.5 -5t30.5 -34l129 -209q12 -20 0 -39.5t-35 -19.5h-123q-33 0 -48 10t-30 25l-200 198 q-18 18 -8 46z"/>
			<glyph unicode="&#xcd;" horiz-adv-x="600"
				   d="M43 55l283 1323q4 23 23.5 39.5t41.5 16.5h166q23 0 36 -16.5t9 -39.5l-283 -1323q-4 -23 -23.5 -39t-41.5 -16h-166q-23 0 -36 16.5t-9 38.5zM392 1557.5q-1 21.5 18 37.5l219 209q29 27 45 33t39 6h205q29 0 32 -25.5t-18 -39.5l-295 -207q-20 -14 -40.5 -24.5 t-53.5 -10.5h-123q-27 0 -28 21.5z"/>
			<glyph unicode="&#xce;" horiz-adv-x="600"
				   d="M43 55l283 1323q4 23 23.5 39.5t41.5 16.5h166q23 0 36 -16.5t9 -39.5l-283 -1323q-4 -23 -23.5 -39t-41.5 -16h-166q-23 0 -36 16.5t-9 38.5zM146 1558.5q-3 22.5 20 40.5l229 205q25 23 43.5 31t40.5 8h142q23 0 37 -8t30 -31l144 -209q14 -20 1.5 -39.5t-36.5 -19.5 h-72q-20 0 -31.5 5t-27.5 18l-144 96l-178 -96q-20 -10 -33.5 -16.5t-33.5 -6.5h-99q-29 0 -32 22.5z"/>
			<glyph unicode="&#xcf;" horiz-adv-x="600"
				   d="M43 55l283 1323q4 23 23.5 39.5t41.5 16.5h166q23 0 36 -16.5t9 -39.5l-283 -1323q-4 -23 -23.5 -39t-41.5 -16h-166q-23 0 -36 16.5t-9 38.5zM124 1591l37 181q4 23 24.5 39t43.5 16h170q23 0 35 -16.5t8 -38.5l-37 -181q-4 -23 -24.5 -39t-43.5 -16h-170 q-23 0 -35 16.5t-8 38.5zM610 1591l37 181q4 23 24.5 39t42.5 16h170q23 0 35 -16.5t8 -38.5l-37 -181q-4 -23 -24.5 -39t-42.5 -16h-170q-23 0 -35 16.5t-8 38.5z"/>
			<glyph unicode="&#xd0;" horiz-adv-x="1484"
				   d="M51 662l29 129q4 23 23.5 39t41.5 16h109l115 532q4 23 23.5 39.5t41.5 16.5h506q152 0 255 -40t162.5 -114t78 -178.5t-1.5 -233.5q-12 -78 -27.5 -151.5t-38.5 -151.5q-35 -129 -97.5 -233.5t-151.5 -178t-206.5 -113.5t-265.5 -40h-516q-23 0 -36 16.5t-9 38.5 l117 551h-109q-23 0 -35 16.5t-8 39.5zM406 256h284q84 0 150.5 23.5t117 64.5t83 98.5t51.5 122.5q23 78 38 151.5t27 151.5q10 66 1 122.5t-43 98t-92 65.5t-146 24h-275l-72 -332h220q23 0 36 -16.5t9 -38.5l-29 -129q-4 -23 -24.5 -39.5t-43.5 -16.5h-219z"/>
			<glyph unicode="&#xd1;" horiz-adv-x="1452"
				   d="M43 55l283 1323q4 23 23.5 39.5t41.5 16.5h119q35 0 50 -18.5t20 -29.5l415 -878l183 870q4 23 23.5 39.5t41.5 16.5h166q23 0 36 -16.5t9 -39.5l-280 -1323q-4 -23 -24 -39t-42 -16h-121q-35 0 -50 19.5t-22 29.5l-409 875l-187 -869q-4 -23 -23.5 -39t-41.5 -16h-166 q-23 0 -36 16.5t-9 38.5zM565 1575q8 39 31 81t56.5 76.5t78.5 57t101 22.5q45 0 75.5 -11t56 -23.5t49.5 -23.5t52 -11q25 0 38 9t22.5 20.5t19.5 20.5t29 9h114q18 0 26.5 -11t4.5 -28q-8 -39 -30.5 -81t-56.5 -76.5t-79 -57t-100 -22.5q-45 0 -77 11t-57.5 23.5t-49 23.5 t-52.5 11q-25 0 -37 -9t-22 -20.5t-19.5 -20.5t-27.5 -9h-115q-18 0 -26.5 11.5t-4.5 27.5z"/>
			<glyph unicode="&#xd2;" horiz-adv-x="1423"
				   d="M94 532q6 39 15.5 86.5l19.5 97.5t21.5 97t21.5 86q31 115 84 216.5t137 176t202 118.5t275 44q135 0 237.5 -43t169 -118.5t92.5 -176t7 -217.5q-6 -39 -15 -86t-20.5 -97t-22.5 -97.5t-20 -86.5q-31 -115 -81 -216t-133 -175.5t-201.5 -117.5t-284.5 -43 q-135 0 -237.5 43t-168 117.5t-91 176t-7.5 215.5zM373 543q-25 -147 45.5 -227t214.5 -80q143 0 246.5 79.5t144.5 227.5q20 78 41 173t33 173q23 147 -47 228t-213 81t-248 -81t-144 -228q-23 -78 -43 -173t-30 -173zM531 1815q10 28 43 28h204q23 0 37.5 -5t30.5 -34 l129 -209q12 -20 0 -39.5t-35 -19.5h-123q-33 0 -48 10t-30 25l-200 198q-18 18 -8 46z"/>
			<glyph unicode="&#xd3;" horiz-adv-x="1423"
				   d="M94 532q6 39 15.5 86.5l19.5 97.5t21.5 97t21.5 86q31 115 84 216.5t137 176t202 118.5t275 44q135 0 237.5 -43t169 -118.5t92.5 -176t7 -217.5q-6 -39 -15 -86t-20.5 -97t-22.5 -97.5t-20 -86.5q-31 -115 -81 -216t-133 -175.5t-201.5 -117.5t-284.5 -43 q-135 0 -237.5 43t-168 117.5t-91 176t-7.5 215.5zM373 543q-25 -147 45.5 -227t214.5 -80q143 0 246.5 79.5t144.5 227.5q20 78 41 173t33 173q23 147 -47 228t-213 81t-248 -81t-144 -228q-23 -78 -43 -173t-30 -173zM771 1557.5q-1 21.5 18 37.5l219 209q29 27 45 33 t39 6h205q29 0 32 -25.5t-18 -39.5l-295 -207q-20 -14 -40.5 -24.5t-53.5 -10.5h-123q-27 0 -28 21.5z"/>
			<glyph unicode="&#xd4;" horiz-adv-x="1423"
				   d="M94 532q6 39 15.5 86.5l19.5 97.5t21.5 97t21.5 86q31 115 84 216.5t137 176t202 118.5t275 44q135 0 237.5 -43t169 -118.5t92.5 -176t7 -217.5q-6 -39 -15 -86t-20.5 -97t-22.5 -97.5t-20 -86.5q-31 -115 -81 -216t-133 -175.5t-201.5 -117.5t-284.5 -43 q-135 0 -237.5 43t-168 117.5t-91 176t-7.5 215.5zM373 543q-25 -147 45.5 -227t214.5 -80q143 0 246.5 79.5t144.5 227.5q20 78 41 173t33 173q23 147 -47 228t-213 81t-248 -81t-144 -228q-23 -78 -43 -173t-30 -173zM535 1558.5q-3 22.5 20 40.5l229 205q25 23 43.5 31 t40.5 8h142q23 0 37 -8t30 -31l144 -209q14 -20 1.5 -39.5t-36.5 -19.5h-72q-20 0 -31.5 5t-27.5 18l-144 96l-178 -96q-20 -10 -33.5 -16.5t-33.5 -6.5h-99q-29 0 -32 22.5z"/>
			<glyph unicode="&#xd5;" horiz-adv-x="1423"
				   d="M94 532q6 39 15.5 86.5l19.5 97.5t21.5 97t21.5 86q31 115 84 216.5t137 176t202 118.5t275 44q135 0 237.5 -43t169 -118.5t92.5 -176t7 -217.5q-6 -39 -15 -86t-20.5 -97t-22.5 -97.5t-20 -86.5q-31 -115 -81 -216t-133 -175.5t-201.5 -117.5t-284.5 -43 q-135 0 -237.5 43t-168 117.5t-91 176t-7.5 215.5zM373 543q-25 -147 45.5 -227t214.5 -80q143 0 246.5 79.5t144.5 227.5q20 78 41 173t33 173q23 147 -47 228t-213 81t-248 -81t-144 -228q-23 -78 -43 -173t-30 -173zM561 1575q8 39 31 81t56.5 76.5t78.5 57t101 22.5 q45 0 75.5 -11t56 -23.5t49.5 -23.5t52 -11q25 0 38 9t22.5 20.5t19.5 20.5t29 9h114q18 0 26.5 -11t4.5 -28q-8 -39 -30.5 -81t-56.5 -76.5t-79 -57t-100 -22.5q-45 0 -77 11t-57.5 23.5t-49 23.5t-52.5 11q-25 0 -37 -9t-22 -20.5t-19.5 -20.5t-27.5 -9h-115 q-18 0 -26.5 11.5t-4.5 27.5z"/>
			<glyph unicode="&#xd6;" horiz-adv-x="1423"
				   d="M94 532q6 39 15.5 86.5l19.5 97.5t21.5 97t21.5 86q31 115 84 216.5t137 176t202 118.5t275 44q135 0 237.5 -43t169 -118.5t92.5 -176t7 -217.5q-6 -39 -15 -86t-20.5 -97t-22.5 -97.5t-20 -86.5q-31 -115 -81 -216t-133 -175.5t-201.5 -117.5t-284.5 -43 q-135 0 -237.5 43t-168 117.5t-91 176t-7.5 215.5zM373 543q-25 -147 45.5 -227t214.5 -80q143 0 246.5 79.5t144.5 227.5q20 78 41 173t33 173q23 147 -47 228t-213 81t-248 -81t-144 -228q-23 -78 -43 -173t-30 -173zM507 1591l37 181q4 23 24.5 39t43.5 16h170 q23 0 35 -16.5t8 -38.5l-37 -181q-4 -23 -24.5 -39t-43.5 -16h-170q-23 0 -35 16.5t-8 38.5zM993 1591l37 181q4 23 24.5 39t42.5 16h170q23 0 35 -16.5t8 -38.5l-37 -181q-4 -23 -24.5 -39t-42.5 -16h-170q-23 0 -35 16.5t-8 38.5z"/>
			<glyph unicode="&#xd7;" horiz-adv-x="1173"
				   d="M40 356q5 23 23 39l363 299l-223 285q-12 16 -7 38.5t23 39.5l105 86q23 16 44 16t33 -16l224 -285l362 299q20 16 43 16.5t35 -16.5l88 -113q14 -16 9 -38.5t-25 -38.5l-363 -299l227 -285q12 -16 8.5 -38.5t-26.5 -39.5l-104 -88q-20 -16 -43 -16t-35 16l-226 287 l-360 -297q-20 -16 -41.5 -16.5t-36.5 16.5l-90 110q-12 16 -7 39z"/>
			<glyph unicode="&#xd8;" horiz-adv-x="1492"
				   d="M-12 397l20 99q10 51 60 67l69 25q14 76 33 160.5t37 150.5q31 115 84 216.5t137 176t202 118.5t275 44q113 0 203 -30.5t154.5 -84t103.5 -128t49 -162.5l82 30q14 6 23 6q18 0 28.5 -12t5.5 -31l-22 -98q-8 -51 -59 -67l-70 -25q-14 -76 -33.5 -165t-36.5 -155 q-31 -115 -81 -216t-133 -175.5t-201.5 -117.5t-284.5 -43q-115 0 -205 30.5t-155.5 85t-103.5 129t-46 162.5l-78 -27q-18 -6 -25 -6q-18 0 -27 12.5t-5 30.5zM401 489q-6 -123 66 -188t201 -65q143 0 246.5 80t144.5 227q10 45 23.5 96t23.5 104zM434 696l703 252 q4 121 -66 185.5t-199 64.5q-143 0 -247.5 -81t-143.5 -228q-25 -86 -47 -193z"/>
			<glyph unicode="&#xd9;" horiz-adv-x="1472"
				   d="M130 309.5q-24 102.5 3 229.5l180 839q4 23 23.5 39.5t42.5 16.5h166q23 0 36 -16.5t9 -39.5l-178 -829q-18 -84 -8 -143.5t43.5 -97.5t87 -55t120.5 -17q68 0 129.5 17t110.5 55t85 97.5t54 143.5l178 829q4 23 23.5 39.5t42.5 16.5h164q23 0 36 -16.5t9 -39.5 l-180 -839q-27 -127 -77 -229.5t-131 -176.5t-199 -113.5t-279 -39.5q-133 0 -235.5 39.5t-167 113.5t-88.5 176.5zM601 1815q10 28 43 28h204q23 0 37.5 -5t30.5 -34l129 -209q12 -20 0 -39.5t-35 -19.5h-123q-33 0 -48 10t-30 25l-200 198q-18 18 -8 46z"/>
			<glyph unicode="&#xda;" horiz-adv-x="1472"
				   d="M130 309.5q-24 102.5 3 229.5l180 839q4 23 23.5 39.5t42.5 16.5h166q23 0 36 -16.5t9 -39.5l-178 -829q-18 -84 -8 -143.5t43.5 -97.5t87 -55t120.5 -17q68 0 129.5 17t110.5 55t85 97.5t54 143.5l178 829q4 23 23.5 39.5t42.5 16.5h164q23 0 36 -16.5t9 -39.5 l-180 -839q-27 -127 -77 -229.5t-131 -176.5t-199 -113.5t-279 -39.5q-133 0 -235.5 39.5t-167 113.5t-88.5 176.5zM787 1557.5q-1 21.5 18 37.5l219 209q29 27 45 33t39 6h205q29 0 32 -25.5t-18 -39.5l-295 -207q-20 -14 -40.5 -24.5t-53.5 -10.5h-123q-27 0 -28 21.5z "/>
			<glyph unicode="&#xdb;" horiz-adv-x="1472"
				   d="M130 309.5q-24 102.5 3 229.5l180 839q4 23 23.5 39.5t42.5 16.5h166q23 0 36 -16.5t9 -39.5l-178 -829q-18 -84 -8 -143.5t43.5 -97.5t87 -55t120.5 -17q68 0 129.5 17t110.5 55t85 97.5t54 143.5l178 829q4 23 23.5 39.5t42.5 16.5h164q23 0 36 -16.5t9 -39.5 l-180 -839q-27 -127 -77 -229.5t-131 -176.5t-199 -113.5t-279 -39.5q-133 0 -235.5 39.5t-167 113.5t-88.5 176.5zM556 1558.5q-3 22.5 20 40.5l229 205q25 23 43.5 31t40.5 8h142q23 0 37 -8t30 -31l144 -209q14 -20 1.5 -39.5t-36.5 -19.5h-72q-20 0 -31.5 5t-27.5 18 l-144 96l-178 -96q-20 -10 -33.5 -16.5t-33.5 -6.5h-99q-29 0 -32 22.5z"/>
			<glyph unicode="&#xdc;" horiz-adv-x="1472"
				   d="M130 309.5q-24 102.5 3 229.5l180 839q4 23 23.5 39.5t42.5 16.5h166q23 0 36 -16.5t9 -39.5l-178 -829q-18 -84 -8 -143.5t43.5 -97.5t87 -55t120.5 -17q68 0 129.5 17t110.5 55t85 97.5t54 143.5l178 829q4 23 23.5 39.5t42.5 16.5h164q23 0 36 -16.5t9 -39.5 l-180 -839q-27 -127 -77 -229.5t-131 -176.5t-199 -113.5t-279 -39.5q-133 0 -235.5 39.5t-167 113.5t-88.5 176.5zM530 1591l37 181q4 23 24.5 39t43.5 16h170q23 0 35 -16.5t8 -38.5l-37 -181q-4 -23 -24.5 -39t-43.5 -16h-170q-23 0 -35 16.5t-8 38.5zM1016 1591l37 181 q4 23 24.5 39t42.5 16h170q23 0 35 -16.5t8 -38.5l-37 -181q-4 -23 -24.5 -39t-42.5 -16h-170q-23 0 -35 16.5t-8 38.5z"/>
			<glyph unicode="&#xdd;" horiz-adv-x="1349"
				   d="M215 1354q-10 33 12.5 56.5t51.5 23.5h139q41 0 56 -20.5t20 -31.5l202 -571l447 571q16 20 35.5 36t60.5 16h182q29 0 41.5 -26t-4.5 -48l-670 -854l-96 -451q-4 -23 -23.5 -39t-41.5 -16h-162q-23 0 -36 16.5t-9 38.5l96 451zM701 1557.5q-1 21.5 18 37.5l219 209 q29 27 45 33t39 6h205q29 0 32 -25.5t-18 -39.5l-295 -207q-20 -14 -40.5 -24.5t-53.5 -10.5h-123q-27 0 -28 21.5z"/>
			<glyph unicode="&#xde;" horiz-adv-x="1357"
				   d="M45 55l281 1323q4 23 23.5 39.5t41.5 16.5h166q23 0 36 -16.5t9 -39.5l-43 -198h307q115 0 208 -30t154.5 -88t85 -143t-0.5 -198q-25 -113 -69 -199t-116.5 -144.5t-175 -89t-239.5 -30.5h-348l-43 -203q-4 -23 -23.5 -39t-42.5 -16h-166q-23 0 -36 16.5t-9 38.5z M418 514h317q117 0 197 45t104 162q25 115 -35.5 159t-177.5 44h-317z"/>
			<glyph unicode="&#xdf;" horiz-adv-x="1269"
				   d="M25 55l184 869q27 125 71 224t114.5 166.5t170 103.5t238.5 36q123 0 213 -37t146.5 -98.5t77 -139t1.5 -159.5q-23 -109 -72 -166t-112 -98q18 -18 37.5 -52t33 -79t16.5 -98.5t-9 -110.5q-16 -74 -50 -147.5t-100.5 -134t-172 -97.5t-263.5 -37h-90q-23 0 -36 16.5 t-9 38.5l28 135q4 23 24.5 39.5t43.5 16.5h70q104 0 185 45t103 145q20 96 -37 144.5t-169 48.5h-80q-43 0 -37 45l35 155q4 20 18 32.5t35 12.5h67q109 0 182.5 36t92.5 130q18 82 -38 125t-165 43q-47 0 -92 -13t-84 -45t-70.5 -87t-50.5 -139l-184 -869q-4 -23 -23.5 -39 t-42.5 -16h-155q-23 0 -36.5 16.5t-8.5 38.5z"/>
			<glyph unicode="&#xe0;"
				   d="M61 471q6 31 14.5 72t16.5 71q25 94 70 180.5t112.5 151t155.5 102t199 37.5q63 0 114.5 -12t89 -30.5t62.5 -40t37 -39.5l10 47q4 23 23.5 39t42.5 16h155q23 0 36 -16.5t9 -38.5l-202 -955q-4 -23 -23.5 -39t-42.5 -16h-156q-23 0 -36 16.5t-9 38.5l11 47 q-20 -25 -45 -47t-62 -38.5t-87 -26.5t-122 -10q-96 0 -172 40.5t-125 109.5t-70.5 158t-5.5 183zM330 475q-8 -66 3 -113t37.5 -77.5t67.5 -45t90 -14.5q100 0 181.5 59.5t115.5 170.5q10 31 19.5 78t13.5 77q12 106 -43 168t-156 62q-100 0 -182 -58.5t-123 -191.5 q-10 -31 -15 -57.5t-9 -57.5zM393 1500q13 26 44 26h194q23 0 37 -5t31 -34l129 -209q12 -20 -0.5 -39.5t-34.5 -19.5h-113q-33 0 -48 10t-30 24l-202 201q-20 20 -7 46z"/>
			<glyph unicode="&#xe1;"
				   d="M61 471q6 31 14.5 72t16.5 71q25 94 70 180.5t112.5 151t155.5 102t199 37.5q63 0 114.5 -12t89 -30.5t62.5 -40t37 -39.5l10 47q4 23 23.5 39t42.5 16h155q23 0 36 -16.5t9 -38.5l-202 -955q-4 -23 -23.5 -39t-42.5 -16h-156q-23 0 -36 16.5t-9 38.5l11 47 q-20 -25 -45 -47t-62 -38.5t-87 -26.5t-122 -10q-96 0 -172 40.5t-125 109.5t-70.5 158t-5.5 183zM330 475q-8 -66 3 -113t37.5 -77.5t67.5 -45t90 -14.5q100 0 181.5 59.5t115.5 170.5q10 31 19.5 78t13.5 77q12 106 -43 168t-156 62q-100 0 -182 -58.5t-123 -191.5 q-10 -31 -15 -57.5t-9 -57.5zM648 1240.5q-1 21.5 18 37.5l219 209q29 27 45 33t39 6h195q29 0 31.5 -25.5t-17.5 -40.5l-295 -207q-20 -14 -40.5 -24t-53.5 -10h-113q-27 0 -28 21.5z"/>
			<glyph unicode="&#xe2;"
				   d="M61 471q6 31 14.5 72t16.5 71q25 94 70 180.5t112.5 151t155.5 102t199 37.5q63 0 114.5 -12t89 -30.5t62.5 -40t37 -39.5l10 47q4 23 23.5 39t42.5 16h155q23 0 36 -16.5t9 -38.5l-202 -955q-4 -23 -23.5 -39t-42.5 -16h-156q-23 0 -36 16.5t-9 38.5l11 47 q-20 -25 -45 -47t-62 -38.5t-87 -26.5t-122 -10q-96 0 -172 40.5t-125 109.5t-70.5 158t-5.5 183zM330 475q-8 -66 3 -113t37.5 -77.5t67.5 -45t90 -14.5q100 0 181.5 59.5t115.5 170.5q10 31 19.5 78t13.5 77q12 106 -43 168t-156 62q-100 0 -182 -58.5t-123 -191.5 q-10 -31 -15 -57.5t-9 -57.5zM395 1239.5q-4 20.5 17 38.5l233 209q25 23 43.5 31t40.5 8h123q23 0 37 -8.5t31 -30.5l143 -209q14 -20 1 -39.5t-36 -19.5h-74q-20 0 -31.5 5t-27.5 17l-127 96l-176 -96q-20 -12 -33.5 -17t-34.5 -5h-102q-23 0 -27 20.5z"/>
			<glyph unicode="&#xe3;"
				   d="M61 471q6 31 14.5 72t16.5 71q25 94 70 180.5t112.5 151t155.5 102t199 37.5q63 0 114.5 -12t89 -30.5t62.5 -40t37 -39.5l10 47q4 23 23.5 39t42.5 16h155q23 0 36 -16.5t9 -38.5l-202 -955q-4 -23 -23.5 -39t-42.5 -16h-156q-23 0 -36 16.5t-9 38.5l11 47 q-20 -25 -45 -47t-62 -38.5t-87 -26.5t-122 -10q-96 0 -172 40.5t-125 109.5t-70.5 158t-5.5 183zM330 475q-8 -66 3 -113t37.5 -77.5t67.5 -45t90 -14.5q100 0 181.5 59.5t115.5 170.5q10 31 19.5 78t13.5 77q12 106 -43 168t-156 62q-100 0 -182 -58.5t-123 -191.5 q-10 -31 -15 -57.5t-9 -57.5zM385 1257q8 39 31 81t56.5 77t78.5 57.5t101 22.5q45 0 72.5 -11t49 -23.5t42 -24t49.5 -11.5q25 0 38 9.5t22 20.5t19.5 20.5t28.5 9.5h115q18 0 26.5 -11.5t4.5 -27.5q-8 -39 -31 -81t-56.5 -77t-79 -57.5t-100.5 -22.5q-45 0 -73.5 11.5 t-50 23.5t-42 23.5t-49.5 11.5q-25 0 -37 -9t-22 -20.5t-19.5 -20.5t-27.5 -9h-115q-18 0 -26.5 11t-4.5 27z"/>
			<glyph unicode="&#xe4;"
				   d="M61 471q6 31 14.5 72t16.5 71q25 94 70 180.5t112.5 151t155.5 102t199 37.5q63 0 114.5 -12t89 -30.5t62.5 -40t37 -39.5l10 47q4 23 23.5 39t42.5 16h155q23 0 36 -16.5t9 -38.5l-202 -955q-4 -23 -23.5 -39t-42.5 -16h-156q-23 0 -36 16.5t-9 38.5l11 47 q-20 -25 -45 -47t-62 -38.5t-87 -26.5t-122 -10q-96 0 -172 40.5t-125 109.5t-70.5 158t-5.5 183zM330 475q-8 -66 3 -113t37.5 -77.5t67.5 -45t90 -14.5q100 0 181.5 59.5t115.5 170.5q10 31 19.5 78t13.5 77q12 106 -43 168t-156 62q-100 0 -182 -58.5t-123 -191.5 q-10 -31 -15 -57.5t-9 -57.5zM403 1274l37 180q4 23 24.5 39t43.5 16h170q23 0 35 -16t8 -39l-37 -180q-4 -23 -24.5 -39t-43.5 -16h-170q-23 0 -35 16t-8 39zM827 1274l37 180q4 23 24.5 39t43.5 16h170q23 0 35 -16t8 -39l-37 -180q-4 -23 -24.5 -39t-43.5 -16h-170 q-23 0 -35 16t-8 39z"/>
			<glyph unicode="&#xe5;"
				   d="M61 471q6 31 14.5 72t16.5 71q25 94 70 180.5t112.5 151t155.5 102t199 37.5q63 0 114.5 -12t89 -30.5t62.5 -40t37 -39.5l10 47q4 23 23.5 39t42.5 16h155q23 0 36 -16.5t9 -38.5l-202 -955q-4 -23 -23.5 -39t-42.5 -16h-156q-23 0 -36 16.5t-9 38.5l11 47 q-20 -25 -45 -47t-62 -38.5t-87 -26.5t-122 -10q-96 0 -172 40.5t-125 109.5t-70.5 158t-5.5 183zM330 475q-8 -66 3 -113t37.5 -77.5t67.5 -45t90 -14.5q100 0 181.5 59.5t115.5 170.5q10 31 19.5 78t13.5 77q12 106 -43 168t-156 62q-100 0 -182 -58.5t-123 -191.5 q-10 -31 -15 -57.5t-9 -57.5zM612 1311.5q-9 31.5 1 70.5q18 78 76.5 126t144.5 48q35 0 65.5 -13t52 -35.5t29.5 -54.5t0 -71q-18 -78 -76.5 -126t-144.5 -48q-35 0 -65.5 12.5t-52 36t-30.5 55zM735 1382q-6 -27 6.5 -44t39.5 -17t49 17.5t28 43.5q6 27 -6 44.5t-39 17.5 t-49.5 -17.5t-28.5 -44.5z"/>
			<glyph unicode="&#xe6;" horiz-adv-x="1851"
				   d="M6 309q29 141 145.5 216t290.5 104l346 57q16 84 -30.5 119t-128.5 35q-51 0 -83 -14.5t-65 -39.5q-23 -16 -39 -22t-34 -6h-191q-45 0 -35 45q8 43 40 92t88.5 92t142.5 70.5t206 27.5q102 0 187.5 -31.5t138.5 -90.5q72 57 161 89.5t206 32.5q106 0 193 -42 t143.5 -112.5t78 -165.5t-1.5 -200l-18 -92q-6 -23 -25.5 -39t-42.5 -16h-684q-10 -47 2.5 -83t40 -60.5t67.5 -37t85 -12.5q66 0 109.5 13.5t74.5 33.5q25 16 41.5 22.5t40.5 6.5h164q23 0 36 -16.5t7 -38.5q-8 -29 -42 -74t-96.5 -88t-153.5 -73.5t-214 -30.5 q-115 0 -199 47t-145 135q-37 -37 -78 -71t-95 -58.5t-125 -38.5t-167 -14t-166.5 25.5t-114.5 69.5t-60.5 104.5t-0.5 129.5zM272 309q-10 -43 30 -63.5t99 -20.5q70 0 128.5 19.5t102.5 52.5t70.5 74t36.5 84l4 20l-288 -49q-86 -14 -129 -42t-54 -75zM1044 651h463 q2 31 -2 65t-23.5 61.5t-57 45t-103.5 17.5q-55 0 -99 -15.5t-78 -40t-57.5 -55.5t-35.5 -61q-2 -4 -2 -11l-5 -4v-2z"/>
			<glyph unicode="&#xe7;" horiz-adv-x="1177"
				   d="M57 449q4 37 14.5 81.5t20.5 83.5q27 94 75 180.5t119.5 151t170 102t225.5 37.5q125 0 212 -38.5t141.5 -95t76 -118t14.5 -104.5q-4 -23 -24.5 -39t-42.5 -16h-150q-23 0 -34 18.5t-21 36.5q-10 25 -24.5 44.5t-37 34.5t-56.5 23.5t-85 8.5q-43 0 -86 -13.5t-83 -41 t-73 -73t-53 -108.5q-10 -31 -18 -71.5t-12 -71.5q-6 -63 7 -108.5t40.5 -73t65.5 -41t81 -13.5q100 0 151.5 32t92.5 79q16 18 36.5 36.5t43.5 18.5h157q23 0 37.5 -16.5t5.5 -38.5q-12 -43 -44.5 -104.5t-97 -118t-166 -95t-249.5 -38.5h-4l-63 -95q14 8 33.5 14.5 t42.5 6.5q68 0 100.5 -54.5t15.5 -127.5q-16 -74 -67 -124.5t-152 -50.5q-37 0 -73.5 10.5t-61.5 26t-33 34t13 34.5l32 27q20 14 30.5 14t22 -7t28 -15.5t46.5 -8.5q78 0 90 66q12 61 -63 61q-16 0 -32.5 -6t-31 -10t-26.5 -4t-23 12l-24 37q-10 16 -10.5 27.5t20.5 39.5 l72 107q-80 18 -142.5 62t-103.5 104.5t-58.5 134.5t-7.5 154z"/>
			<glyph unicode="&#xe8;" horiz-adv-x="1165"
				   d="M65.5 314.5q-22.5 103.5 4.5 226.5q25 115 71.5 214t119.5 172.5t173.5 115.5t231.5 42q106 0 193 -42t143.5 -112.5t78 -165.5t-1.5 -200l-18 -92q-6 -23 -25.5 -39t-42.5 -16h-684q-10 -47 2.5 -83t40 -60.5t67.5 -37t85 -12.5q66 0 109.5 13.5t74.5 33.5 q25 16 41 22.5t41 6.5h164q23 0 36 -16.5t7 -38.5q-8 -29 -42 -74t-96.5 -88t-153.5 -73.5t-214 -30.5q-100 0 -185 41.5t-141.5 115.5t-79 177.5zM358 651h463q2 31 -2 65t-23.5 61.5t-57 45t-103.5 17.5q-59 0 -105.5 -17.5t-81 -45t-57 -61.5t-33.5 -65zM378 1500 q13 26 44 26h194q23 0 37 -5t31 -34l129 -209q12 -20 -0.5 -39.5t-34.5 -19.5h-113q-33 0 -48 10t-30 24l-202 201q-20 20 -7 46z"/>
			<glyph unicode="&#xe9;" horiz-adv-x="1165"
				   d="M65.5 314.5q-22.5 103.5 4.5 226.5q25 115 71.5 214t119.5 172.5t173.5 115.5t231.5 42q106 0 193 -42t143.5 -112.5t78 -165.5t-1.5 -200l-18 -92q-6 -23 -25.5 -39t-42.5 -16h-684q-10 -47 2.5 -83t40 -60.5t67.5 -37t85 -12.5q66 0 109.5 13.5t74.5 33.5 q25 16 41 22.5t41 6.5h164q23 0 36 -16.5t7 -38.5q-8 -29 -42 -74t-96.5 -88t-153.5 -73.5t-214 -30.5q-100 0 -185 41.5t-141.5 115.5t-79 177.5zM358 651h463q2 31 -2 65t-23.5 61.5t-57 45t-103.5 17.5q-59 0 -105.5 -17.5t-81 -45t-57 -61.5t-33.5 -65zM605 1240.5 q-1 21.5 18 37.5l219 209q29 27 45 33t39 6h195q29 0 31.5 -25.5t-17.5 -40.5l-295 -207q-20 -14 -40.5 -24t-53.5 -10h-113q-27 0 -28 21.5z"/>
			<glyph unicode="&#xea;" horiz-adv-x="1165"
				   d="M65.5 314.5q-22.5 103.5 4.5 226.5q25 115 71.5 214t119.5 172.5t173.5 115.5t231.5 42q106 0 193 -42t143.5 -112.5t78 -165.5t-1.5 -200l-18 -92q-6 -23 -25.5 -39t-42.5 -16h-684q-10 -47 2.5 -83t40 -60.5t67.5 -37t85 -12.5q66 0 109.5 13.5t74.5 33.5 q25 16 41 22.5t41 6.5h164q23 0 36 -16.5t7 -38.5q-8 -29 -42 -74t-96.5 -88t-153.5 -73.5t-214 -30.5q-100 0 -185 41.5t-141.5 115.5t-79 177.5zM344 1239.5q-4 20.5 17 38.5l233 209q25 23 43.5 31t40.5 8h123q23 0 37 -8.5t31 -30.5l143 -209q14 -20 1 -39.5t-36 -19.5 h-74q-20 0 -31.5 5t-27.5 17l-127 96l-176 -96q-20 -12 -33.5 -17t-34.5 -5h-102q-23 0 -27 20.5zM358 651h463q2 31 -2 65t-23.5 61.5t-57 45t-103.5 17.5q-59 0 -105.5 -17.5t-81 -45t-57 -61.5t-33.5 -65z"/>
			<glyph unicode="&#xeb;" horiz-adv-x="1165"
				   d="M65.5 314.5q-22.5 103.5 4.5 226.5q25 115 71.5 214t119.5 172.5t173.5 115.5t231.5 42q106 0 193 -42t143.5 -112.5t78 -165.5t-1.5 -200l-18 -92q-6 -23 -25.5 -39t-42.5 -16h-684q-10 -47 2.5 -83t40 -60.5t67.5 -37t85 -12.5q66 0 109.5 13.5t74.5 33.5 q25 16 41 22.5t41 6.5h164q23 0 36 -16.5t7 -38.5q-8 -29 -42 -74t-96.5 -88t-153.5 -73.5t-214 -30.5q-100 0 -185 41.5t-141.5 115.5t-79 177.5zM354 1274l37 180q4 23 24.5 39t43.5 16h170q23 0 35 -16t8 -39l-37 -180q-4 -23 -24.5 -39t-43.5 -16h-170q-23 0 -35 16 t-8 39zM358 651h463q2 31 -2 65t-23.5 61.5t-57 45t-103.5 17.5q-59 0 -105.5 -17.5t-81 -45t-57 -61.5t-33.5 -65zM778 1274l37 180q4 23 24.5 39t43.5 16h170q23 0 35 -16t8 -39l-37 -180q-4 -23 -24.5 -39t-43.5 -16h-170q-23 0 -35 16t-8 39z"/>
			<glyph unicode="&#xec;" horiz-adv-x="548"
				   d="M25 55l202 955q4 23 24.5 39t43.5 16h156q23 0 35 -16.5t8 -38.5l-203 -955q-4 -23 -23.5 -39t-42.5 -16h-155q-23 0 -36.5 16.5t-8.5 38.5zM98 1500q13 26 44 26h194q23 0 37 -5t31 -34l129 -209q12 -20 -0.5 -39.5t-34.5 -19.5h-113q-33 0 -48 10t-30 24l-202 201 q-20 20 -7 46z"/>
			<glyph unicode="&#xed;" horiz-adv-x="548"
				   d="M25 55l202 955q4 23 24.5 39t43.5 16h156q23 0 35 -16.5t8 -38.5l-203 -955q-4 -23 -23.5 -39t-42.5 -16h-155q-23 0 -36.5 16.5t-8.5 38.5zM293 1240.5q-1 21.5 18 37.5l219 209q29 27 45 33t39 6h195q29 0 31.5 -25.5t-17.5 -40.5l-295 -207q-20 -14 -40.5 -24 t-53.5 -10h-113q-27 0 -28 21.5z"/>
			<glyph unicode="&#xee;" horiz-adv-x="548"
				   d="M25 55l202 955q4 23 24.5 39t43.5 16h156q23 0 35 -16.5t8 -38.5l-203 -955q-4 -23 -23.5 -39t-42.5 -16h-155q-23 0 -36.5 16.5t-8.5 38.5zM59 1239.5q-4 20.5 17 38.5l233 209q25 23 43.5 31t40.5 8h123q23 0 37 -8.5t31 -30.5l143 -209q14 -20 1 -39.5t-36 -19.5h-74 q-20 0 -31.5 5t-27.5 17l-127 96l-176 -96q-20 -12 -33.5 -17t-34.5 -5h-102q-23 0 -27 20.5z"/>
			<glyph unicode="&#xef;" horiz-adv-x="548"
				   d="M25 55l202 955q4 23 24.5 39t43.5 16h156q23 0 35 -16.5t8 -38.5l-203 -955q-4 -23 -23.5 -39t-42.5 -16h-155q-23 0 -36.5 16.5t-8.5 38.5zM65 1274l37 180q4 23 24.5 39t43.5 16h170q23 0 35 -16t8 -39l-37 -180q-4 -23 -24.5 -39t-43.5 -16h-170q-23 0 -35 16t-8 39z M489 1274l37 180q4 23 24.5 39t43.5 16h170q23 0 35 -16t8 -39l-37 -180q-4 -23 -24.5 -39t-43.5 -16h-170q-23 0 -35 16t-8 39z"/>
			<glyph unicode="&#xf0;" horiz-adv-x="1214"
				   d="M57 481q53 250 202 366t394 116q41 0 89.5 -4.5t82.5 -14.5q-18 68 -49 131l-205 -74q-16 -6 -22 -6q-18 0 -28.5 12.5t-6.5 30.5l21 99q10 51 59 67l74 27q-27 29 -54.5 58.5t-58.5 58.5q-16 16 -21.5 26t-3.5 19q10 41 50 41h217q25 0 40 -7.5t29 -19.5 q18 -20 36 -39.5t34 -40.5l205 74q14 6 24 6q18 0 27.5 -12.5t5.5 -30.5l-20 -98q-10 -51 -60 -68l-78 -29q33 -63 53.5 -133.5t27.5 -153.5t-1 -182.5t-33 -218.5q-55 -264 -206.5 -382.5t-395.5 -118.5q-92 0 -180 31.5t-151.5 94t-93 156.5t-3.5 219zM318 375 q6 -45 30.5 -78t66.5 -52.5t103 -19.5q123 0 200 71t99 175q12 51 6 96t-30.5 78t-66.5 52.5t-103 19.5t-111.5 -19.5t-88.5 -52.5t-63.5 -78t-37.5 -96q-10 -51 -4 -96z"/>
			<glyph unicode="&#xf1;" horiz-adv-x="1267"
				   d="M25 55l202 955q4 23 24.5 39t43.5 16h156q23 0 35 -16.5t8 -38.5l-11 -47q53 57 128 89.5t173 32.5q109 0 187 -38.5t122 -104t56 -153t-8 -183.5l-117 -551q-4 -23 -23.5 -39t-42.5 -16h-155q-23 0 -36 16.5t-9 38.5l110 520q27 123 -15 197t-161 74q-109 0 -186.5 -74 t-104.5 -197l-110 -520q-4 -23 -23.5 -39t-42.5 -16h-155q-23 0 -36.5 16.5t-8.5 38.5zM393 1257q8 39 31 81t56.5 77t78.5 57.5t101 22.5q45 0 72.5 -11t49 -23.5t42 -24t49.5 -11.5q25 0 38 9.5t22 20.5t19.5 20.5t28.5 9.5h115q18 0 26.5 -11.5t4.5 -27.5q-8 -39 -31 -81 t-56.5 -77t-79 -57.5t-100.5 -22.5q-45 0 -73.5 11.5t-50 23.5t-42 23.5t-49.5 11.5q-25 0 -37 -9t-22 -20.5t-19.5 -20.5t-27.5 -9h-115q-18 0 -26.5 11t-4.5 27z"/>
			<glyph unicode="&#xf2;" horiz-adv-x="1214"
				   d="M57 438q2 18 7.5 46t11.5 56.5t12 57.5t12 47q27 94 75 175t120 139.5t169 92t224 33.5q104 0 190.5 -36.5t145.5 -99t87 -146.5t13 -178q-2 -18 -7 -47t-11 -57.5t-12.5 -56.5t-12.5 -46q-29 -94 -72.5 -174t-113.5 -138.5t-168 -92t-233 -33.5q-104 0 -190.5 36.5 t-145 99t-86 145.5t-15.5 177zM324 440q-6 -63 8 -105t44 -66.5t68.5 -34t81.5 -9.5t86 9.5t83 34t73 66.5t51 105q4 14 10.5 40t12.5 52.5t10 51.5t6 41q8 63 -6 105t-44 66.5t-69 34t-82 9.5t-86 -9.5t-82.5 -34t-72.5 -66.5t-54 -105q-4 -16 -10 -41t-12 -51.5t-10 -52 t-6 -40.5zM399 1500q13 26 44 26h194q23 0 37 -5t31 -34l129 -209q12 -20 -0.5 -39.5t-34.5 -19.5h-113q-33 0 -48 10t-30 24l-202 201q-20 20 -7 46z"/>
			<glyph unicode="&#xf3;" horiz-adv-x="1214"
				   d="M57 438q2 18 7.5 46t11.5 56.5t12 57.5t12 47q27 94 75 175t120 139.5t169 92t224 33.5q104 0 190.5 -36.5t145.5 -99t87 -146.5t13 -178q-2 -18 -7 -47t-11 -57.5t-12.5 -56.5t-12.5 -46q-29 -94 -72.5 -174t-113.5 -138.5t-168 -92t-233 -33.5q-104 0 -190.5 36.5 t-145 99t-86 145.5t-15.5 177zM324 440q-6 -63 8 -105t44 -66.5t68.5 -34t81.5 -9.5t86 9.5t83 34t73 66.5t51 105q4 14 10.5 40t12.5 52.5t10 51.5t6 41q8 63 -6 105t-44 66.5t-69 34t-82 9.5t-86 -9.5t-82.5 -34t-72.5 -66.5t-54 -105q-4 -16 -10 -41t-12 -51.5t-10 -52 t-6 -40.5zM625 1240.5q-1 21.5 18 37.5l219 209q29 27 45 33t39 6h195q29 0 31.5 -25.5t-17.5 -40.5l-295 -207q-20 -14 -40.5 -24t-53.5 -10h-113q-27 0 -28 21.5z"/>
			<glyph unicode="&#xf4;" horiz-adv-x="1214"
				   d="M57 438q2 18 7.5 46t11.5 56.5t12 57.5t12 47q27 94 75 175t120 139.5t169 92t224 33.5q104 0 190.5 -36.5t145.5 -99t87 -146.5t13 -178q-2 -18 -7 -47t-11 -57.5t-12.5 -56.5t-12.5 -46q-29 -94 -72.5 -174t-113.5 -138.5t-168 -92t-233 -33.5q-104 0 -190.5 36.5 t-145 99t-86 145.5t-15.5 177zM324 440q-6 -63 8 -105t44 -66.5t68.5 -34t81.5 -9.5t86 9.5t83 34t73 66.5t51 105q4 14 10.5 40t12.5 52.5t10 51.5t6 41q8 63 -6 105t-44 66.5t-69 34t-82 9.5t-86 -9.5t-82.5 -34t-72.5 -66.5t-54 -105q-4 -16 -10 -41t-12 -51.5t-10 -52 t-6 -40.5zM366 1239.5q-4 20.5 17 38.5l233 209q25 23 43.5 31t40.5 8h123q23 0 37 -8.5t31 -30.5l143 -209q14 -20 1 -39.5t-36 -19.5h-74q-20 0 -31.5 5t-27.5 17l-127 96l-176 -96q-20 -12 -33.5 -17t-34.5 -5h-102q-23 0 -27 20.5z"/>
			<glyph unicode="&#xf5;" horiz-adv-x="1214"
				   d="M57 438q2 18 7.5 46t11.5 56.5t12 57.5t12 47q27 94 75 175t120 139.5t169 92t224 33.5q104 0 190.5 -36.5t145.5 -99t87 -146.5t13 -178q-2 -18 -7 -47t-11 -57.5t-12.5 -56.5t-12.5 -46q-29 -94 -72.5 -174t-113.5 -138.5t-168 -92t-233 -33.5q-104 0 -190.5 36.5 t-145 99t-86 145.5t-15.5 177zM324 440q-6 -63 8 -105t44 -66.5t68.5 -34t81.5 -9.5t86 9.5t83 34t73 66.5t51 105q4 14 10.5 40t12.5 52.5t10 51.5t6 41q8 63 -6 105t-44 66.5t-69 34t-82 9.5t-86 -9.5t-82.5 -34t-72.5 -66.5t-54 -105q-4 -16 -10 -41t-12 -51.5t-10 -52 t-6 -40.5zM397 1257q8 39 31 81t56.5 77t78.5 57.5t101 22.5q45 0 72.5 -11t49 -23.5t42 -24t49.5 -11.5q25 0 38 9.5t22 20.5t19.5 20.5t28.5 9.5h115q18 0 26.5 -11.5t4.5 -27.5q-8 -39 -31 -81t-56.5 -77t-79 -57.5t-100.5 -22.5q-45 0 -73.5 11.5t-50 23.5t-42 23.5 t-49.5 11.5q-25 0 -37 -9t-22 -20.5t-19.5 -20.5t-27.5 -9h-115q-18 0 -26.5 11t-4.5 27z"/>
			<glyph unicode="&#xf6;" horiz-adv-x="1214"
				   d="M57 438q2 18 7.5 46t11.5 56.5t12 57.5t12 47q27 94 75 175t120 139.5t169 92t224 33.5q104 0 190.5 -36.5t145.5 -99t87 -146.5t13 -178q-2 -18 -7 -47t-11 -57.5t-12.5 -56.5t-12.5 -46q-29 -94 -72.5 -174t-113.5 -138.5t-168 -92t-233 -33.5q-104 0 -190.5 36.5 t-145 99t-86 145.5t-15.5 177zM324 440q-6 -63 8 -105t44 -66.5t68.5 -34t81.5 -9.5t86 9.5t83 34t73 66.5t51 105q4 14 10.5 40t12.5 52.5t10 51.5t6 41q8 63 -6 105t-44 66.5t-69 34t-82 9.5t-86 -9.5t-82.5 -34t-72.5 -66.5t-54 -105q-4 -16 -10 -41t-12 -51.5t-10 -52 t-6 -40.5zM376 1274l37 180q4 23 24.5 39t43.5 16h170q23 0 35 -16t8 -39l-37 -180q-4 -23 -24.5 -39t-43.5 -16h-170q-23 0 -35 16t-8 39zM800 1274l37 180q4 23 24.5 39t43.5 16h170q23 0 35 -16t8 -39l-37 -180q-4 -23 -24.5 -39t-43.5 -16h-170q-23 0 -35 16t-8 39z"/>
			<glyph unicode="&#xf7;" horiz-adv-x="1067"
				   d="M72 549l28 135q4 23 24.5 39t43.5 16h788q23 0 35.5 -16t7.5 -39l-28 -135q-4 -23 -23.5 -39t-42.5 -16h-788q-23 0 -36 16t-9 39zM289 156l41 200q4 23 24.5 39.5t42.5 16.5h191q23 0 35 -16.5t8 -39.5l-41 -200q-6 -23 -25.5 -39.5t-42.5 -16.5h-190q-23 0 -35 16.5 t-8 39.5zM440 872l41 201q4 23 24.5 39t43.5 16h190q23 0 35 -16t8 -39l-41 -201q-6 -23 -25.5 -39t-41.5 -16h-191q-23 0 -35 16.5t-8 38.5z"/>
			<glyph unicode="&#xf8;" horiz-adv-x="1298"
				   d="M-45 250l22 98q8 51 60 68l61 22q2 18 7.5 46t11.5 56.5t12 57.5t12 47q27 94 75 175t120 139.5t169 92t224 33.5q154 0 264.5 -74.5t153.5 -193.5l102 37q18 6 25 6q18 0 27.5 -12t5.5 -31l-21 -98q-10 -51 -59 -68l-62 -22v-4q-2 -18 -7 -47t-11 -57.5t-12.5 -56.5 t-12.5 -46q-29 -94 -72.5 -174t-113.5 -138.5t-168 -92t-233 -33.5q-154 0 -265.5 74.5t-152.5 195.5l-103 -37q-18 -6 -24 -6q-18 0 -28.5 12t-6.5 31zM371 342q18 -68 74.5 -92.5t121.5 -24.5q43 0 86 9.5t83 34t73 66.5t51 105q10 33 21 86zM383 541l510 184 q-18 66 -73.5 90.5t-121.5 24.5q-127 0 -201.5 -67.5t-113.5 -231.5z"/>
			<glyph unicode="&#xf9;" horiz-adv-x="1247"
				   d="M87 275q-11 87 9 184l117 551q4 23 24.5 39t43.5 16h155q23 0 35 -16.5t8 -38.5l-110 -521q-27 -123 10 -196.5t156 -73.5q109 0 181 74t99 196l111 521q4 23 24.5 39t42.5 16h156q23 0 35 -16.5t8 -38.5l-203 -955q-4 -23 -23.5 -39t-41.5 -16h-156q-23 0 -36 16.5 t-9 38.5l10 47q-47 -57 -111.5 -89.5t-179.5 -32.5q-109 0 -184.5 38.5t-117.5 104t-53 152.5zM417 1500q13 26 44 26h194q23 0 37 -5t31 -34l129 -209q12 -20 -0.5 -39.5t-34.5 -19.5h-113q-33 0 -48 10t-30 24l-202 201q-20 20 -7 46z"/>
			<glyph unicode="&#xfa;" horiz-adv-x="1247"
				   d="M87 275q-11 87 9 184l117 551q4 23 24.5 39t43.5 16h155q23 0 35 -16.5t8 -38.5l-110 -521q-27 -123 10 -196.5t156 -73.5q109 0 181 74t99 196l111 521q4 23 24.5 39t42.5 16h156q23 0 35 -16.5t8 -38.5l-203 -955q-4 -23 -23.5 -39t-41.5 -16h-156q-23 0 -36 16.5 t-9 38.5l10 47q-47 -57 -111.5 -89.5t-179.5 -32.5q-109 0 -184.5 38.5t-117.5 104t-53 152.5zM611 1240.5q-1 21.5 18 37.5l219 209q29 27 45 33t39 6h195q29 0 31.5 -25.5t-17.5 -40.5l-295 -207q-20 -14 -40.5 -24t-53.5 -10h-113q-27 0 -28 21.5z"/>
			<glyph unicode="&#xfb;" horiz-adv-x="1247"
				   d="M87 275q-11 87 9 184l117 551q4 23 24.5 39t43.5 16h155q23 0 35 -16.5t8 -38.5l-110 -521q-27 -123 10 -196.5t156 -73.5q109 0 181 74t99 196l111 521q4 23 24.5 39t42.5 16h156q23 0 35 -16.5t8 -38.5l-203 -955q-4 -23 -23.5 -39t-41.5 -16h-156q-23 0 -36 16.5 t-9 38.5l10 47q-47 -57 -111.5 -89.5t-179.5 -32.5q-109 0 -184.5 38.5t-117.5 104t-53 152.5zM376 1239.5q-4 20.5 17 38.5l233 209q25 23 43.5 31t40.5 8h123q23 0 37 -8.5t31 -30.5l143 -209q14 -20 1 -39.5t-36 -19.5h-74q-20 0 -31.5 5t-27.5 17l-127 96l-176 -96 q-20 -12 -33.5 -17t-34.5 -5h-102q-23 0 -27 20.5z"/>
			<glyph unicode="&#xfc;" horiz-adv-x="1247"
				   d="M87 275q-11 87 9 184l117 551q4 23 24.5 39t43.5 16h155q23 0 35 -16.5t8 -38.5l-110 -521q-27 -123 10 -196.5t156 -73.5q109 0 181 74t99 196l111 521q4 23 24.5 39t42.5 16h156q23 0 35 -16.5t8 -38.5l-203 -955q-4 -23 -23.5 -39t-41.5 -16h-156q-23 0 -36 16.5 t-9 38.5l10 47q-47 -57 -111.5 -89.5t-179.5 -32.5q-109 0 -184.5 38.5t-117.5 104t-53 152.5zM401 1274l37 180q4 23 24.5 39t43.5 16h170q23 0 35 -16t8 -39l-37 -180q-4 -23 -24.5 -39t-43.5 -16h-170q-23 0 -35 16t-8 39zM825 1274l37 180q4 23 24.5 39t43.5 16h170 q23 0 35 -16t8 -39l-37 -180q-4 -23 -24.5 -39t-43.5 -16h-170q-23 0 -35 16t-8 39z"/>
			<glyph unicode="&#xfd;" horiz-adv-x="1202"
				   d="M84 -365.5q-12 23.5 2 46.5l258 399l-201 915q-6 29 15.5 49.5t48.5 20.5h145q47 0 58 -49l135 -625l403 625q10 16 31.5 32.5t46.5 16.5h170q29 2 41 -22.5t-4 -51.5l-862 -1337q-10 -16 -29.5 -29.5t-44.5 -13.5h-172q-29 0 -41 23.5zM599 1240.5q-1 21.5 18 37.5 l219 209q29 27 45 33t39 6h195q29 0 31.5 -25.5t-17.5 -40.5l-295 -207q-20 -14 -40.5 -24t-53.5 -10h-113q-27 0 -28 21.5z"/>
			<glyph unicode="&#xfe;" horiz-adv-x="1267"
				   d="M-57 -334l370 1733q4 23 23.5 39t42.5 16h156q23 0 36 -16.5t9 -38.5l-95 -436q14 14 39 34.5t63 40t90 33.5t124 14q94 0 171 -42t126 -111.5t69.5 -159.5t6.5 -184q-6 -31 -14.5 -72t-16.5 -72q-25 -94 -70 -179t-112.5 -148.5t-155.5 -100t-199 -36.5q-63 0 -114.5 12 t-89 30.5t-62.5 40t-37 39.5l-94 -436q-4 -23 -23.5 -39t-42.5 -16h-155q-23 0 -36 16.5t-9 38.5zM377 455q-12 -106 43 -168t155 -62t182.5 58.5t123.5 191.5q10 31 15 57.5t9 57.5q14 131 -42 190.5t-156 59.5t-181.5 -59.5t-115.5 -170.5q-10 -31 -19.5 -78t-13.5 -77z "/>
			<glyph unicode="&#xff;" horiz-adv-x="1202"
				   d="M84 -365.5q-12 23.5 2 46.5l258 399l-201 915q-6 29 15.5 49.5t48.5 20.5h145q47 0 58 -49l135 -625l403 625q10 16 31.5 32.5t46.5 16.5h170q29 2 41 -22.5t-4 -51.5l-862 -1337q-10 -16 -29.5 -29.5t-44.5 -13.5h-172q-29 0 -41 23.5zM356 1274l37 180q4 23 24.5 39 t43.5 16h170q23 0 35 -16t8 -39l-37 -180q-4 -23 -24.5 -39t-43.5 -16h-170q-23 0 -35 16t-8 39zM780 1274l37 180q4 23 24.5 39t43.5 16h170q23 0 35 -16t8 -39l-37 -180q-4 -23 -24.5 -39t-43.5 -16h-170q-23 0 -35 16t-8 39z"/>
			<glyph unicode="&#x152;" horiz-adv-x="2002"
				   d="M98 565q12 78 27.5 152t38.5 151q35 129 91 233.5t140 178.5t202 114t277 40h1139q23 0 36 -16.5t9 -39.5l-33 -145q-4 -23 -23.5 -39t-41.5 -16h-662l-69 -326h616q23 0 35 -16.5t8 -38.5l-30 -146q-4 -23 -25 -39t-43 -16h-616l-72 -340h678q23 0 36 -16.5t7 -38.5 l-31 -146q-4 -23 -23.5 -39t-42.5 -16h-1124q-133 0 -235.5 40t-169 113.5t-93 178t-6.5 233.5zM374 442q9 -57 42 -98t89 -64.5t140 -23.5h180l197 922h-170q-88 0 -156.5 -24t-120 -65.5t-84.5 -98t-51 -122.5q-23 -78 -38 -151.5t-27 -151.5q-10 -66 -1 -123z"/>
			<glyph unicode="&#x153;" horiz-adv-x="1939"
				   d="M57 438q2 18 7.5 46t11.5 56.5t12 57.5t12 47q27 94 75 175t120 139.5t169 92t224 33.5q113 0 203 -42t149 -113q72 72 171.5 113.5t230.5 41.5q106 0 193 -42t143.5 -112.5t78 -165.5t-1.5 -200l-18 -92q-6 -23 -25.5 -39t-42.5 -16h-684q-10 -47 2.5 -83t40 -60.5 t67.5 -37t85 -12.5q66 0 110 13.5t74 33.5q25 16 41.5 22.5t40.5 6.5h164q23 0 36 -16.5t7 -38.5q-8 -29 -42 -74t-96.5 -88t-153.5 -73.5t-214 -30.5q-98 0 -182 39.5t-141 111.5q-72 -72 -175.5 -111.5t-254.5 -39.5q-104 0 -190.5 36.5t-145 99t-86 145.5t-15.5 177z M324 440q-6 -63 8 -105t44 -66.5t68.5 -34t81.5 -9.5t86 9.5t83 34t73 66.5t51 105q4 14 10.5 40t12.5 52.5t10 51.5t6 41q8 63 -6 105t-44 66.5t-69 34t-82 9.5t-86 -9.5t-82.5 -34t-72.5 -66.5t-54 -105q-4 -16 -10 -41t-12 -51.5t-10 -52t-6 -40.5zM1135 651h462 q2 31 -2 65t-23.5 61.5t-57 45t-103.5 17.5q-59 0 -105 -17.5t-81 -45t-57.5 -61.5t-32.5 -65z"/>
			<glyph unicode="&#x178;" horiz-adv-x="1349"
				   d="M215 1354q-10 33 12.5 56.5t51.5 23.5h139q41 0 56 -20.5t20 -31.5l202 -571l447 571q16 20 35.5 36t60.5 16h182q29 0 41.5 -26t-4.5 -48l-670 -854l-96 -451q-4 -23 -23.5 -39t-41.5 -16h-162q-23 0 -36 16.5t-9 38.5l96 451zM446 1591l37 181q4 23 24.5 39t43.5 16 h170q23 0 35 -16.5t8 -38.5l-37 -181q-4 -23 -24.5 -39t-43.5 -16h-170q-23 0 -35 16.5t-8 38.5zM932 1591l37 181q4 23 24.5 39t42.5 16h170q23 0 35 -16.5t8 -38.5l-37 -181q-4 -23 -24.5 -39t-42.5 -16h-170q-23 0 -35 16.5t-8 38.5z"/>
			<glyph unicode="&#x2c6;" horiz-adv-x="737"
				   d="M59 1239.5q-4 20.5 17 38.5l233 209q25 23 43.5 31t40.5 8h123q23 0 37 -8.5t31 -30.5l143 -209q14 -20 1 -39.5t-36 -19.5h-74q-20 0 -31.5 5t-27.5 17l-127 96l-176 -96q-20 -12 -33.5 -17t-34.5 -5h-102q-23 0 -27 20.5z"/>
			<glyph unicode="&#x2dc;" horiz-adv-x="798"
				   d="M63 1257q8 39 31 81t56.5 77t78.5 57.5t101 22.5q45 0 72.5 -11t49 -23.5t42 -24t49.5 -11.5q25 0 38 9.5t22 20.5t19.5 20.5t28.5 9.5h115q18 0 26.5 -11.5t4.5 -27.5q-8 -39 -31 -81t-56.5 -77t-79 -57.5t-100.5 -22.5q-45 0 -73.5 11.5t-50 23.5t-42 23.5t-49.5 11.5 q-25 0 -37 -9t-22 -20.5t-19.5 -20.5t-27.5 -9h-115q-18 0 -26.5 11t-4.5 27z"/>
			<glyph unicode="&#x2000;" horiz-adv-x="932"/>
			<glyph unicode="&#x2001;" horiz-adv-x="1864"/>
			<glyph unicode="&#x2002;" horiz-adv-x="932"/>
			<glyph unicode="&#x2003;" horiz-adv-x="1864"/>
			<glyph unicode="&#x2004;" horiz-adv-x="621"/>
			<glyph unicode="&#x2005;" horiz-adv-x="466"/>
			<glyph unicode="&#x2006;" horiz-adv-x="310"/>
			<glyph unicode="&#x2007;" horiz-adv-x="310"/>
			<glyph unicode="&#x2008;" horiz-adv-x="233"/>
			<glyph unicode="&#x2009;" horiz-adv-x="372"/>
			<glyph unicode="&#x200a;" horiz-adv-x="103"/>
			<glyph unicode="&#x2010;" horiz-adv-x="991"
				   d="M115 547l28 135q4 23 24.5 39t43.5 16h625q23 0 35 -16t8 -39l-29 -135q-4 -23 -23.5 -39t-42.5 -16h-624q-23 0 -36 16t-9 39z"/>
			<glyph unicode="&#x2011;" horiz-adv-x="991"
				   d="M115 547l28 135q4 23 24.5 39t43.5 16h625q23 0 35 -16t8 -39l-29 -135q-4 -23 -23.5 -39t-42.5 -16h-624q-23 0 -36 16t-9 39z"/>
			<glyph unicode="&#x2012;" horiz-adv-x="991"
				   d="M115 547l28 135q4 23 24.5 39t43.5 16h625q23 0 35 -16t8 -39l-29 -135q-4 -23 -23.5 -39t-42.5 -16h-624q-23 0 -36 16t-9 39z"/>
			<glyph unicode="&#x2013;" horiz-adv-x="1175"
				   d="M115 547l28 135q4 23 24.5 39t43.5 16h809q23 0 35 -16t8 -39l-29 -135q-4 -23 -23.5 -39t-41.5 -16h-809q-23 0 -36 16t-9 39z"/>
			<glyph unicode="&#x2014;" horiz-adv-x="1564"
				   d="M115 547l28 135q4 23 24.5 39t43.5 16h1198q23 0 35 -16t8 -39l-29 -135q-4 -23 -23.5 -39t-41.5 -16h-1198q-23 0 -36 16t-9 39z"/>
			<glyph unicode="&#x2018;" horiz-adv-x="532"
				   d="M173 1009.5q-7 20.5 3 39.5l209 340q12 20 35.5 42.5t64.5 22.5h93q16 0 29.5 -14.5t4.5 -34.5l-123 -336q-10 -29 -33.5 -54.5t-64.5 -25.5h-184q-27 0 -34 20.5z"/>
			<glyph unicode="&#x2019;" horiz-adv-x="520"
				   d="M188 1038l123 336q10 29 34 54.5t65 25.5h184q27 0 34 -20.5t-3 -38.5l-209 -340q-12 -20 -36 -43t-65 -23h-92q-16 0 -29.5 14.5t-5.5 34.5z"/>
			<glyph unicode="&#x201a;" horiz-adv-x="546"
				   d="M-66 -104l123 335q10 29 34 54.5t65 25.5h184q27 0 34 -20.5t-3 -38.5l-209 -340q-12 -20 -36 -43t-65 -23h-92q-16 0 -29.5 14.5t-5.5 35.5z"/>
			<glyph unicode="&#x201c;" horiz-adv-x="942"
				   d="M173 1009.5q-7 20.5 3 39.5l209 340q12 20 35.5 42.5t64.5 22.5h93q16 0 29.5 -14.5t4.5 -34.5l-123 -336q-10 -29 -33.5 -54.5t-64.5 -25.5h-184q-27 0 -34 20.5zM580 1009.5q-7 20.5 4 39.5l209 340q12 20 35.5 42.5t64.5 22.5h92q16 0 29.5 -14.5t5.5 -34.5l-123 -336 q-10 -29 -33.5 -54.5t-64.5 -25.5h-185q-27 0 -34 20.5z"/>
			<glyph unicode="&#x201d;" horiz-adv-x="927"
				   d="M188 1038l123 336q10 29 34 54.5t65 25.5h184q27 0 34 -20.5t-3 -38.5l-209 -340q-12 -20 -36 -43t-65 -23h-92q-16 0 -29.5 14.5t-5.5 34.5zM596 1038l123 336q10 29 33.5 54.5t64.5 25.5h184q27 0 34 -20.5t-3 -38.5l-209 -340q-12 -20 -35.5 -43t-64.5 -23h-92 q-16 0 -29.5 14.5t-5.5 34.5z"/>
			<glyph unicode="&#x201e;" horiz-adv-x="954"
				   d="M-66 -104l123 335q10 29 34 54.5t65 25.5h184q27 0 34 -20.5t-3 -38.5l-209 -340q-12 -20 -36 -43t-65 -23h-92q-16 0 -29.5 14.5t-5.5 35.5zM342 -104l123 335q10 29 33.5 54.5t64.5 25.5h185q27 0 33.5 -20.5t-3.5 -38.5l-209 -340q-12 -20 -35.5 -43t-64.5 -23h-92 q-16 0 -29.5 14.5t-5.5 35.5z"/>
			<glyph unicode="&#x2022;" horiz-adv-x="784"
				   d="M147 614q10 51 40 95.5t70 78t89 53t100 19.5t91.5 -19.5t67 -53t35.5 -77.5t-1 -96q-10 -51 -39 -95t-70 -77.5t-89 -53t-99 -19.5t-92 19.5t-66.5 53t-36 77.5t-0.5 95z"/>
			<glyph unicode="&#x2026;" horiz-adv-x="1419"
				   d="M2 55l43 201q4 23 24.5 39t43.5 16h190q23 0 35 -16t8 -39l-43 -201q-4 -23 -23.5 -39t-41.5 -16h-191q-23 0 -36 16.5t-9 38.5zM446 55l43 201q4 23 24.5 39t43.5 16h190q23 0 35 -16t8 -39l-43 -201q-4 -23 -23.5 -39t-41.5 -16h-191q-23 0 -36 16.5t-9 38.5zM891 55 l43 201q4 23 24.5 39t43.5 16h190q23 0 35 -16t8 -39l-43 -201q-4 -23 -23.5 -39t-41.5 -16h-191q-23 0 -36 16.5t-9 38.5z"/>
			<glyph unicode="&#x202f;" horiz-adv-x="372"/>
			<glyph unicode="&#x2039;" horiz-adv-x="716"
				   d="M86 606l29 135q4 18 15 32.5t26 25.5l487 391q23 18 47.5 6t18.5 -41l-50 -221q-8 -35 -19 -53.5t-36 -38.5l-254 -205l168 -205q16 -20 20.5 -38.5t-3.5 -53.5l-31 -147q-6 -29 -35 -41.5t-49 10.5l-318 387q-23 25 -16 57z"/>
			<glyph unicode="&#x203a;" horiz-adv-x="716"
				   d="M37 190l49 222q8 35 19.5 53t35.5 39l254 205l-168 204q-16 20 -20 39t4 54l31 147q6 29 34.5 41t49.5 -10l317 -387q23 -25 16 -58l-28 -135q-4 -18 -15.5 -32.5t-25.5 -24.5l-488 -391q-23 -18 -47 -6t-18 40z"/>
			<glyph unicode="&#x205f;" horiz-adv-x="466"/>
			<glyph unicode="&#x20ac;" horiz-adv-x="1556"
				   d="M59 551l15 74q10 45 55 45h131l12 61h-131q-45 0 -35 45l17 74q4 20 18.5 32.5t34.5 12.5h133q31 123 85.5 225.5t138 176t201.5 115.5t274 42q143 0 249.5 -43t174 -108.5t96 -145.5t16.5 -156q-4 -25 -23.5 -40t-41.5 -15h-166q-25 0 -36 13.5t-15 29.5q-6 37 -18.5 75 t-43.5 67.5t-84 48t-141 18.5q-86 0 -151.5 -23.5t-113.5 -64.5t-78 -96.5t-46 -118.5h370q43 0 37 -45l-16 -74q-10 -45 -55 -45h-373l-12 -61h372q45 0 35 -45l-14 -74q-10 -45 -56 -45h-370q-8 -47 0 -96.5t38.5 -88t86 -63.5t141.5 -25q88 0 149.5 18.5t104.5 48.5 t70.5 68t50.5 74q10 16 27.5 29.5t41.5 13.5h166q23 0 37.5 -15t5.5 -40q-20 -76 -68 -155.5t-130 -146.5t-203 -109t-287 -42q-125 0 -227 43t-171 115t-98.5 168t-11.5 203h-133q-45 0 -35 45z"/>
			<glyph unicode="&#x2122;" horiz-adv-x="1316"
				   d="M233 1323l15 66q10 45 53 45h373q20 0 30.5 -12.5t6.5 -32.5l-15 -66q-10 -45 -55 -45h-106l-74 -344q-4 -20 -18.5 -32.5t-34.5 -12.5h-70q-43 0 -37 45l74 344h-107q-45 0 -35 45zM674 934l98 455q10 45 53 45h72q27 0 38 -13.5t17 -31.5l62 -183l135 183 q14 18 29.5 31.5t42.5 13.5h84q20 0 30.5 -12.5t5.5 -32.5l-98 -455q-10 -45 -53 -45h-70q-20 0 -30.5 12t-6.5 33l45 209l-59 -82q-14 -18 -27.5 -29.5t-35.5 -11.5h-58q-23 0 -30 12t-13 29l-26 82l-45 -209q-10 -45 -54 -45h-69q-20 0 -30.5 12t-6.5 33z"/>
			<glyph unicode="&#x25fc;" horiz-adv-x="1064" d="M0 0v1065h1065v-1065h-1065z"/>
			</font>
</defs>
</svg>
