<?xml version="1.0" standalone="no"?>
<!DOCTYPE svg PUBLIC "-//W3C//DTD SVG 1.1//EN" "http://www.w3.org/Graphics/SVG/1.1/DTD/svg11.dtd" >
<svg xmlns="http://www.w3.org/2000/svg">
	<metadata></metadata>
	<defs>
		<font id="rubikbold_italic" horiz-adv-x="1294">
			<font-face units-per-em="2048" ascent="1638" descent="-410"/>
			<missing-glyph horiz-adv-x="438"/>
			<glyph unicode="&#xfb01;" horiz-adv-x="1466"
				   d="M88 803l43 207q4 23 24.5 39t43.5 16h141l12 55q41 190 164 293t346 103h625q23 0 35 -16.5t8 -39.5l-43 -207q-6 -23 -25.5 -39t-42.5 -16h-594q-49 0 -73.5 -24.5t-32.5 -63.5l-10 -45h682q23 0 35 -16.5t8 -38.5l-203 -955q-4 -23 -23.5 -39t-42.5 -16h-258 q-23 0 -36 16.5t-9 38.5l148 693h-369l-147 -693q-4 -23 -23.5 -39t-42.5 -16h-258q-23 0 -36 16.5t-9 38.5l147 693h-141q-23 0 -35 16t-8 39z"/>
			<glyph unicode="&#xfb02;" horiz-adv-x="1490"
				   d="M88 803l43 207q4 23 24.5 39t43.5 16h141l12 55q41 190 164 293t346 103h215q23 0 35 -16.5t8 -39.5l-43 -207q-6 -23 -25.5 -39t-41.5 -16h-185q-49 0 -73.5 -24.5t-32.5 -63.5l-10 -45h393l84 395q4 23 23.5 39.5t41.5 16.5h258q23 0 36.5 -16.5t8.5 -39.5l-299 -1405 q-4 -23 -23.5 -39t-41.5 -16h-258q-23 0 -36 16.5t-9 38.5l147 693h-393l-147 -693q-4 -23 -23.5 -39t-42.5 -16h-258q-23 0 -36 16.5t-9 38.5l147 693h-141q-23 0 -35 16t-8 39z"/>
			<glyph unicode="&#xfb03;" horiz-adv-x="2228"
				   d="M88 803l43 207q4 23 24.5 39t43.5 16h141l12 55q41 190 164 293t346 103h215q23 0 35 -16.5t8 -39.5l-43 -207q-6 -23 -25.5 -39t-41.5 -16h-185q-49 0 -73.5 -24.5t-32.5 -63.5l-10 -45h393l12 55q41 190 164 293t346 103h625q23 0 35 -16.5t8 -39.5l-43 -207 q-6 -23 -25.5 -39t-42.5 -16h-594q-49 0 -73.5 -24.5t-32.5 -63.5l-11 -45h682q23 0 35.5 -16.5t7.5 -38.5l-202 -955q-4 -23 -23.5 -39t-42.5 -16h-258q-23 0 -36 16.5t-9 38.5l148 693h-369l-148 -693q-4 -23 -23.5 -39t-41.5 -16h-258q-23 0 -36 16.5t-9 38.5l147 693 h-393l-147 -693q-4 -23 -23.5 -39t-42.5 -16h-258q-23 0 -36 16.5t-9 38.5l147 693h-141q-23 0 -35 16t-8 39z"/>
			<glyph unicode="&#xfb04;" horiz-adv-x="2252"
				   d="M88 803l43 207q4 23 24.5 39t43.5 16h141l12 55q41 190 164 293t346 103h215q23 0 35 -16.5t8 -39.5l-43 -207q-6 -23 -25.5 -39t-41.5 -16h-185q-49 0 -73.5 -24.5t-32.5 -63.5l-10 -45h393l12 55q41 190 164 293t346 103h215q23 0 35 -16.5t8 -39.5l-43 -207 q-6 -23 -25.5 -39t-41.5 -16h-185q-49 0 -73.5 -24.5t-32.5 -63.5l-11 -45h394l84 395q4 23 23.5 39.5t41.5 16.5h258q23 0 36 -16.5t9 -39.5l-299 -1405q-4 -23 -23.5 -39t-41.5 -16h-258q-23 0 -36 16.5t-9 38.5l147 693h-393l-148 -693q-4 -23 -23.5 -39t-41.5 -16h-258 q-23 0 -36 16.5t-9 38.5l147 693h-393l-147 -693q-4 -23 -23.5 -39t-42.5 -16h-258q-23 0 -36 16.5t-9 38.5l147 693h-141q-23 0 -35 16t-8 39z"/>
			<glyph horiz-adv-x="0"/>
			<glyph horiz-adv-x="0"/>
			<glyph unicode="&#xd;" horiz-adv-x="593"/>
			<glyph unicode=" " horiz-adv-x="438"/>
			<glyph unicode="&#x09;" horiz-adv-x="438"/>
			<glyph unicode="&#xa0;" horiz-adv-x="438"/>
			<glyph unicode="!" horiz-adv-x="620"
				   d="M8 55l45 207q4 23 23.5 39t42.5 16h258q23 0 36 -16t9 -39l-45 -207q-4 -23 -23.5 -39t-42.5 -16h-258q-23 0 -36 16.5t-9 38.5zM102 496l189 882q4 23 23.5 39.5t41.5 16.5h258q23 0 36.5 -16.5t8.5 -39.5l-188 -882q-4 -23 -24.5 -39.5t-43.5 -16.5h-258 q-23 0 -35 16.5t-8 39.5z"/>
			<glyph unicode="&#x22;" horiz-adv-x="995"
				   d="M197 954l45 426q4 31 20.5 52.5t48.5 21.5h254q33 0 42 -21.5t-1 -52.5l-135 -426q-10 -29 -28.5 -43t-41.5 -14h-159q-23 0 -36 14.5t-9 42.5zM664 954l45 426q4 31 20 52.5t49 21.5h254q33 0 42 -21.5t-1 -52.5l-135 -426q-10 -29 -28.5 -43t-41.5 -14h-159 q-23 0 -36.5 14.5t-8.5 42.5z"/>
			<glyph unicode="#" horiz-adv-x="1415"
				   d="M43 352l41 197q4 23 24.5 39t43.5 16h151l76 213h-129q-23 0 -35 16.5t-8 38.5l41 197q4 23 24.5 39t42.5 16h177l63 174q6 16 22.5 29.5t36.5 13.5h217q18 0 29.5 -13t5.5 -32l-63 -172h153l64 174q6 16 22.5 29.5t36.5 13.5h217q18 0 29.5 -13t5.5 -32l-63 -172h106 q23 0 35 -16t8 -39l-41 -197q-4 -23 -24.5 -39t-42.5 -16h-152l-78 -213h131q23 0 35 -16.5t8 -38.5l-41 -197q-4 -23 -24.5 -39t-42.5 -16h-176l-64 -174q-6 -18 -22.5 -30.5t-36.5 -12.5h-215q-18 0 -30.5 14.5t-4.5 34.5l59 168h-151l-64 -174q-6 -18 -22.5 -30.5 t-36.5 -12.5h-215q-18 0 -30.5 14.5t-4.5 34.5l59 168h-104q-23 0 -35 16.5t-8 38.5zM614 604h154l76 213h-152z"/>
			<glyph unicode="$" horiz-adv-x="1388"
				   d="M14 403q4 18 20.5 32t33.5 14h268q29 0 44 -7.5t28 -21.5q8 -8 19 -26.5t34.5 -38t62.5 -34t101 -14.5q109 0 186.5 23.5t91.5 85.5q6 31 -15.5 52t-72.5 39.5t-130 36t-185 42.5q-201 45 -275.5 157.5t-36.5 288.5q14 74 51 140.5t95.5 120t139.5 91t185 56.5l33 143 q4 23 24.5 39t43.5 16h268q23 0 35 -16t8 -39l-35 -160q80 -25 144.5 -66.5t109.5 -92t66.5 -106.5t19.5 -107q-4 -18 -20.5 -31.5t-32.5 -13.5h-268q-29 0 -44.5 8t-31.5 24q-6 6 -16.5 20.5t-31 30t-55 26.5t-88.5 11q-39 0 -75.5 -5t-67.5 -16t-51.5 -31.5t-26.5 -51.5 t8.5 -52.5t56.5 -40t114.5 -35.5t181.5 -40q215 -47 305 -151.5t49 -296.5q-78 -365 -551 -418l-29 -138q-4 -23 -24.5 -39t-42.5 -16h-268q-23 0 -35.5 16.5t-7.5 38.5l32 162q-80 27 -145.5 69t-110.5 93t-67.5 110.5t-18.5 118.5z"/>
			<glyph unicode="%" horiz-adv-x="1775"
				   d="M95 21.5q-9 21.5 11 41.5l1295 1332q18 18 35.5 28.5t46.5 10.5h192q31 0 40 -21.5t-11 -42.5l-1294 -1331q-18 -18 -36 -28.5t-46 -10.5h-193q-31 0 -40 21.5zM154 1008q6 41 14 76.5t20 78.5q16 61 42 112.5t67 88.5t102.5 58.5t149.5 21.5q74 0 129 -24.5t91 -65.5 t51 -95.5t7 -115.5q-12 -84 -34 -156q-16 -61 -41 -112.5t-67 -88t-103.5 -58t-149.5 -21.5q-74 0 -129 24.5t-91 65.5t-51.5 95t-6.5 116zM393 1008q-8 -53 3.5 -80t56.5 -27t68.5 26.5t39.5 80.5q10 35 17.5 67.5t11.5 67.5q6 53 -5.5 79.5t-56.5 26.5t-67.5 -26.5 t-38.5 -79.5q-10 -35 -17.5 -67.5t-11.5 -67.5zM995 291q6 41 14.5 76.5t20.5 78.5q16 61 42 112.5t67 88.5t102.5 58.5t149.5 21.5q74 0 129 -24.5t91 -65.5t51 -95.5t7 -115.5q-12 -84 -35 -156q-16 -61 -40.5 -112.5t-66.5 -88t-103.5 -58t-149.5 -21.5q-74 0 -129 24.5 t-91 65.5t-51.5 95t-7.5 116zM1235 291q-8 -53 3 -80t56 -27t68.5 27t40.5 80q10 35 17 67.5t12 67.5q6 53 -5.5 79.5t-56.5 26.5t-67.5 -26.5t-38.5 -79.5q-10 -35 -17.5 -67.5t-11.5 -67.5z"/>
			<glyph unicode="&#x26;" horiz-adv-x="1554"
				   d="M55 412q27 123 117 203.5t219 154.5q-55 88 -78.5 164t-3.5 168q35 166 174.5 259t350.5 93q96 0 179 -31.5t139 -86t83 -126t10 -149.5q-10 -41 -30.5 -85t-58.5 -90t-96.5 -94.5t-144.5 -99.5l113 -145q29 39 50.5 75.5t33.5 67.5t38 45.5t52 14.5h244q23 0 36 -16.5 t9 -37.5q-8 -37 -27.5 -85t-52.5 -102t-77 -111.5t-101 -112.5l172 -222q10 -12 6 -28q-4 -14 -15.5 -24.5t-27.5 -10.5h-350q-23 0 -32 6t-15 14l-37 46q-92 -41 -188.5 -63.5t-231.5 -22.5q-84 0 -176 22.5t-163 73.5t-107.5 134t-12.5 202zM416 377q-12 -59 22.5 -91 t114.5 -32q47 0 100.5 16.5t96.5 36.5l-172 221q-57 -29 -105.5 -69.5t-56.5 -81.5zM674 1081q-8 -35 9 -71.5t42 -71.5q139 74 154 143q10 53 -17.5 76t-64.5 23q-41 0 -77 -25t-46 -74z"/>
			<glyph unicode="'" horiz-adv-x="528"
				   d="M197 954l45 426q4 31 20.5 52.5t48.5 21.5h254q33 0 42 -21.5t-1 -52.5l-135 -426q-10 -29 -28.5 -43t-41.5 -14h-159q-23 0 -36 14.5t-9 42.5z"/>
			<glyph unicode="(" horiz-adv-x="835"
				   d="M51 240.5q-12 187.5 41 433.5q51 246 123 420t171 283.5t233.5 160.5t312.5 51q23 0 36 -16.5t9 -38.5l-45 -207q-4 -23 -23.5 -38t-44.5 -17q-84 -8 -148.5 -58.5t-113.5 -135.5t-85 -198.5t-64 -246.5q-29 -133 -41.5 -248t1 -199t56.5 -135t125 -59q23 -2 35 -17.5 t8 -37.5l-45 -207q-4 -23 -23.5 -39.5t-42.5 -16.5q-133 0 -236.5 63.5t-165 189.5t-73.5 313.5z"/>
			<glyph unicode=")" horiz-adv-x="833"
				   d="M-133 -270l45 207q4 23 23.5 38t44.5 17q84 8 148.5 58t113.5 135t84.5 199t64.5 247t41 247.5t-1 198.5t-56 135.5t-125 59.5q-23 2 -35 17.5t-8 37.5l45 207q4 23 23.5 39t41.5 16q131 0 235.5 -64.5t166 -190.5t73 -312t-39.5 -432q-53 -246 -124 -420t-170.5 -283.5 t-233.5 -161t-312 -51.5q-23 0 -36 16.5t-9 39.5z"/>
			<glyph unicode="*" horiz-adv-x="923"
				   d="M191 1105.5q-11 18.5 4 41.5l104 194q10 20 34.5 28.5t41.5 -5.5l123 -94l-11 164q-2 25 15.5 43t42.5 18h205q29 0 33.5 -20.5t-5.5 -40.5l-80 -164l164 94q20 12 42 8t26 -31l22 -194q4 -29 -10 -43t-37 -17l-186 -10l112 -106q16 -16 11.5 -39t-27.5 -37l-188 -121 q-18 -10 -41 -6t-27 31l-27 159l-102 -170q-14 -25 -35.5 -24.5t-34.5 10.5l-139 121q-16 14 -15 34.5t32 41.5l157 106l-170 10q-23 0 -34 18.5z"/>
			<glyph unicode="+" horiz-adv-x="1249"
				   d="M49 512l43 207q4 23 24.5 39t43.5 16h317l72 338q4 23 24.5 39t42.5 16h258q23 0 35.5 -16t8.5 -39l-72 -338h315q23 0 35 -16.5t8 -38.5l-43 -207q-6 -23 -25.5 -39t-41.5 -16h-316l-71 -338q-4 -23 -24.5 -39.5t-43.5 -16.5h-258q-23 0 -35 16.5t-8 39.5l72 338h-318 q-23 0 -36 16t-7 39z"/>
			<glyph unicode="," horiz-adv-x="591"
				   d="M-86 -104l149 403q10 29 37 54.5t68 25.5h252q27 0 34 -20.5t-3 -39.5l-248 -407q-12 -20 -36 -43t-65 -23h-153q-16 0 -30.5 15.5t-4.5 34.5z"/>
			<glyph unicode="-" horiz-adv-x="985"
				   d="M94 512l43 207q4 23 24.5 39t43.5 16h645q23 0 35 -16.5t8 -38.5l-43 -207q-4 -23 -24.5 -39t-43.5 -16h-645q-23 0 -35 16t-8 39z"/>
			<glyph unicode="." horiz-adv-x="585"
				   d="M-10 55l57 269q4 23 24.5 39t43.5 16h268q23 0 35 -16.5t8 -38.5l-57 -269q-4 -23 -23.5 -39t-42.5 -16h-268q-23 0 -36 16.5t-9 38.5z"/>
			<glyph unicode="/" horiz-adv-x="1218"
				   d="M-106 -150.5q-7 21.5 6 41.5l1038 1657q14 23 40 42.5t64 19.5h295q27 0 33 -21.5t-6 -42.5l-1042 -1657q-12 -20 -37 -40.5t-66 -20.5h-291q-27 0 -34 21.5z"/>
			<glyph unicode="0" horiz-adv-x="1413"
				   d="M92 535q12 84 33.5 180t44.5 184q31 111 79 212t128 177t198.5 121t288.5 45q147 0 251 -45t165 -121t82.5 -177t3.5 -212q-14 -88 -34.5 -184.5t-43.5 -179.5q-31 -111 -79 -212.5t-129 -177t-199.5 -120.5t-288.5 -45q-139 0 -241.5 45t-165 120.5t-87 177t-6.5 212.5z M467 451q2 -43 20.5 -75t55.5 -50.5t98 -18.5t106.5 18.5t77 50.5t53 75t33.5 94q45 174 74 344q8 51 5 94t-21.5 75t-55 50t-98.5 18q-61 0 -105 -18t-76 -50t-52.5 -75t-34.5 -94q-47 -170 -74 -344q-8 -51 -6 -94z"/>
			<glyph unicode="1" horiz-adv-x="1026"
				   d="M114 1013.5q9 22.5 31 37.5l512 338q18 12 45 28.5t58 16.5h250q23 0 36 -16.5t9 -39.5l-283 -1323q-4 -23 -23.5 -39t-41.5 -16h-269q-23 0 -36 16.5t-9 38.5l189 885l-279 -178q-23 -14 -44 -11t-32 21l-112 201q-10 18 -1 40.5z"/>
			<glyph unicode="2" horiz-adv-x="1359"
				   d="M-25 55l39 176q6 33 26.5 66t57.5 55l695 432q41 27 66.5 52.5t39.5 48t20.5 45t10.5 43.5q4 14 4 39.5t-12.5 51.5t-43 44t-87.5 18t-96.5 -19.5t-65 -44t-40 -50t-20.5 -37.5q-16 -29 -39.5 -38t-52.5 -9h-252q-18 0 -29.5 13t-7.5 32q20 86 64.5 171t121.5 154.5 t190.5 112.5t273.5 43q129 0 225 -43t157.5 -113.5t84 -161t2.5 -184.5q-12 -59 -32 -115.5t-53.5 -110.5t-87 -106.5t-135.5 -103.5l-321 -188h473q23 0 35 -16.5t8 -39.5l-47 -217q-4 -23 -23.5 -39t-42.5 -16h-1061q-23 0 -36 16.5t-9 38.5z"/>
			<glyph unicode="3" horiz-adv-x="1384"
				   d="M18 385q4 18 20.5 31.5t35.5 13.5h258q43 0 61.5 -19.5t42 -42t62.5 -42t120 -19.5q98 0 170 33t89 104q14 72 -43.5 105t-155.5 33h-178q-23 0 -36 16t-7 39l37 176q4 23 23.5 41t35.5 33l262 219h-526q-23 0 -35 16.5t-8 38.5l47 217q4 23 23.5 39.5t41.5 16.5h979 q23 0 36 -16.5t9 -39.5l-47 -217q-4 -23 -22.5 -41t-32.5 -30l-301 -250q74 -23 132 -61t95 -90t49.5 -118.5t-4.5 -146.5q-25 -115 -75 -199t-131.5 -138t-199.5 -80.5t-276 -26.5q-131 0 -238.5 34.5t-181 92t-109.5 130t-22 148.5z"/>
			<glyph unicode="4" horiz-adv-x="1460"
				   d="M4 319l45 218q12 51 45 88l776 772q25 23 41.5 30t42.5 7h351q23 0 36 -16.5t9 -39.5l-168 -786h155q23 0 35 -16.5t8 -38.5l-45 -218q-6 -23 -25.5 -39t-41.5 -16h-156l-45 -209q-4 -23 -23.5 -39t-42.5 -16h-268q-23 0 -36 16.5t-9 38.5l45 209h-686q-23 0 -36 16.5 t-7 38.5zM516 592h297l80 377z"/>
			<glyph unicode="5" horiz-adv-x="1337"
				   d="M27 414q4 18 20 31.5t35 13.5h260q33 0 48.5 -12.5t19.5 -20.5q10 -18 22 -38.5t33.5 -38t53.5 -30t79 -12.5q43 0 85 11.5t77 34t59.5 55t34.5 77.5q14 70 -31 114t-139 44q-33 0 -60.5 -8t-50 -17.5t-41 -17.5t-30.5 -8h-320q-25 0 -37 16.5t-6 38.5l217 731 q6 23 24.5 39.5t41.5 16.5h876q23 0 36.5 -16.5t8.5 -39.5l-47 -217q-4 -23 -24.5 -39t-42.5 -16h-596l-53 -182q41 20 88 33.5t112 13.5q100 0 191.5 -36t157 -101.5t95 -158.5t5.5 -210q-53 -248 -229.5 -366.5t-450.5 -118.5q-121 0 -223.5 35.5t-174 96t-106.5 139.5 t-18 163z"/>
			<glyph unicode="6" horiz-adv-x="1353"
				   d="M55 504q29 127 88.5 208t124.5 152l504 529q12 10 27.5 25.5t44.5 15.5h356q18 0 27.5 -13.5t5.5 -31.5q-4 -10 -8 -16.5t-8 -10.5l-345 -361q88 -18 170 -60t139.5 -107.5t83.5 -153.5t3 -197q-51 -242 -235.5 -372.5t-463.5 -130.5q-109 0 -211 36.5t-178 105 t-112.5 165t-12.5 217.5zM428 494q-10 -45 2 -80t40 -58.5t66.5 -36t81.5 -12.5t87.5 12.5t82 36t65.5 58.5t38 80q8 45 -4.5 79.5t-40 58t-66.5 36t-82 12.5t-87 -12.5t-81.5 -36t-65.5 -58t-36 -79.5z"/>
			<glyph unicode="7" horiz-adv-x="1206"
				   d="M136 24.5q-5 24.5 5 41.5l666 1040h-590q-23 0 -35 16.5t-8 38.5l47 217q4 23 23.5 39.5t42.5 16.5h979q23 0 36 -16.5t9 -39.5l-41 -190q-4 -18 -18.5 -44t-37.5 -61l-663 -1034q-12 -18 -28.5 -33.5t-41.5 -15.5h-307q-33 0 -38 24.5z"/>
			<glyph unicode="8" horiz-adv-x="1400"
				   d="M59 451q20 92 72.5 166.5t130.5 132.5q-39 55 -53 123.5t4 150.5q20 100 74.5 180t137.5 135.5t191.5 85t241.5 29.5q109 0 208 -36t171 -99.5t105.5 -149.5t13.5 -186q-37 -160 -170 -274q53 -57 75.5 -132t2.5 -167q-43 -203 -217.5 -316.5t-460.5 -113.5 q-113 0 -217.5 35.5t-180 99t-113.5 149.5t-16 187zM434 426q-12 -59 35 -99t162 -40t180.5 40t77.5 99t-36 99t-163 40t-179.5 -40t-76.5 -99zM588 1008q-12 -59 32 -99.5t136 -40.5t152.5 40t72.5 100q12 59 -31 99t-135 40t-153.5 -40t-73.5 -99z"/>
			<glyph unicode="9" horiz-adv-x="1331"
				   d="M133 954q27 119 88.5 212.5t150.5 158t202.5 97t244.5 32.5q106 0 210 -37t178.5 -104.5t111.5 -163.5t10 -215q-12 -59 -34.5 -108.5t-50 -91.5t-61.5 -80t-67 -74l-504 -539q-12 -10 -27.5 -25.5t-43.5 -15.5h-357q-18 0 -27.5 13.5t-4.5 31.5q2 10 7 16.5t9 10.5 l340 368q-80 14 -157 56.5t-133 109t-82 153t-3 195.5zM510 944q-8 -41 3 -74.5t38 -57.5t63.5 -37t79.5 -13t86 13t78 37t60.5 57.5t33.5 74.5t-2 75t-36.5 57.5t-63.5 36.5t-80 13t-86 -13t-78 -36.5t-61.5 -57.5t-34.5 -75z"/>
			<glyph unicode=":" horiz-adv-x="610"
				   d="M0 55l55 269q4 23 24.5 39t43.5 16h268q23 0 35 -16.5t8 -38.5l-55 -269q-4 -23 -24.5 -39t-43.5 -16h-268q-23 0 -35 16.5t-8 38.5zM152 772l55 268q4 23 24.5 39.5t42.5 16.5h269q23 0 35 -16.5t8 -39.5l-56 -268q-4 -23 -24.5 -39t-42.5 -16h-268q-23 0 -35.5 16.5 t-7.5 38.5z"/>
			<glyph unicode=";" horiz-adv-x="632"
				   d="M-74 -98l148 397q10 29 36.5 54.5t67.5 25.5h252q23 0 33 -19.5t-2 -40.5l-246 -405q-12 -20 -36.5 -43t-65.5 -23h-154q-23 0 -32 16.5t-1 37.5zM180 772l56 268q4 23 24.5 39.5t42.5 16.5h268q23 0 35 -16.5t8 -39.5l-55 -268q-4 -23 -24.5 -39t-42.5 -16h-269 q-23 0 -35 16.5t-8 38.5z"/>
			<glyph unicode="&#x3c;" horiz-adv-x="1079"
				   d="M72 674l18 86q8 33 27.5 50t50.5 36l879 520q23 12 43 2t14 -39l-72 -338q-8 -35 -34.5 -55.5t-49.5 -34.5l-373 -219l281 -223q16 -14 34.5 -35t10.5 -55l-59 -271q-6 -31 -28.5 -37t-45.5 11l-653 516q-25 18 -37 35.5t-6 50.5z"/>
			<glyph unicode="=" horiz-adv-x="1175"
				   d="M53 260l45 207q4 23 24.5 39t43.5 16h807q23 0 35 -16.5t8 -38.5l-43 -207q-4 -23 -23.5 -39t-42.5 -16h-809q-23 0 -36 16.5t-9 38.5zM162 764l45 207q4 23 23.5 39t41.5 16h809q23 0 35 -16.5t8 -38.5l-43 -207q-4 -23 -24.5 -39t-42.5 -16h-809q-23 0 -35 16t-8 39z "/>
			<glyph unicode="&#x3e;" horiz-adv-x="1075"
				   d="M18 102l72 338q8 35 35 55.5t49 34.5l373 220l-281 223q-16 14 -34.5 34.5t-10.5 55.5l60 270q6 31 28.5 37t44.5 -10l654 -516q25 -18 37 -35.5t6 -50.5l-19 -86q-8 -33 -27.5 -50.5t-50.5 -35.5l-878 -520q-23 -12 -43.5 -2t-14.5 38z"/>
			<glyph unicode="?" horiz-adv-x="1236"
				   d="M141 1006q14 72 60.5 150.5t125.5 145t191 109.5t264 43q100 0 195.5 -31.5t166 -88t106.5 -133.5t18 -169q-16 -74 -52 -129t-84.5 -100t-101.5 -81t-102 -71t-90 -72.5t-64 -82.5q-10 -23 -27.5 -39.5t-39.5 -16.5h-250q-23 0 -35 16.5t-8 39.5q14 68 53 121t89 97 t105.5 80.5t104.5 70.5t84 69t43 76q12 59 -26 93t-132 34q-92 0 -137 -28t-70.5 -60.5t-44 -60t-57.5 -27.5h-250q-18 0 -28.5 12t-6.5 33zM315 55l45 207q4 23 23.5 39t42.5 16h258q23 0 36 -16t9 -39l-45 -207q-4 -23 -23.5 -39t-42.5 -16h-258q-23 0 -36 16.5t-9 38.5z "/>
			<glyph unicode="@" horiz-adv-x="1792"
				   d="M53 379q4 29 13.5 77t19.5 100t21.5 99t19.5 74q37 127 103.5 247t172 212t258 147.5t361.5 55.5t350 -52.5t222 -143.5t109 -211t9 -255q-6 -53 -21.5 -124t-31.5 -126q-41 -156 -136.5 -236.5t-242.5 -80.5q-104 0 -165.5 29.5t-84.5 64.5q-18 -23 -39.5 -43 t-52.5 -35.5t-75 -26t-107 -10.5q-76 0 -134.5 30t-94 85t-46 132t10.5 171q18 94 54 171t85 132.5t112.5 86t139.5 30.5q86 0 131 -25.5t63 -64.5l4 18q4 23 23.5 39.5t42.5 16.5h127q23 0 36 -16.5t9 -39.5l-88 -415q-10 -49 11.5 -76t66.5 -27q47 0 76.5 27.5t46.5 93.5 q16 55 27 105.5t16 103.5q12 113 -3.5 196.5t-68.5 139t-152.5 82t-257.5 26.5q-133 0 -236.5 -32.5t-180 -91t-129 -140.5t-85.5 -180q-8 -27 -19 -71t-21.5 -92t-18.5 -93t-10 -74q-10 -98 11.5 -179t74.5 -139.5t141 -90t215 -31.5q98 0 166 8t115 22.5t79.5 32 t63.5 35.5q27 16 42.5 23.5t37.5 7.5h180q23 0 36 -15.5t7 -42.5q-6 -16 -22 -30q-49 -45 -110.5 -92.5t-147.5 -86t-202 -64.5t-271 -26q-170 0 -299 54.5t-214 144.5t-122 210t-21 249zM727 559q-23 -100 10 -145t88 -45q59 0 109.5 44t73.5 146q20 100 -10.5 146.5 t-90.5 46.5q-55 0 -107.5 -46.5t-72.5 -146.5z"/>
			<glyph unicode="A" horiz-adv-x="1482"
				   d="M-98 20q-2 5 -2 12q0 18 14 44l721 1290q12 23 38.5 45.5t67.5 22.5h351q41 0 57 -22.5t20 -45.5l172 -1290q1 -11 1 -20q0 -56 -52 -56h-248q-41 0 -54 17.5t-15 33.5l-23 170h-544l-93 -170q-8 -16 -28.5 -33.5t-61.5 -17.5h-286q-29 0 -35 20zM580 539h331l-61 491z "/>
			<glyph unicode="B" horiz-adv-x="1462"
				   d="M25 55l282 1323q4 23 23.5 39.5t42.5 16.5h639q123 0 209 -41t137 -105q52 -65 68 -145q8 -39 8 -78q0 -40 -9 -78q-12 -59 -34.5 -103t-47 -76t-49 -51.5t-39.5 -29.5q67 -55 85 -128q8 -32 8 -69q0 -49 -13 -106q-18 -84 -50 -161t-92 -135t-156.5 -93t-243.5 -35h-723 q-22 0 -36 16q-10 12 -10 28q0 5 1 11zM459 317h338q61 0 106 36t55 89q3 15 3 29q-1 34 -21 60q-30 36 -90 36h-338zM580 883h317q61 0 100.5 31.5t49.5 84.5q4 17 4 32q1 31 -17 53q-26 32 -88 32h-317z"/>
			<glyph unicode="C" horiz-adv-x="1439"
				   d="M82 535q12 84 33.5 180t44.5 184q29 113 86 214t146 177t213 120t288 44q119 0 228.5 -40t188.5 -108q80 -67 118 -159q25 -61 25 -127q0 -34 -7 -70q-4 -18 -20.5 -31.5t-34.5 -13.5h-269q-35 0 -43 13.5t-12 46.5q-4 25 -13.5 53.5t-33 52t-65.5 39.5t-111 16 q-70 0 -121 -19.5t-88 -52t-60.5 -75.5t-37.5 -90q-8 -27 -19.5 -74t-23 -97t-19.5 -98.5t-12 -74.5q-3 -26 -3 -50q0 -20 2 -40q5 -43 28.5 -76t66.5 -52.5t113 -19.5t118 16.5t81.5 40t55 52t36.5 53.5q18 33 32.5 46t48.5 13h269q18 0 29.5 -13t7.5 -32 q-25 -104 -85.5 -196t-152.5 -160t-216 -107.5t-273 -39.5q-133 0 -241 44t-180 120q-71 74 -104 176q-21 64 -21 134q0 40 7 81z"/>
			<glyph unicode="D" horiz-adv-x="1484"
				   d="M25 55l282 1323q4 23 23.5 39.5t42.5 16.5h522q125 0 234.5 -45.5t185.5 -124.5q77 -80 111 -188q22 -69 22 -144q0 -44 -8 -90q-8 -43 -14.5 -79t-13.5 -68.5t-15 -67.5t-19 -76q-33 -127 -90 -228.5t-145 -173t-212 -110.5t-288 -39h-573q-22 0 -36 16q-10 12 -10 28 q0 5 1 11zM463 328h219q258 0 317 235q20 88 35 155.5t31 151.5q5 29 5 54q0 182 -234 182h-209z"/>
			<glyph unicode="E" horiz-adv-x="1314"
				   d="M25 55l282 1323q4 23 23.5 39.5t42.5 16.5h954q23 0 36 -16q10 -13 10 -30q0 -5 -1 -10l-47 -217q-4 -23 -24.5 -39t-43.5 -16h-630l-47 -221h585q23 0 36 -16.5t9 -39.5l-47 -217q-4 -23 -24.5 -39t-42.5 -16h-586l-47 -229h647q23 0 35 -16.5t8 -39.5l-47 -217 q-4 -23 -23.5 -39t-42.5 -16h-970q-22 0 -36 16q-10 12 -10 28q0 5 1 11z"/>
			<glyph unicode="F" horiz-adv-x="1265"
				   d="M25 55l282 1323q4 23 23.5 39.5t42.5 16.5h936q23 0 36 -16q10 -13 10 -30q0 -5 -1 -10l-47 -217q-4 -23 -24.5 -39t-43.5 -16h-612l-60 -281h572q23 0 36 -16t7 -39l-45 -217q-4 -23 -24.5 -39t-43.5 -16h-571l-95 -443q-4 -23 -23.5 -39t-41.5 -16h-268q-22 0 -36 16 q-10 12 -10 28q0 5 1 11z"/>
			<glyph unicode="G" horiz-adv-x="1460"
				   d="M86 555q12 84 33.5 180t44.5 185q29 113 85 210t145 169.5t213 113.5t288 41q129 0 235.5 -42t181 -106.5t111.5 -141.5q29 -61 29 -116q0 -15 -2 -30q-2 -18 -19.5 -31.5t-35.5 -13.5h-273q-31 0 -44 18.5t-25 36.5q-10 18 -25.5 35.5t-39 32t-58.5 22.5t-84 8 q-70 0 -120 -19.5t-87 -52t-61.5 -75.5t-38.5 -90q-10 -27 -20.5 -74t-22 -97t-19.5 -98.5t-12 -74.5q-3 -23 -3 -46t3 -44q6 -43 28.5 -76t66.5 -52.5t112 -19.5q109 0 194.5 51.5t112.5 173.5h-172q-23 0 -36 16.5t-7 39.5l45 217q4 23 24.5 39t43.5 16h495q23 0 35 -16.5 t8 -38.5l-55 -262q-57 -264 -246.5 -413.5t-490.5 -149.5q-133 0 -240 47t-179.5 126.5t-103.5 184.5q-21 66 -21 136q0 40 7 81z"/>
			<glyph unicode="H" horiz-adv-x="1499"
				   d="M25 55l282 1323q4 23 23.5 39.5t42.5 16.5h268q23 0 36 -16.5t9 -39.5l-106 -493h454l107 493q4 23 23.5 39.5t41.5 16.5h269q23 0 36 -16q10 -13 10 -30q0 -5 -1 -10l-283 -1323q-4 -23 -23.5 -39t-42.5 -16h-268q-23 0 -36 16.5t-9 38.5l107 502h-455l-107 -502 q-4 -23 -23.5 -39t-41.5 -16h-268q-22 0 -36 16q-10 11 -10 27q0 6 1 12z"/>
			<glyph unicode="I" horiz-adv-x="665"
				   d="M25 55l282 1323q4 23 23.5 39.5t42.5 16.5h268q23 0 36 -16q10 -13 10 -30q0 -5 -1 -10l-283 -1323q-4 -23 -23.5 -39t-41.5 -16h-268q-22 0 -36 16q-10 12 -10 28q0 5 1 11z"/>
			<glyph unicode="J" horiz-adv-x="1396"
				   d="M14 463q4 18 19.5 31.5t34.5 13.5h262q39 0 49 -12.5t14 -46.5q10 -70 54.5 -106t142.5 -36q117 0 188.5 58.5t93.5 169.5l121 571h-700q-23 0 -35 16.5t-8 38.5l47 217q4 23 23.5 39.5t41.5 16.5h1022q23 0 36 -16q11 -13 11 -30q0 -5 -1 -10l-183 -856 q-59 -272 -243.5 -407t-462.5 -135q-117 0 -221.5 34.5t-180.5 97t-111 151.5q-22 55 -22 118q0 40 8 82z"/>
			<glyph unicode="K" horiz-adv-x="1357"
				   d="M25 55l282 1323q4 23 23.5 39.5t42.5 16.5h268q23 0 36 -16.5t9 -39.5l-90 -422l420 433q10 12 30.5 28.5t59.5 16.5h340q27 0 35 -24q3 -8 3 -15q0 -15 -11 -27l-639 -651l385 -645q12 -23 -7.5 -47.5t-44.5 -24.5h-295q-29 0 -45 12.5t-30 34.5l-289 500l-105 -492 q-4 -23 -23.5 -39t-41.5 -16h-268q-22 0 -36 16q-10 12 -10 28q0 5 1 11z"/>
			<glyph unicode="L" horiz-adv-x="1228"
				   d="M25 55l282 1323q4 23 23.5 39.5t42.5 16.5h268q23 0 36 -16.5t9 -39.5l-223 -1050h624q23 0 35 -16q9 -12 9 -27q0 -6 -1 -13l-47 -217q-4 -23 -23.5 -39t-41.5 -16h-948q-22 0 -36 16q-10 12 -10 28q0 5 1 11z"/>
			<glyph unicode="M" horiz-adv-x="1712"
				   d="M25 55l282 1323q4 23 23.5 39.5t42.5 16.5h245q20 0 35 -6.5t24 -15.5t13 -18.5t6 -15.5l176 -567l412 567q8 10 32.5 33t65.5 23h306q23 0 36 -16q10 -13 10 -30q0 -5 -1 -10l-283 -1323q-4 -23 -23.5 -39t-42.5 -16h-268q-23 0 -36 16.5t-9 38.5l146 678l-238 -338 q-14 -18 -35.5 -34.5t-52.5 -16.5h-176q-31 0 -45.5 17.5t-18.5 33.5l-102 338l-146 -678q-4 -23 -23.5 -39t-41.5 -16h-268q-22 0 -36 16q-10 12 -10 28q0 5 1 11z"/>
			<glyph unicode="N" horiz-adv-x="1486"
				   d="M25 55l282 1323q4 23 23.5 39.5t42.5 16.5h172q35 0 52 -18.5t21 -29.5l363 -700l147 692q4 23 23.5 39.5t42.5 16.5h268q23 0 36 -16q10 -13 10 -30q0 -5 -1 -10l-282 -1323q-4 -23 -23.5 -39t-42.5 -16h-172q-35 0 -51 17.5t-27 33.5l-358 697l-148 -693 q-4 -23 -23.5 -39t-41.5 -16h-268q-22 0 -36 16q-10 12 -10 28q0 5 1 11z"/>
			<glyph unicode="O" horiz-adv-x="1472"
				   d="M82 535q12 84 33.5 180t44.5 184q31 115 87 216.5t145 176t213 118.5t290 44q135 0 243.5 -44t181.5 -118q72 -74 104 -176q20 -65 21 -135q0 -40 -7 -82q-14 -88 -35 -184.5t-43 -179.5q-31 -115 -88.5 -216.5t-146.5 -177t-213 -118.5t-289 -43q-135 0 -244 43 t-181 119q-71 74 -103 176q-20 64 -20 133q0 41 7 84zM463 545q-2 -21 -2 -40q0 -76 37 -130q47 -68 174 -68q129 0 204.5 68t106.5 170q10 37 21.5 82t21.5 92t18.5 91t12.5 79q3 22 3 42q0 27 -5 52q-8 43 -34 75t-69 50t-106 18t-113.5 -18t-89.5 -50t-65.5 -75 t-40.5 -94q-10 -35 -21.5 -79t-22 -91t-18.5 -92t-12 -82z"/>
			<glyph unicode="P" horiz-adv-x="1404"
				   d="M25 55l282 1323q4 23 23.5 39.5t42.5 16.5h565q115 0 214 -33t168 -97q70 -65 98 -158q15 -50 15 -106q0 -50 -12 -106q-27 -121 -76 -207t-126.5 -143.5t-187 -84t-255.5 -26.5h-282l-91 -418q-4 -23 -23.5 -39t-41.5 -16h-268q-22 0 -36 16q-10 12 -10 28q0 5 1 11z M561 793h252q86 0 150.5 37.5t83.5 123.5q4 22 4 40q0 56 -36 84q-48 38 -134 38h-252z"/>
			<glyph unicode="Q" horiz-adv-x="1472"
				   d="M82 535q12 84 33.5 180t44.5 184q31 115 87 216.5t145 176t213 118.5t290 44q135 0 243.5 -44t181.5 -118.5t104 -175.5q21 -65 21 -135q0 -40 -7 -82q-14 -88 -35 -184.5t-43 -179.5q-31 -115 -86 -213.5t-141 -174.5l104 -217q10 -23 -7.5 -43t-39.5 -20h-268 q-39 0 -54.5 17.5t-21.5 29.5l-35 84q-86 -18 -188 -18q-135 0 -244 43t-180.5 118.5t-103.5 176.5q-20 64 -20 133q0 41 7 84zM463 545q-2 -21 -2 -40q0 -76 37 -130q47 -68 174 -68q129 0 204.5 68t106.5 170q10 37 21.5 82t21.5 92t18.5 91t12.5 79q3 22 3 42q0 27 -5 52 q-8 43 -34 75t-69 50t-106 18t-113.5 -18t-89.5 -50t-65.5 -75t-40.5 -94q-10 -35 -21.5 -79t-22 -91t-18.5 -92t-12 -82z"/>
			<glyph unicode="R" horiz-adv-x="1421"
				   d="M25 55l282 1323q4 23 23.5 39.5t42.5 16.5h534q119 0 221.5 -32t172 -93.5t99.5 -153.5q16 -50 16 -108q0 -49 -11 -103q-33 -154 -117 -245t-213 -144l152 -487q2 -10 0 -23q-4 -18 -19.5 -31.5t-33.5 -13.5h-259q-41 0 -55 18.5t-20 36.5l-133 439h-209l-95 -439 q-4 -23 -23.5 -39t-41.5 -16h-268q-22 0 -36 16q-10 12 -10 28q0 5 1 11zM565 813h232q86 0 149.5 33t81.5 119q4 21 4 39q0 56 -37 80q-49 32 -135 32h-231z"/>
			<glyph unicode="S" horiz-adv-x="1382"
				   d="M10 403q4 18 20.5 32t32.5 14h269q29 0 44 -7.5t27 -21.5q8 -8 19.5 -26.5t35 -38t62.5 -34t101 -14.5q109 0 186.5 23.5t91.5 85.5q6 31 -15.5 52t-72.5 39.5t-130 36t-185 42.5q-201 46 -276 158q-49 74 -49 175q0 53 13 113q18 88 66.5 165t128.5 134.5t192.5 90 t262.5 32.5q123 0 224 -38t173 -97q73 -59 109 -130q33 -64 32 -125v-13q-4 -18 -20.5 -31.5t-32.5 -13.5h-268q-29 0 -44.5 8t-31.5 24q-6 6 -16.5 20.5t-31 30t-55 26.5t-88.5 11q-39 0 -75.5 -5t-67.5 -16t-51.5 -31.5t-26.5 -51.5t8.5 -52.5t56.5 -40t114.5 -35.5 t181.5 -40q215 -48 305 -152q62 -72 62 -184q0 -52 -13 -112q-45 -209 -222 -317.5t-485 -108.5q-123 0 -228 36.5t-181 96t-117 136.5q-36 67 -36 134q0 10 1 20z"/>
			<glyph unicode="T" horiz-adv-x="1288"
				   d="M156 1161l47 217q4 23 23.5 39.5t41.5 16.5h1100q23 0 36 -16q10 -13 10 -30q0 -5 -1 -10l-47 -217q-4 -23 -24.5 -39t-43.5 -16h-360l-223 -1051q-4 -23 -23.5 -39t-42.5 -16h-268q-23 0 -36 16.5t-9 38.5l223 1051h-360q-23 0 -35 16q-9 12 -9 28q0 5 1 11z"/>
			<glyph unicode="U" horiz-adv-x="1505"
				   d="M116 312q-15 54 -15 115q0 63 16 134l174 817q4 23 23.5 39.5t41.5 16.5h269q23 0 36 -16.5t9 -39.5l-172 -809q-10 -46 -10 -85q0 -64 28 -108q45 -70 168 -69q123 0 198.5 69.5t102.5 192.5l172 809q4 23 23.5 39.5t42.5 16.5h268q23 0 36 -16q10 -13 10 -30 q0 -5 -1 -10l-174 -817q-59 -285 -238.5 -433t-488.5 -148q-125 0 -232.5 37.5t-182 112t-104.5 182.5z"/>
			<glyph unicode="V" horiz-adv-x="1429"
				   d="M211 1362q-1 8 -1 16q0 56 54 56h248q41 0 54.5 -17.5t15.5 -34.5l92 -901l477 901q8 16 28.5 34t61.5 18h275q32 0 34 -25q0 -3 1 -6q0 -22 -11 -41l-690 -1280q-47 -82 -125 -82h-276q-82 0 -93 82z"/>
			<glyph unicode="W" horiz-adv-x="1691"
				   d="M197 78l28 1294q0 23 15.5 42.5t40.5 19.5h262q20 0 36.5 -12.5t16.5 -43.5l-16 -692l172 371q8 14 26.5 36.5t55.5 22.5h223q37 0 46 -22.5t11 -36.5l23 -371l278 692q12 31 32.5 43.5t41.5 12.5h272q29 0 35 -20q2 -7 2 -15q0 -13 -6 -27l-522 -1294q-10 -29 -44 -53.5 t-75 -24.5h-184q-41 0 -62.5 24.5t-23.5 53.5l-52 463l-239 -463q-14 -29 -46 -53.5t-73 -24.5h-188q-41 0 -64.5 24.5t-21.5 53.5z"/>
			<glyph unicode="X" horiz-adv-x="1464"
				   d="M-98 24q-2 8 -2 15q0 16 12 29l618 671l-313 627q-10 23 9.5 45.5t43.5 22.5h289q41 0 55.5 -20.5t20.5 -31.5l176 -352l317 356q16 18 35 33t60 15h348q31 0 36 -24q1 -5 1 -11q0 -18 -13 -33l-612 -678l313 -620q14 -31 -7 -49.5t-46 -18.5h-291q-41 0 -53 14.5 t-22 32.5l-177 350l-323 -350q-16 -18 -33.5 -32.5t-58.5 -14.5h-348q-27 0 -35 24z"/>
			<glyph unicode="Y" horiz-adv-x="1409"
				   d="M199 1362q-4 10 -4 19q0 16 11 31q17 22 44 22h258q41 0 56.5 -20.5t19.5 -31.5l157 -497l361 497q6 10 30.5 31t65.5 21h307q33 0 37 -25q1 -5 1 -10q0 -19 -13 -37l-658 -870l-94 -437q-4 -23 -23.5 -39t-41.5 -16h-275q-23 0 -36 16.5t-9 38.5l94 437z"/>
			<glyph unicode="Z" horiz-adv-x="1370"
				   d="M-37 55l45 207q6 29 20.5 45.5t24.5 26.5l799 772h-590q-23 0 -35 16.5t-8 38.5l47 217q4 23 23.5 39.5t42.5 16.5h1057q23 0 36 -16q10 -13 10 -30q0 -5 -1 -10l-45 -207q-4 -23 -14.5 -37t-26.5 -30l-799 -776h627q23 0 35 -16.5t8 -39.5l-48 -217q-4 -23 -23.5 -39 t-41.5 -16h-1098q-23 0 -36 16q-10 13 -10 29q0 5 1 10z"/>
			<glyph unicode="[" horiz-adv-x="798"
				   d="M-63 -270l385 1804q4 23 23.5 39t41.5 16h508q23 0 36 -16.5t9 -38.5l-45 -207q-4 -23 -24.5 -39t-43.5 -16h-194l-271 -1280h195q23 0 35 -16.5t8 -38.5l-45 -207q-4 -23 -23.5 -39.5t-42.5 -16.5h-507q-23 0 -36.5 16.5t-8.5 39.5z"/>
			<glyph unicode="\" horiz-adv-x="1157"
				   d="M248 1544q-4 25 11 45.5t44 20.5h236q39 0 55 -19.5t20 -42.5l340 -1654q4 -25 -11 -45.5t-44 -20.5h-235q-39 0 -55.5 19.5t-20.5 41.5z"/>
			<glyph unicode="]" horiz-adv-x="798"
				   d="M-131 -270l45 207q4 23 24.5 39t43.5 16h194l270 1280h-194q-23 0 -35 16.5t-8 38.5l45 207q4 23 23.5 39t41.5 16h508q23 0 36.5 -16.5t8.5 -38.5l-385 -1804q-4 -23 -23.5 -39.5t-41.5 -16.5h-508q-23 0 -36 16.5t-9 39.5z"/>
			<glyph unicode="^" horiz-adv-x="954"
				   d="M229 1239.5q-2 20.5 13 32.5l264 235q25 23 43 31t41 8h180q23 0 37 -8t31 -31l159 -229q12 -20 0 -39.5t-34 -19.5h-117q-20 0 -31.5 6t-28.5 16l-133 88l-170 -88q-20 -10 -34.5 -16t-34.5 -6h-156q-27 0 -29 20.5z"/>
			<glyph unicode="_" horiz-adv-x="1507"
				   d="M-57 -102l43 206q4 23 24.5 39.5t42.5 16.5h1219q23 0 35 -16.5t8 -39.5l-43 -206q-4 -23 -24.5 -39.5t-43.5 -16.5h-1218q-23 0 -35 16.5t-8 39.5z"/>
			<glyph unicode="`" horiz-adv-x="589"
				   d="M66 1516q10 30 38 30h273q23 0 37 -6t30 -33l140 -229q10 -18 -0.5 -38.5t-34.5 -20.5h-180q-33 0 -48.5 10t-29.5 24l-217 215q-18 18 -8 48z"/>
			<glyph unicode="a"
				   d="M45 459q2 14 6 36.5t9.5 46t10.5 45t9 38.5q31 121 84 208t122.5 143t153.5 82.5t176 26.5q59 0 104.5 -12t78 -30.5t53 -40t31.5 -39.5l10 47q4 23 23.5 39t41.5 16h259q23 -1 36 -17q10 -13 10 -28q0 -5 -1 -10l-201 -955q-4 -23 -23.5 -39t-42.5 -16h-260 q-23 0 -36 16.5t-9 38.5l10 47q-16 -25 -38.5 -47t-57.5 -39.5t-85 -26.5t-118 -9q-78 0 -150.5 29.5t-124.5 89t-76 149.5q-13 50 -14 108q0 49 9 103zM416 406q4 -32 20.5 -56t47 -38.5t77.5 -14.5q45 0 80 14.5t61.5 38t44 52t27.5 59.5q12 31 20.5 71.5t10.5 71.5 q1 9 1 18q0 22 -4 42q-5 28 -21.5 51.5t-45 38t-73.5 14.5q-96 0 -147.5 -53t-74.5 -125q-10 -31 -15 -57.5t-9 -57.5q-2 -18 -2 -35.5t2 -33.5z"/>
			<glyph unicode="b" horiz-adv-x="1298"
				   d="M2 55l287 1344q4 23 23.5 39t41.5 16h258q23 0 36.5 -16.5t8.5 -38.5l-94 -436q18 18 42 39.5t57.5 40t78 30.5t103.5 12q86 0 162.5 -29.5t132 -90t79.5 -150.5q13 -49 12 -106q0 -49 -9 -105q-2 -16 -6.5 -37.5t-9.5 -45t-10 -46t-9 -37.5q-59 -242 -189.5 -350 t-347.5 -108q-121 0 -185.5 39.5t-92.5 82.5l-11 -47q-4 -23 -23.5 -39t-41.5 -16h-248q-23 0 -36 16q-10 13 -10 29q0 5 1 10zM457 461q-1 -8 -1 -15q0 -22 5 -44q6 -28 22.5 -52t46 -38.5t74.5 -14.5q96 0 148.5 53t74.5 125q10 31 15.5 57.5t9.5 57.5q2 18 2 36 q0 16 -2 32q-4 32 -21.5 56.5t-48 39t-77.5 14.5q-45 0 -81 -14.5t-62.5 -38t-45 -52t-29.5 -59.5q-10 -31 -18 -71.5t-12 -71.5z"/>
			<glyph unicode="c" horiz-adv-x="1230"
				   d="M45 461q6 31 16.5 82t18.5 82q53 217 212 338.5t421 121.5q147 0 242.5 -46t150.5 -109q56 -62 76 -126q17 -53 17 -84q0 -6 -1 -11q-4 -23 -24.5 -39.5t-43.5 -16.5h-268q-23 0 -33 12.5t-16 28.5q-16 35 -48 54.5t-99 19.5q-82 0 -140.5 -45t-81.5 -119 q-10 -31 -18 -71.5t-12 -71.5q-2 -15 -2 -29q0 -54 32 -90q40 -45 121 -45q68 0 108 19.5t70 54.5q14 16 29.5 28.5t38.5 12.5h268q23 0 37 -16.5t6 -39.5q-10 -33 -38.5 -96t-95 -125.5t-179.5 -108.5t-291 -46q-98 0 -192.5 34.5t-163 97t-102.5 151.5q-22 58 -21 124 q0 36 6 74z"/>
			<glyph unicode="d" horiz-adv-x="1300"
				   d="M47 459q2 14 6 36.5t9.5 46t10.5 45t9 38.5q61 242 190 351t346 109q59 0 105.5 -12t79.5 -30.5t53.5 -40t30.5 -39.5l94 436q4 23 23.5 39t42.5 16h258q23 0 36 -16q10 -13 10 -29q0 -5 -1 -10l-287 -1344q-4 -23 -23.5 -39t-42.5 -16h-247q-23 0 -36.5 16.5t-8.5 38.5 l10 47q-18 -20 -39 -41.5t-51.5 -40t-77.5 -29.5t-123 -11q-78 0 -153.5 29.5t-132 89t-84.5 149.5q-16 52 -15 115q0 45 8 96zM418 406q4 -32 20.5 -56t47 -38.5t77.5 -14.5q45 0 81 14.5t62.5 38t45 52t28.5 59.5q12 31 20.5 71.5t10.5 71.5q1 8 1 15q0 23 -5 45 q-6 28 -22.5 51.5t-46 38t-74.5 14.5q-96 0 -147.5 -53t-74.5 -125q-10 -31 -15 -57.5t-9 -57.5q-2 -18 -2 -35.5t2 -33.5z"/>
			<glyph unicode="e" horiz-adv-x="1239"
				   d="M52 318q-11 48 -10 102q0 63 15 133q25 119 76 217t131 169t188.5 108.5t249.5 37.5q135 0 230.5 -50t153.5 -130q56 -80 74 -179q8 -45 9 -90q0 -54 -12 -108l-12 -57q-4 -23 -23.5 -39t-42.5 -16h-682q-5 -23 -5 -42q0 -20 6 -36q10 -31 33.5 -49.5t54 -25.5t61.5 -7 q61 0 100 12.5t68 34.5q27 18 38 23.5t35 5.5h267q37 0 37 -30q0 -7 -2 -15q-4 -25 -37 -75t-101.5 -102.5t-177 -91t-266.5 -38.5q-119 0 -214 41.5t-156.5 116t-85.5 180.5zM444 643h369q1 9 1 18q0 53 -30 97q-36 52 -120 51q-86 0 -141.5 -51t-78.5 -115z"/>
			<glyph unicode="f" horiz-adv-x="946"
				   d="M90 803l43 207q4 23 24.5 39t43.5 16h141l12 55q41 190 164 293t346 103h215q23 0 35 -16q9 -13 9 -29q0 -5 -1 -11l-43 -207q-6 -23 -25.5 -39t-41.5 -16h-185q-49 0 -73.5 -24.5t-32.5 -63.5l-10 -45h252q23 0 35 -16.5t8 -38.5l-43 -207q-4 -23 -24.5 -39t-43.5 -16 h-252l-147 -693q-4 -23 -23.5 -39t-42.5 -16h-258q-23 0 -36 16.5t-9 38.5l147 693h-141q-23 0 -35 16q-9 12 -9 28q0 5 1 11z"/>
			<glyph unicode="g" horiz-adv-x="1298"
				   d="M-53 -90q4 23 24.5 39t42.5 16h267q41 0 55 -41q8 -27 33.5 -47t95.5 -20q39 0 77 9t68.5 26.5t52 44t29.5 63.5l29 143q-20 -25 -39.5 -47t-49.5 -39.5t-77 -27t-123 -9.5q-78 0 -153.5 30t-133 88.5t-85.5 146.5q-17 52 -17 113q0 43 8 91q4 31 13.5 73t17.5 73 q59 236 188 343t346 107q59 0 108.5 -12t86.5 -30.5t60.5 -40t33.5 -39.5l10 47q4 23 25 39t43 16h238q23 0 35 -17q9 -12 9 -27q0 -5 -1 -11l-211 -998q-49 -231 -205 -347t-432 -116q-145 0 -238.5 40t-148 96.5t-71.5 118.5q-13 45 -13 81q0 13 2 25zM422 504 q-2 -16 -2 -31q0 -52 26 -88q35 -47 125 -47q84 0 137.5 46t75.5 105q12 31 18.5 65t10.5 64v12q0 52 -32 92q-36 46 -119 46q-88 0 -142.5 -46t-77.5 -118q-10 -31 -13 -50t-7 -50z"/>
			<glyph unicode="h" horiz-adv-x="1316"
				   d="M2 55l287 1344q4 23 23.5 39t41.5 16h258q23 0 36.5 -16.5t8.5 -38.5l-94 -436q43 43 116 82.5t169 39.5q84 0 160.5 -27.5t131 -85t76.5 -145.5q11 -42 11 -91q0 -55 -13 -118l-120 -563q-4 -23 -23.5 -39t-42.5 -16h-258q-23 0 -36 16.5t-9 38.5l111 518q7 32 7 59 q-1 48 -21 82q-32 54 -124 54t-145 -53t-72 -142l-110 -518q-4 -23 -23.5 -39t-42.5 -16h-258q-23 0 -36 16q-10 13 -10 29q0 5 1 10z"/>
			<glyph unicode="i" horiz-adv-x="606"
				   d="M2 55l203 955q4 23 24.5 39t42.5 16h258q23 0 35.5 -16.5t7.5 -38.5l-202 -955q-4 -23 -23.5 -39t-42.5 -16h-258q-23 0 -36 16q-10 13 -10 29q0 5 1 10zM252 1233l45 207q4 23 24.5 39t43.5 16h258q23 -1 35 -17q9 -12 9 -27q0 -5 -1 -11l-45 -207q-4 -23 -23.5 -39 t-42.5 -16h-258q-23 0 -36 16q-10 12 -10 29q0 5 1 10z"/>
			<glyph unicode="j" horiz-adv-x="626"
				   d="M-283 -334l41 197q4 23 25.5 44t44.5 21h80q49 0 74.5 30t33.5 69l209 983q4 23 24.5 39t43.5 16h258q23 0 35 -16.5t8 -38.5l-211 -994q-20 -94 -59 -169.5t-100.5 -128t-145.5 -80t-195 -27.5h-123q-23 0 -35 17q-9 12 -9 27q0 5 1 11zM272 1233l45 207q4 23 24.5 39 t43.5 16h258q23 0 35 -17q9 -12 9 -27q0 -5 -1 -11l-45 -207q-4 -23 -23.5 -39t-42.5 -16h-258q-23 0 -36 16q-10 12 -10 29q0 5 1 10z"/>
			<glyph unicode="k" horiz-adv-x="1245"
				   d="M2 55l287 1344q4 23 23.5 39t41.5 16h258q23 0 36.5 -16.5t8.5 -38.5l-141 -664l332 295q14 10 36.5 22.5t51.5 12.5h342q31 1 35 -29q1 -4 1 -9q0 -25 -22 -44l-508 -457l299 -438q10 -14 12.5 -21.5t0.5 -17.5q-4 -20 -21.5 -34.5t-38.5 -14.5h-268q-29 0 -47.5 9 t-28.5 26l-248 366l-73 -346q-4 -23 -23.5 -39t-42.5 -16h-258q-23 0 -36 16q-10 13 -10 29q0 5 1 10z"/>
			<glyph unicode="l" horiz-adv-x="608"
				   d="M2 55l287 1344q4 23 23.5 39t41.5 16h258q22 0 36 -16q10 -12 10 -28q0 -6 -1 -11l-286 -1344q-4 -23 -23.5 -39t-42.5 -16h-258q-23 0 -36 16q-10 13 -10 29q0 5 1 10z"/>
			<glyph unicode="m" horiz-adv-x="1904"
				   d="M2 55l203 955q4 23 24.5 39t42.5 16h248q23 0 35 -16.5t8 -38.5l-10 -47q57 57 118.5 89.5t147.5 32.5q104 0 184 -48t111 -111q76 78 169 118.5t192 40.5q74 0 143.5 -27.5t118.5 -85t69 -145.5q9 -40 10 -86q0 -57 -14 -123l-121 -563q-4 -23 -23.5 -39t-41.5 -16h-248 q-23 0 -36 16.5t-9 38.5l113 525q10 44 10 77q0 43 -17 68q-30 43 -104 43q-72 0 -118 -43t-68 -145l-113 -525q-4 -23 -23.5 -39t-41.5 -16h-248q-23 0 -36 16.5t-9 38.5l112 525q10 44 10 77q0 43 -17 68q-30 43 -103 43q-72 0 -118 -42t-69 -140l-112 -531 q-4 -23 -23.5 -39t-42.5 -16h-258q-23 0 -36 16q-10 13 -10 29q0 5 1 10z"/>
			<glyph unicode="n" horiz-adv-x="1316"
				   d="M2 55l203 955q4 23 24.5 39t42.5 16h248q23 0 35 -16.5t8 -38.5l-10 -47q43 43 114.5 82.5t180.5 39.5q92 0 170 -27.5t130 -85t72 -145.5q9 -39 8 -83q0 -58 -14 -126l-120 -563q-4 -23 -23.5 -39t-42.5 -16h-258q-23 0 -36 16.5t-9 38.5l111 518q7 32 7 59 q-1 48 -21 82q-32 54 -124 54t-145 -53t-72 -142l-110 -518q-4 -23 -23.5 -39t-42.5 -16h-258q-23 0 -36 16q-10 13 -10 29q0 5 1 10z"/>
			<glyph unicode="o" horiz-adv-x="1259"
				   d="M41 463q6 31 16.5 79t18.5 79q25 98 74 182t126.5 147.5t185 99t249.5 35.5q111 0 205 -38.5t160 -105.5q64 -67 96 -155q20 -56 21 -116q0 -34 -7 -70q-4 -31 -14.5 -79t-20.5 -79q-25 -98 -72 -182t-122.5 -146.5t-184 -98t-256.5 -35.5q-111 0 -204 38.5t-159.5 105 t-96.5 154.5q-20 57 -21 119q0 32 6 66zM412 463q-2 -16 -3 -30q1 -57 33 -92q40 -44 121 -44q82 0 142.5 44t82.5 122q10 31 17.5 69.5t11.5 69.5q2 15 2 29q0 57 -33 93q-41 44 -122 44q-82 0 -141.5 -44t-82.5 -122q-10 -31 -17 -69.5t-11 -69.5z"/>
			<glyph unicode="p" horiz-adv-x="1298"
				   d="M-82 -334l287 1344q4 23 23.5 39t41.5 16h248q23 0 36 -16.5t9 -38.5l-10 -47q18 20 38.5 41.5t51.5 40t78 29.5t123 11t152.5 -29.5t133 -89t84.5 -149.5q15 -52 15 -115q0 -45 -8 -96q-2 -16 -6.5 -37.5t-9.5 -45t-10 -46t-9 -37.5q-61 -242 -190.5 -351t-346.5 -109 q-59 0 -105 12t-79 30.5t-54.5 40t-29.5 39.5l-94 -436q-4 -23 -23.5 -39t-42.5 -16h-258q-23 0 -36 17q-10 12 -10 28q0 5 1 10zM457 461q-1 -9 -1 -18q0 -21 4 -41q5 -29 22.5 -52.5t47 -38t74.5 -14.5q96 0 147 53t74 125q10 31 15.5 57.5t9.5 57.5q2 18 2 35.5t-2 32.5 q-4 32 -20.5 56.5t-47 39t-77.5 14.5q-45 0 -81 -14.5t-62.5 -38t-45 -52t-29.5 -59.5q-12 -31 -20 -71.5t-10 -71.5z"/>
			<glyph unicode="q" horiz-adv-x="1298"
				   d="M47 461q2 14 6 36.5t9.5 46t10.5 45t9 38.5q59 242 189 350t347 108q121 0 185.5 -39.5t93.5 -82.5l10 47q4 23 23.5 39t42.5 16h248q23 0 36 -17q10 -12 10 -28q0 -5 -1 -10l-287 -1344q-4 -23 -23.5 -39t-42.5 -16h-258q-23 0 -36 16.5t-9 38.5l95 436 q-18 -18 -42 -39.5t-58 -40t-78 -30.5t-103 -12q-86 0 -163 29.5t-132 90t-79 150.5q-13 47 -13 103q0 51 10 108zM416 406q4 -31 21.5 -55.5t48 -39t77.5 -14.5q45 0 81 14.5t62.5 38t45 52t28.5 59.5t18.5 71.5t12.5 71.5q1 8 1 15q0 23 -5 45q-6 28 -22.5 51.5t-46 38 t-74.5 14.5q-96 0 -148.5 -53t-75.5 -125q-10 -31 -15 -57.5t-9 -57.5q-2 -19 -2 -36t2 -33z"/>
			<glyph unicode="r" horiz-adv-x="940"
				   d="M2 55l203 955q4 23 24.5 39t42.5 16h238q23 0 35 -16.5t8 -38.5l-10 -47q47 47 107.5 74.5t166.5 27.5h144q23 -1 35 -17q9 -12 9 -27q0 -5 -1 -11l-43 -207q-4 -23 -25 -39t-43 -16h-186q-92 0 -150.5 -48.5t-77.5 -140.5l-108 -504q-4 -23 -23.5 -39t-42.5 -16h-258 q-23 0 -36 16q-10 13 -10 29q0 5 1 10z"/>
			<glyph unicode="s" horiz-adv-x="1148"
				   d="M-10 272q4 23 24.5 39.5t42.5 16.5h254q23 0 31 -11.5t21.5 -24.5t41 -24.5t89.5 -11.5q61 0 109 16t56 47q4 23 -8 36.5t-47 22.5t-94 18.5t-145 25.5q-151 29 -215 117q-44 60 -44 145q0 39 9 82q14 70 52 128t102.5 101t156.5 66.5t215 23.5q100 0 186 -25.5 t148.5 -65.5t95.5 -92q28 -44 28 -87q0 -8 -1 -16q-4 -23 -23.5 -39.5t-42.5 -16.5h-244q-23 0 -34 10.5t-27 22.5t-44 22.5t-81 10.5q-47 0 -81 -13.5t-40 -43.5q-6 -23 2.5 -35t37 -21.5t81.5 -18.5t141 -24q90 -16 149.5 -49t93.5 -79t42 -102q3 -22 3 -46q0 -35 -7 -72 q-14 -70 -53 -129t-107.5 -103t-170 -68.5t-238.5 -24.5q-109 0 -197 27.5t-150 70.5q-60 43 -92 94q-26 43 -27 84q0 8 1 16z"/>
			<glyph unicode="t" horiz-adv-x="962"
				   d="M68 803l43 207q4 23 24.5 39t42.5 16h152l71 334q4 23 23.5 39t42.5 16h258q23 0 36 -16.5t9 -38.5l-72 -334h232q23 -1 35 -17q9 -12 9 -27q0 -5 -1 -11l-43 -207q-4 -23 -24.5 -39t-43.5 -16h-231l-70 -332q-4 -19 -4 -35q1 -23 9 -38q14 -26 61 -26h164q23 0 36 -16 t9 -39l-45 -207q-4 -23 -23.5 -39t-42.5 -16h-174q-80 0 -154.5 27.5t-126.5 80.5q-54 52 -78 126q-13 41 -13 88q0 38 9 81l74 345h-151q-23 0 -35 16q-9 11 -9 26q0 6 1 13z"/>
			<glyph unicode="u" horiz-adv-x="1296"
				   d="M66 238q-9 38 -9 82q0 58 15 126l118 564q4 23 25 39t43 16h258q23 0 35 -16.5t8 -38.5l-108 -518q-9 -37 -8 -69q0 -43 15 -73q27 -54 117 -53q90 0 139.5 53t69.5 142l109 518q4 23 24.5 39t43.5 16h258q23 -1 35 -17q9 -12 9 -27q0 -5 -1 -11l-203 -955 q-4 -23 -23.5 -39t-42.5 -16h-237q-23 0 -36 16.5t-9 38.5l10 47q-23 -23 -47.5 -44t-58 -38.5t-80 -28.5t-109.5 -11q-84 0 -160 27.5t-128 85t-72 145.5z"/>
			<glyph unicode="v" horiz-adv-x="1290"
				   d="M121 1001q-1 4 -1 9q0 20 16 36q18 20 46 19h242q31 0 42 -16.5t15 -32.5l117 -535l334 535q10 16 28.5 32.5t49.5 16.5h293q27 -1 37 -21q4 -8 4 -16q0 -13 -9 -27l-614 -950q-14 -18 -30.5 -34.5t-47.5 -16.5h-252q-31 0 -42 16.5t-15 34.5z"/>
			<glyph unicode="w" horiz-adv-x="1748"
				   d="M127 999q-1 6 -1 11q0 18 10 34q14 20 52 21h234q31 0 44 -16.5t15 -32.5l62 -465l221 465q10 16 29.5 32.5t50.5 16.5h172q31 0 43 -16.5t16 -32.5l82 -465l242 465q10 16 29.5 32.5t50.5 16.5h274q35 1 40 -21q1 -6 1 -13q0 -15 -8 -32l-526 -948q-10 -18 -29 -34.5 t-49 -16.5h-217q-31 0 -42.5 16.5t-15.5 34.5l-73 430l-218 -430q-10 -20 -28.5 -35.5t-48.5 -15.5h-230q-31 0 -43 16.5t-14 34.5z"/>
			<glyph unicode="x" horiz-adv-x="1267"
				   d="M-106 26l-2 12q0 20 18 38l491 489l-241 424q-14 25 1 50.5t56 25.5h277q27 0 37 -11.5t20 -27.5l115 -201l196 201q10 10 28.5 24.5t45.5 14.5h356q37 -1 42 -27q1 -5 1 -9q0 -21 -18 -40l-473 -479l248 -434q14 -25 -1.5 -50.5t-54.5 -25.5h-278q-27 0 -37 10t-21 29 l-122 213l-216 -213q-10 -10 -28.5 -24.5t-44.5 -14.5h-352q-37 0 -43 26z"/>
			<glyph unicode="y"
				   d="M91 -368q-5 9 -5 18q0 12 8 24l242 377l-211 950q-6 25 15.5 44.5t45.5 19.5h260q25 0 35.5 -16.5t14.5 -32.5l114 -533l338 533q10 16 27.5 32.5t42.5 16.5h293q25 0 36 -21q5 -8 5 -17q0 -13 -9 -26l-856 -1341q-10 -16 -27.5 -32.5t-41.5 -16.5h-291q-25 0 -36 21z "/>
			<glyph unicode="z" horiz-adv-x="1155"
				   d="M-35 55l43 199q4 25 17.5 41t29.5 31l463 422h-330q-23 0 -35 16t-8 39l43 207q4 23 24.5 39t43.5 16h831q23 -1 35 -17q9 -12 9 -26q0 -6 -1 -12l-40 -199q-4 -18 -15.5 -31.5t-25.5 -27.5l-480 -435h400q23 0 36 -16t9 -39l-45 -207q-4 -23 -23.5 -39t-42.5 -16h-893 q-23 0 -36 16q-10 13 -10 29q0 5 1 10z"/>
			<glyph unicode="{" horiz-adv-x="919"
				   d="M-6 561l29 139q12 49 75 76l39 15q33 12 58.5 36.5t45 56t33 66.5t19.5 68q27 123 79 227.5t138 181t211 119.5t297 43q23 0 36 -16.5t9 -38.5l-45 -207q-4 -23 -24.5 -39t-43.5 -16q-57 -6 -103 -20.5t-83 -46t-63.5 -83t-43.5 -127.5q-18 -82 -47.5 -145.5 t-65.5 -109.5t-74 -77.5t-69 -50.5q25 -18 49.5 -43.5t42 -65.5t22.5 -97.5t-13 -139.5q-16 -78 -5 -128t37.5 -81.5t65.5 -46t78 -20.5q23 0 36 -16.5t9 -39.5l-45 -206q-4 -23 -24.5 -39.5t-43.5 -16.5q-96 0 -192 43t-169 120t-110 181.5t-10 227.5q6 33 8 67.5t-4 66.5 t-22.5 56.5t-42.5 36.5l-31 14q-55 27 -43 76z"/>
			<glyph unicode="|" horiz-adv-x="618"
				   d="M-82 -371l457 2151q4 23 24.5 39t42.5 16h258q23 0 35.5 -16.5t7.5 -38.5l-456 -2151q-4 -23 -24.5 -39t-43.5 -16h-258q-23 0 -35 16.5t-8 38.5z"/>
			<glyph unicode="}" horiz-adv-x="921"
				   d="M-133 -272l45 206q4 23 23.5 39.5t41.5 16.5q66 6 114 20.5t83 46t58.5 81.5t39.5 128q18 82 48 145.5t66 110.5t74 79t68 50q-25 18 -49 44t-41.5 65t-22.5 96t13 139q16 76 8 127.5t-33.5 83t-65.5 46t-87 20.5q-23 0 -35 16.5t-8 38.5l45 207q4 23 23.5 39t41.5 16 q102 0 200.5 -43t170.5 -119.5t105.5 -181t7.5 -227.5q-6 -33 -8 -68t4 -66.5t21.5 -56t43.5 -36.5l31 -15q55 -27 43 -76l-29 -139q-12 -49 -76 -76l-38 -14q-33 -12 -58.5 -36.5t-45 -56.5t-33 -67t-19.5 -67q-27 -123 -73 -227.5t-129 -181.5t-211 -120t-314 -43 q-23 0 -35 16.5t-8 39.5z"/>
			<glyph unicode="~" horiz-adv-x="1155"
				   d="M100 475l37 178q16 68 75.5 116t164.5 48q76 0 130 -13t102 -29.5t99.5 -30t122.5 -13.5q47 0 88.5 19.5t59.5 33.5q33 23 60.5 15t19.5 -43l-37 -178q-14 -68 -74.5 -116t-165.5 -48q-76 0 -130 13t-102 29.5t-99.5 30t-122.5 13.5q-47 0 -88 -19.5t-60 -34.5 q-33 -23 -60.5 -14.5t-19.5 43.5z"/>
			<glyph unicode="&#xa1;" horiz-adv-x="602"
				   d="M-79 -313l188 882q4 23 24.5 39.5t43.5 16.5h258q23 0 35 -16.5t8 -39.5l-189 -882q-4 -23 -23.5 -39.5t-41.5 -16.5h-258q-23 0 -36.5 16.5t-8.5 39.5zM158 803l45 207q4 23 23.5 39t42.5 16h258q23 0 36 -16.5t9 -38.5l-45 -207q-4 -23 -23.5 -39t-42.5 -16h-258 q-23 0 -36 16t-9 39z"/>
			<glyph unicode="&#xa2;" horiz-adv-x="1267"
				   d="M63 461q6 31 16.5 82t18.5 82q43 178 158 292.5t299 151.5l29 125q6 23 25.5 39t41.5 16h258q23 0 36 -16t7 -39l-30 -137q88 -29 146 -76t93 -99.5t47.5 -99.5t8.5 -73q-4 -23 -25 -39.5t-43 -16.5h-268q-23 0 -33 12.5t-17 28.5q-16 35 -47.5 54.5t-99.5 19.5 q-82 0 -140 -45t-81 -119q-10 -31 -18.5 -71.5t-12.5 -71.5q-10 -74 30 -119t122 -45q68 0 107.5 19.5t70.5 54.5q14 16 29.5 28.5t37.5 12.5h269q23 0 37 -16.5t6 -39.5q-8 -29 -32 -82t-73 -108t-131 -104.5t-209 -69.5l-28 -142q-4 -23 -24.5 -39t-43.5 -16h-258 q-23 0 -35 16.5t-8 38.5l33 168q-66 27 -122 69t-93 98.5t-52.5 126t-1.5 149.5z"/>
			<glyph unicode="&#xa3;" horiz-adv-x="1552"
				   d="M-39 45q12 47 32.5 97.5t55.5 98.5t86 90t125 72q6 31 9 62t5 63h-124q-23 0 -35.5 16.5t-8.5 39.5l41 196q6 23 26 39.5t42 16.5h84l12 53q25 117 70 219t123 179t196.5 122t288.5 45q127 0 226.5 -35t166 -99.5t96 -155.5t19.5 -201q-2 -18 -18.5 -31.5t-34.5 -13.5 h-268q-35 0 -44.5 12t-13.5 47q-6 33 -15 59.5t-27.5 47t-51.5 31.5t-84 11q-49 0 -90 -19.5t-74 -52t-54.5 -75.5t-31.5 -90l-12 -53h330q23 0 36 -16.5t7 -39.5l-41 -196q-4 -23 -24.5 -39.5t-43.5 -16.5h-289q-2 -23 -3 -46t-5 -46q53 -16 93 -37.5t74 -43t63.5 -36 t62.5 -14.5q57 0 87 22.5t58 63.5q14 18 30.5 31.5t33.5 13.5h258q18 0 28.5 -13t6.5 -32q-16 -68 -51 -140.5t-96.5 -133t-150.5 -100.5t-212 -40q-98 0 -165 24t-117 52.5t-92 52t-93 23.5q-57 0 -86 -21.5t-60 -62.5q-12 -18 -28.5 -31.5t-32.5 -13.5h-258 q-18 0 -29.5 13.5t-7.5 31.5z"/>
			<glyph unicode="&#xa4;" horiz-adv-x="1277"
				   d="M16.5 258q3.5 23 22.5 39l117 96q-31 100 -6 221q29 133 116 244l-69 90q-12 16 -7 39t23 39l127 107q20 16 43 16t35 -16l71 -93q59 31 125 48.5t131 17.5q59 0 112.5 -14.5t98.5 -38.5l115 94q18 16 41 16t37 -16l106 -137q12 -16 7 -39t-23 -39l-115 -94 q33 -106 9 -224q-14 -66 -44 -127t-73 -114l71 -90q12 -16 7.5 -39t-23.5 -39l-127 -107q-20 -16 -42.5 -16t-35.5 16l-71 90q-121 -66 -258 -65q-123 0 -213 53l-115 -94q-18 -16 -41 -16t-37 16l-108 137q-10 16 -6.5 39zM436 614q-16 -86 30 -145t132 -59q43 0 83 16 t73.5 44t58.5 64.5t33 79.5q18 86 -28 145.5t-132 59.5q-43 0 -84 -16.5t-74.5 -44t-58.5 -64.5t-33 -80z"/>
			<glyph unicode="&#xa5;" horiz-adv-x="1431"
				   d="M133 348l41 197q4 23 24.5 39t43.5 16h243l-262 762q-10 27 7.5 49.5t43.5 22.5h261q41 0 56 -20.5t19 -31.5l148 -462l340 462q6 10 30.5 31t65.5 21h303q33 0 37 -25t-12 -47l-574 -762h246q23 0 35 -16.5t8 -38.5l-41 -197q-6 -23 -25.5 -39t-42.5 -16h-284l-47 -238 q-4 -23 -23.5 -39t-42.5 -16h-268q-23 0 -36 16.5t-9 38.5l47 238h-289q-23 0 -36 16.5t-7 38.5z"/>
			<glyph unicode="&#xa6;" horiz-adv-x="628"
				   d="M12 55l131 615q4 23 24.5 39t43.5 16h258q23 0 35 -16.5t8 -38.5l-131 -615q-4 -23 -24.5 -39t-43.5 -16h-258q-23 0 -35 16.5t-8 38.5zM219 1028l131 614q4 23 24.5 39.5t43.5 16.5h258q23 0 35 -16.5t8 -39.5l-131 -614q-4 -23 -24.5 -39t-43.5 -16h-258 q-23 0 -35 16.5t-8 38.5z"/>
			<glyph unicode="&#xa7;" horiz-adv-x="1267"
				   d="M0 16q4 23 21.5 39.5t35.5 16.5h254q23 0 34 -13.5t26.5 -29t41 -27.5t74.5 -12q41 0 78 24.5t45 61.5q6 25 -5 45t-43 41.5t-87 43t-139 50.5q-84 27 -140.5 71t-88 96t-40 109.5t4.5 112.5q20 100 72.5 159.5t142.5 115.5q-14 35 -17.5 86t6.5 98q14 74 50 137.5 t99.5 111.5t157 74.5t224.5 26.5q123 0 211 -31.5t143.5 -78t79 -99.5t16.5 -94q-4 -23 -21 -39t-36 -16h-254q-23 0 -34 12t-26.5 27.5t-41 29t-74.5 13.5q-41 0 -78 -25t-45 -61q-6 -25 5.5 -45.5t43 -42t87 -44t139.5 -49.5q84 -29 140 -71.5t88 -95t40 -110t-4 -112.5 q-10 -51 -28.5 -90t-45.5 -70.5t-62.5 -59.5t-80.5 -54q14 -35 18 -86t-6 -99q-16 -74 -51 -137t-98.5 -111t-156.5 -75t-224 -27q-123 0 -211 32t-143.5 78t-79 99t-17.5 94zM432 596q6 -18 29.5 -36.5t65.5 -37t110 -39.5q25 -10 51.5 -19t54.5 -20q33 16 55.5 38t28.5 48 q4 23 -2 41.5t-28.5 37t-65.5 36t-110 39.5q-25 8 -51.5 17.5t-53.5 21.5q-35 -18 -57.5 -38.5t-26.5 -47.5q-6 -23 0 -41z"/>
			<glyph unicode="&#xa8;" horiz-adv-x="886"
				   d="M63 1274l43 207q4 23 25 39t43 16h207q23 0 35 -16.5t8 -38.5l-43 -207q-4 -23 -24.5 -39t-43.5 -16h-207q-23 0 -35 16t-8 39zM524 1274l43 207q4 23 24.5 39t43.5 16h207q23 0 35 -16.5t8 -38.5l-43 -207q-4 -23 -24.5 -39t-43.5 -16h-207q-23 0 -35 16t-8 39z"/>
			<glyph unicode="&#xa9;" horiz-adv-x="1654"
				   d="M115.5 446q-31.5 137 1.5 291t111.5 285t193.5 227.5t259 150.5t304 54q154 0 277.5 -61.5t205.5 -165t115 -240.5t0 -291t-112.5 -284.5t-194.5 -227t-259.5 -150.5t-303.5 -54q-154 0 -278 61t-206 164.5t-113.5 240.5zM303 501.5q21 -100.5 78 -176t147 -118.5 t205 -43t222.5 43t196.5 118.5t152.5 176t88.5 215.5t4 215t-78 176t-147.5 119t-204.5 43q-115 0 -222.5 -43t-196.5 -119t-152.5 -176t-88.5 -215t-4 -215.5zM471 649q4 31 12.5 70t16.5 69q18 74 58 133.5t95.5 102.5t125 66.5t149.5 23.5q84 0 145.5 -26.5t98 -66.5 t52 -85t7.5 -82q-10 -45 -55 -45h-164q-25 0 -32 15.5t-11 27.5q-10 31 -32.5 45t-51.5 14q-55 0 -85 -31.5t-46 -91.5q-8 -31 -16.5 -69.5t-12.5 -69.5q-10 -59 6.5 -91t71.5 -32q29 0 57.5 14.5t50.5 45.5q10 12 24.5 27.5t39.5 15.5h164q45 0 35 -45q-8 -37 -42 -82 t-88.5 -85t-127 -66.5t-156.5 -26.5q-160 0 -238 89t-51 236z"/>
			<glyph unicode="&#xaa;" horiz-adv-x="727"
				   d="M158 1042q16 82 97 126t204 65l92 14q4 16 -1 34.5t-44 18.5q-16 0 -27.5 -5t-22 -11t-22.5 -11t-28 -5h-109q-20 0 -31.5 7t-5.5 28q4 14 20.5 38.5t47 47t77 39t113.5 16.5q141 0 200.5 -61.5t37.5 -159.5l-62 -289q-4 -20 -18 -32.5t-35 -12.5h-111q-43 0 -36 45l4 14 q-23 -29 -64 -49t-96 -20q-90 0 -143.5 44t-36.5 119zM371 1053q-4 -12 5 -21.5t34 -9.5q49 0 77.5 30.5t34.5 59.5l2 12l-57 -12q-53 -10 -72.5 -24.5t-23.5 -34.5z"/>
			<glyph unicode="&#xab;" horiz-adv-x="1277"
				   d="M63 606l29 135q4 18 15.5 32.5t25.5 25.5l512 411q23 18 48.5 6t19.5 -40l-60 -275q-6 -35 -18 -53.5t-37 -38.5l-209 -166l135 -166q16 -20 20.5 -38.5t-3.5 -53.5l-45 -219q-6 -33 -34 -41t-46 14l-336 410q-23 25 -17 57zM637 606l29 135q4 18 15 32.5t26 25.5 l512 411q23 18 48 6t19 -40l-59 -275q-6 -35 -18.5 -53.5t-37.5 -38.5l-208 -166l135 -166q16 -20 20 -38.5t-4 -53.5l-45 -219q-6 -33 -33.5 -41t-46.5 14l-336 410q-23 25 -16 57z"/>
			<glyph unicode="&#xac;" horiz-adv-x="1177"
				   d="M76 455l43 207q4 23 24.5 39t42.5 16h830q23 0 35 -16.5t8 -38.5l-96 -457q-4 -23 -24.5 -39t-43.5 -16h-258q-23 0 -35 16t-8 39l41 194h-516q-23 0 -36 16.5t-7 39.5z"/>
			<glyph unicode="&#xad;" horiz-adv-x="985"
				   d="M94 512l43 207q4 23 24.5 39t43.5 16h645q23 0 35 -16.5t8 -38.5l-43 -207q-4 -23 -24.5 -39t-43.5 -16h-645q-23 0 -35 16t-8 39z"/>
			<glyph unicode="&#xae;" horiz-adv-x="1654"
				   d="M115.5 446q-31.5 137 1.5 291t111.5 285t193.5 227.5t259 150.5t304 54q154 0 277.5 -61.5t205.5 -165t115 -240.5t0 -291t-112.5 -284.5t-194.5 -227t-259.5 -150.5t-303.5 -54q-154 0 -278 61t-206 164.5t-113.5 240.5zM303 501.5q21 -100.5 78 -176t147 -118.5 t205 -43t222.5 43t196.5 118.5t152.5 176t88.5 215.5t4 215t-78 176t-147.5 119t-204.5 43q-115 0 -222.5 -43t-196.5 -119t-152.5 -176t-88.5 -215t-4 -215.5zM463 389l139 660q10 45 55 45h306q74 0 124 -23.5t78.5 -61.5t35.5 -86.5t-3 -99.5q-14 -66 -57 -126t-103 -83 l58 -196q8 -25 -6.5 -49.5t-47.5 -24.5h-131q-39 0 -51 39l-53 195h-62l-38 -189q-10 -45 -56 -45h-153q-45 0 -35 45zM786 770h76q41 0 64.5 19.5t31.5 50.5q6 31 -9 51t-56 20h-76z"/>
			<glyph unicode="&#xaf;" horiz-adv-x="804"
				   d="M63 1274l37 176q4 23 24.5 39t43.5 16h592q23 0 35 -16t8 -39l-37 -176q-4 -23 -24.5 -39t-43.5 -16h-592q-23 0 -35 16t-8 39z"/>
			<glyph unicode="&#xb0;" horiz-adv-x="862"
				   d="M162 1104q16 76 55 140.5t95.5 111.5t126 72.5t147.5 25.5q76 0 141.5 -28.5t108.5 -80t61 -119t2 -143.5q-16 -78 -55 -141t-95.5 -110.5t-127 -73t-146.5 -25.5q-78 0 -142.5 29t-107.5 80t-61 117.5t-2 144.5zM375 1094q-16 -70 18.5 -113t104.5 -43t121 43t67 113 t-18.5 112.5t-104.5 42.5t-121 -42.5t-67 -112.5z"/>
			<glyph unicode="&#xb1;" horiz-adv-x="1175"
				   d="M18 55l45 207q4 23 23.5 39t42.5 16h797q23 0 36 -16t9 -39l-45 -207q-4 -23 -23.5 -39t-42.5 -16h-797q-23 0 -36 16.5t-9 38.5zM133 784l43 207q6 23 25.5 39.5t42.5 16.5h260l57 270q4 23 24.5 39t43.5 16h252q23 0 35 -16.5t8 -38.5l-58 -270h256q23 0 35 -16.5 t8 -39.5l-43 -207q-4 -23 -24.5 -39t-42.5 -16h-256l-60 -283q-4 -23 -24.5 -39t-42.5 -16h-252q-23 0 -35 16.5t-8 38.5l59 283h-260q-23 0 -35 16.5t-8 38.5z"/>
			<glyph unicode="&#xb2;" horiz-adv-x="731"
				   d="M88 758l18 92q4 16 17.5 29.5t48.5 35.5q106 68 174.5 111t109.5 72.5t58.5 50t23.5 45.5q6 29 -8 42t-31 13q-31 0 -57 -37q-16 -23 -31.5 -29.5t-31.5 -6.5h-146q-41 0 -28 39q27 94 103.5 161.5t211.5 67.5q61 0 113.5 -17.5t88 -50t51 -77t5.5 -95.5 q-10 -47 -26.5 -81.5t-46 -67.5t-75 -67t-110.5 -77h166q45 0 35 -45l-23 -104q-10 -45 -55 -45h-520q-45 0 -35 41z"/>
			<glyph unicode="&#xb3;" horiz-adv-x="733"
				   d="M104 899q4 20 18.5 29.5t24.5 9.5h174q18 0 29.5 -6t21 -12.5t21.5 -12.5t35 -6q29 0 51 8.5t31 42.5q6 29 -12.5 40.5t-47.5 11.5h-112q-45 0 -35 45l10 47q4 23 31 45l131 98h-209q-20 0 -30.5 12.5t-6.5 32.5l23 105q10 45 55 45h461q45 0 34 -45l-18 -91 q-4 -20 -13 -29t-28 -26l-108 -88q68 -35 98.5 -88t11.5 -125q-29 -104 -109.5 -169.5t-228.5 -65.5q-68 0 -125 18t-98 47t-62.5 62.5t-17.5 64.5z"/>
			<glyph unicode="&#xb4;" horiz-adv-x="727"
				   d="M62 1239.5q-3 20.5 14 34.5l241 233q29 29 45.5 34t38.5 5h293q29 0 32 -25.5t-17 -39.5l-324 -228q-20 -14 -39.5 -24t-52.5 -10h-201q-27 0 -30 20.5z"/>
			<glyph unicode="&#xb5;" horiz-adv-x="1343"
				   d="M-78 -354l164 776l6 24l115 543l2 6l2 15q4 23 24.5 39t43.5 16h258q23 0 35 -16.5t8 -38.5l-113 -537q-16 -80 7.5 -128t111.5 -48q92 0 155.5 53t83.5 142l109 518q4 23 24.5 39t42.5 16h259q23 0 35 -16.5t8 -38.5l-203 -955q-4 -23 -23.5 -39t-42.5 -16h-248 q-23 0 -36 16.5t-9 38.5l11 47q-43 -43 -118 -82.5t-198 -39.5q-20 0 -37.5 1t-36.5 3l-71 -338q-4 -23 -24.5 -39.5t-43.5 -16.5h-258q-23 0 -35 16.5t-8 39.5z"/>
			<glyph unicode="&#xb6;" horiz-adv-x="1275"
				   d="M149 886.5q-15 71.5 1 153.5q18 82 64 154t110.5 125t142.5 84t160 31h626q23 0 36.5 -16.5t8.5 -39.5l-325 -1528q-4 -23 -24.5 -39t-43.5 -16h-149q-23 0 -35 16.5t-8 38.5l284 1344h-161l-285 -1344q-4 -23 -24.5 -39t-43.5 -16h-149q-23 0 -35 16.5t-8 38.5l170 797 q-82 0 -146.5 31t-107.5 84t-58 124.5z"/>
			<glyph unicode="&#xb7;" horiz-adv-x="681"
				   d="M73 511q-11 48 1 103t44 103.5t75 85.5t96 57.5t108 20.5t99.5 -20.5t73 -57.5t38.5 -85t-2 -104q-12 -55 -43 -103t-74 -85t-96 -57.5t-108 -20.5t-99.5 20.5t-73 57.5t-39.5 85z"/>
			<glyph unicode="&#xb8;" horiz-adv-x="520"
				   d="M65.5 -379.5q-10.5 17.5 12.5 33.5l43 33q20 14 30.5 14t21.5 -6t25.5 -13.5t41.5 -7.5q29 0 50 12.5t27 43.5q6 29 -9 42t-46 13q-14 0 -30.5 -4t-32 -7t-27.5 -2t-20 11l-29 43q-8 16 -11 30.5t13 37.5l113 161h133l-115 -166q14 8 35.5 14.5t44.5 6.5q63 0 98 -56.5 t19 -129.5q-16 -74 -63.5 -124.5t-156.5 -50.5q-33 0 -69.5 10.5t-62 27t-36 34z"/>
			<glyph unicode="&#xb9;" horiz-adv-x="577"
				   d="M144 1193.5q7 18.5 26 31.5l301 194q23 14 51 15h102q45 0 35 -45l-133 -627q-10 -45 -55 -45h-148q-45 0 -35 45l72 332l-82 -54q-16 -10 -32.5 -10t-26.5 17l-72 114q-10 14 -3 32.5z"/>
			<glyph unicode="&#xba;" horiz-adv-x="718"
				   d="M174 1106q2 16 11.5 55t13.5 56q29 111 112.5 169t200.5 58q51 0 101.5 -14.5t88 -44t58 -71.5t12.5 -97q-2 -16 -11 -55.5t-13 -55.5q-29 -111 -108 -169t-206 -58q-55 0 -106.5 14t-88 44t-55 72t-10.5 97zM403 1116q-8 -51 4.5 -66.5t38.5 -15.5q27 0 44.5 15.5 t31.5 66.5q4 16 11.5 45t9.5 45q6 47 -5 64.5t-38 17.5t-45.5 -17.5t-30.5 -64.5q-4 -16 -11 -44.5t-10 -45.5z"/>
			<glyph unicode="&#xbb;" horiz-adv-x="1284"
				   d="M20 170l60 274q6 35 18.5 53.5t36.5 39.5l209 165l-135 166q-16 20 -20.5 39t4.5 54l45 219q6 33 33.5 41t45.5 -15l336 -409q23 -25 17 -58l-29 -135q-4 -18 -15.5 -32.5t-25.5 -24.5l-512 -412q-23 -18 -48.5 -6t-19.5 41zM594 170l59 274q6 35 18.5 53.5t37.5 39.5 l209 165l-136 166q-16 20 -20 39t4 54l45 219q6 33 33.5 41t46.5 -15l336 -409q23 -25 16 -58l-29 -135q-4 -18 -15 -32.5t-25 -24.5l-512 -412q-23 -18 -48.5 -6t-19.5 41z"/>
			<glyph unicode="&#xbc;" horiz-adv-x="1705"
				   d="M63 21.5q-9 21.5 11 41.5l1294 1332q18 18 36 28.5t46 10.5h152q31 0 40 -21.5t-11 -42.5l-1295 -1331q-18 -18 -35.5 -28.5t-46.5 -10.5h-151q-31 0 -40 21.5zM179 1193.5q7 18.5 26 31.5l301 194q23 14 51 15h102q45 0 35 -45l-133 -627q-10 -45 -55 -45h-148 q-45 0 -35 45l72 332l-82 -54q-16 -10 -32.5 -10t-26.5 17l-72 114q-10 14 -3 32.5zM803 162l23 102q0 4 7 20.5t29 40.5l351 355q20 23 37.5 30t31.5 7h221q45 0 35 -45l-76 -361h72q45 0 35 -45l-23 -104q-10 -45 -55 -45h-72l-14 -72q-10 -45 -55 -45h-148q-45 0 -34 45 l14 72h-344q-41 0 -35 45zM1102 311h127l35 164z"/>
			<glyph unicode="&#xbd;" horiz-adv-x="1701"
				   d="M63 21.5q-9 21.5 11 41.5l1294 1332q18 18 36 28.5t46 10.5h152q31 0 40 -21.5t-11 -42.5l-1295 -1331q-18 -18 -35.5 -28.5t-46.5 -10.5h-151q-31 0 -40 21.5zM179 1193.5q7 18.5 26 31.5l301 194q23 14 51 15h102q45 0 35 -45l-133 -627q-10 -45 -55 -45h-148 q-45 0 -35 45l72 332l-82 -54q-16 -10 -32.5 -10t-26.5 17l-72 114q-10 14 -3 32.5zM895 41l18 92q4 16 17.5 29.5t48.5 35.5q106 68 174.5 111t109.5 72.5t58.5 50t23.5 45.5q6 29 -8 42t-31 13q-31 0 -57 -37q-16 -23 -31.5 -29.5t-31.5 -6.5h-146q-41 0 -28 39 q27 94 103.5 161.5t211.5 67.5q61 0 113.5 -17.5t88 -50t51 -77t5.5 -95.5q-10 -47 -26.5 -81.5t-46 -67.5t-75 -67t-110.5 -77h166q45 0 35 -45l-23 -104q-10 -45 -55 -45h-520q-45 0 -35 41z"/>
			<glyph unicode="&#xbe;" horiz-adv-x="1767"
				   d="M121 899q4 20 18.5 29.5t24.5 9.5h174q18 0 29.5 -6t21 -12.5t21.5 -12.5t35 -6q29 0 51 8.5t31 42.5q6 29 -12.5 40.5t-47.5 11.5h-112q-45 0 -35 45l10 47q4 23 31 45l131 98h-209q-20 0 -30.5 12.5t-6.5 32.5l23 105q10 45 55 45h461q45 0 34 -45l-18 -91 q-4 -20 -13 -29t-28 -26l-108 -88q68 -35 98.5 -88t11.5 -125q-29 -104 -109.5 -169.5t-228.5 -65.5q-68 0 -125 18t-98 47t-62.5 62.5t-17.5 64.5zM130 21.5q-9 21.5 11 41.5l1294 1332q18 18 36 28.5t46 10.5h152q31 0 40 -21.5t-11 -42.5l-1295 -1331 q-18 -18 -35.5 -28.5t-46.5 -10.5h-151q-31 0 -40 21.5zM870 162l23 102q0 4 7 20.5t29 40.5l351 355q20 23 37.5 30t31.5 7h221q45 0 35 -45l-76 -361h72q45 0 35 -45l-23 -104q-10 -45 -55 -45h-72l-14 -72q-10 -45 -55 -45h-148q-45 0 -34 45l14 72h-344q-41 0 -35 45z M1169 311h127l35 164z"/>
			<glyph unicode="&#xbf;" horiz-adv-x="1226"
				   d="M-66 33q16 74 52 129t84.5 100t101.5 81t102 71t90 72.5t64 82.5q10 23 27.5 39.5t39.5 16.5h250q23 0 35 -16.5t8 -39.5q-14 -68 -53 -121t-89 -97t-105.5 -80.5t-104.5 -70.5t-84 -69t-43 -76q-12 -59 26 -93t132 -34q92 0 137 28t70.5 60.5t44 60t57.5 27.5h250 q18 0 28.5 -12t6.5 -33q-14 -72 -60.5 -150.5t-125.5 -145t-191 -109.5t-264 -43q-100 0 -195.5 31.5t-166 88t-106.5 133.5t-18 169zM473 803l45 207q4 23 23.5 39t42.5 16h258q23 0 36 -16.5t9 -38.5l-45 -207q-4 -23 -23.5 -39t-42.5 -16h-258q-23 0 -36 16t-9 39z"/>
			<glyph unicode="&#xc0;" horiz-adv-x="1482"
				   d="M-98 20.5q-6 20.5 12 55.5l721 1290q12 23 38.5 45.5t67.5 22.5h351q41 0 57 -22.5t20 -45.5l172 -1290q10 -76 -51 -76h-248q-41 0 -54 17.5t-15 33.5l-23 170h-544l-93 -170q-8 -16 -28.5 -33.5t-61.5 -17.5h-286q-29 0 -35 20.5zM548 1837q13 27 37 27h297 q23 0 37.5 -6.5t30.5 -32.5l139 -230q12 -20 0 -39.5t-35 -19.5h-200q-33 0 -48.5 10t-29.5 25l-223 221q-18 18 -5 45zM580 539h331l-61 491z"/>
			<glyph unicode="&#xc1;" horiz-adv-x="1482"
				   d="M-98 20.5q-6 20.5 12 55.5l721 1290q12 23 38.5 45.5t67.5 22.5h351q41 0 57 -22.5t20 -45.5l172 -1290q10 -76 -51 -76h-248q-41 0 -54 17.5t-15 33.5l-23 170h-544l-93 -170q-8 -16 -28.5 -33.5t-61.5 -17.5h-286q-29 0 -35 20.5zM580 539h331l-61 491zM785 1555.5 q-5 19.5 12 33.5l243 236q29 27 45.5 33t38.5 6h314q29 0 32 -26t-18 -40l-324 -227q-20 -14 -40.5 -24.5t-53.5 -10.5h-217q-27 0 -32 19.5z"/>
			<glyph unicode="&#xc2;" horiz-adv-x="1482"
				   d="M-98 20.5q-6 20.5 12 55.5l721 1290q12 23 38.5 45.5t67.5 22.5h351q41 0 57 -22.5t20 -45.5l172 -1290q10 -76 -51 -76h-248q-41 0 -54 17.5t-15 33.5l-23 170h-544l-93 -170q-8 -16 -28.5 -33.5t-61.5 -17.5h-286q-29 0 -35 20.5zM520 1556.5q-2 20.5 13 32.5l264 236 q25 23 43 31t41 8h199q23 0 37 -8.5t30 -30.5l160 -230q12 -20 0 -39.5t-35 -19.5h-115q-20 0 -31.5 6t-27.5 17l-143 88l-179 -88q-20 -10 -34.5 -16.5t-34.5 -6.5h-158q-27 0 -29 20.5zM580 539h331l-61 491z"/>
			<glyph unicode="&#xc3;" horiz-adv-x="1482"
				   d="M-98 20.5q-6 20.5 12 55.5l721 1290q12 23 38.5 45.5t67.5 22.5h351q41 0 57 -22.5t20 -45.5l172 -1290q10 -76 -51 -76h-248q-41 0 -54 17.5t-15 33.5l-23 170h-544l-93 -170q-8 -16 -28.5 -33.5t-61.5 -17.5h-286q-29 0 -35 20.5zM542 1575q10 45 34 95t61 90t86 66.5 t108 26.5q63 0 101.5 -14t65 -31.5t49 -32t55.5 -14.5q25 0 40 12.5t27 28t23.5 28.5t27.5 13h156q18 0 26.5 -11t4.5 -28q-10 -47 -37 -96t-66 -89t-87 -66.5t-99 -26.5q-63 0 -101 14t-65 31.5t-50.5 32t-55.5 14.5q-25 0 -40.5 -13.5t-26.5 -28.5t-22.5 -27.5 t-27.5 -12.5h-156q-18 0 -26.5 11.5t-4.5 27.5zM580 539h331l-61 491z"/>
			<glyph unicode="&#xc4;" horiz-adv-x="1482"
				   d="M-98 20.5q-6 20.5 12 55.5l721 1290q12 23 38.5 45.5t67.5 22.5h351q41 0 57 -22.5t20 -45.5l172 -1290q10 -76 -51 -76h-248q-41 0 -54 17.5t-15 33.5l-23 170h-544l-93 -170q-8 -16 -28.5 -33.5t-61.5 -17.5h-286q-29 0 -35 20.5zM528 1591l43 207q4 23 25 39t43 16 h207q23 0 35 -16t8 -39l-43 -207q-4 -23 -24.5 -39t-43.5 -16h-207q-23 0 -36 16.5t-7 38.5zM580 539h331l-61 491zM1051 1591l43 207q4 23 24.5 39t42.5 16h207q23 0 35 -16t8 -39l-43 -207q-4 -23 -24.5 -39t-42.5 -16h-207q-23 0 -36 16.5t-7 38.5z"/>
			<glyph unicode="&#xc5;" horiz-adv-x="1482"
				   d="M-98 20.5q-6 20.5 12 55.5l721 1290q12 23 38.5 45.5t67.5 22.5h351q41 0 57 -22.5t20 -45.5l172 -1290q10 -76 -51 -76h-248q-41 0 -54 17.5t-15 33.5l-23 170h-544l-93 -170q-8 -16 -28.5 -33.5t-61.5 -17.5h-286q-29 0 -35 20.5zM580 539h331l-61 491zM779 1704 q16 80 78.5 130t142.5 50q39 0 72.5 -14.5t57 -40t33 -60t1.5 -73.5q-16 -80 -79 -130t-143 -50q-41 0 -73.5 14t-56 39.5t-32.5 59.5t-1 75zM910 1700q-6 -27 8 -44.5t41 -17.5t47 17.5t26 44.5t-8 44t-41 17t-47 -17t-26 -44z"/>
			<glyph unicode="&#xc6;" horiz-adv-x="2080"
				   d="M-111 55q2 10 15 25l848 1286q16 23 40.5 45.5t65.5 22.5h1235q23 0 36 -16.5t9 -39.5l-47 -217q-4 -23 -24.5 -39t-43.5 -16h-630l-47 -221h585q23 0 36 -16.5t9 -39.5l-47 -217q-4 -23 -24.5 -39t-42.5 -16h-586l-47 -229h647q23 0 35 -16.5t8 -39.5l-47 -217 q-4 -23 -23.5 -39t-42.5 -16h-970q-23 0 -36.5 16.5t-8.5 38.5l34 166h-428l-110 -170q-12 -16 -34 -33.5t-56 -17.5h-263q-23 0 -36 16.5t-9 38.5zM606 539h287l121 567h-35z"/>
			<glyph unicode="&#xc7;" horiz-adv-x="1439"
				   d="M82 535q12 84 33.5 180t44.5 184q29 113 86 214t146 177t213 120t288 44q119 0 228.5 -40t188.5 -107.5t117.5 -159.5t18.5 -197q-4 -18 -20.5 -31.5t-34.5 -13.5h-269q-35 0 -43 13.5t-12 46.5q-4 25 -13.5 53.5t-33 52t-65.5 39.5t-111 16q-70 0 -121 -19.5t-88 -52 t-60.5 -75.5t-37.5 -90q-8 -27 -19.5 -74t-23 -97t-19.5 -98.5t-12 -74.5q-6 -47 -1 -90t28.5 -76t66.5 -52.5t113 -19.5t118 16.5t81.5 40t55 52t36.5 53.5q18 33 32.5 46t48.5 13h269q18 0 29.5 -13t7.5 -32q-25 -104 -85.5 -196t-152.5 -160t-216 -107.5t-273 -39.5h-5 l-61 -91q14 8 35.5 14.5t44.5 6.5q63 0 98 -56.5t19 -129.5q-16 -74 -63.5 -124.5t-156.5 -50.5q-33 0 -69.5 10.5t-62 27t-36 34t12.5 33.5l43 33q20 14 30.5 14t21.5 -6t25.5 -13.5t41.5 -7.5q29 0 50 12.5t27 43.5q6 29 -9 42t-46 13q-14 0 -30.5 -4t-32 -7t-27.5 -2 t-20 11l-29 43q-8 16 -11 30.5t13 37.5l68 98q-104 20 -187.5 70.5t-138.5 122t-77.5 161.5t-6.5 189z"/>
			<glyph unicode="&#xc8;" horiz-adv-x="1314"
				   d="M25 55l282 1323q4 23 23.5 39.5t42.5 16.5h954q23 0 36 -16.5t9 -39.5l-47 -217q-4 -23 -24.5 -39t-43.5 -16h-630l-47 -221h585q23 0 36 -16.5t9 -39.5l-47 -217q-4 -23 -24.5 -39t-42.5 -16h-586l-47 -229h647q23 0 35 -16.5t8 -39.5l-47 -217q-4 -23 -23.5 -39 t-42.5 -16h-970q-23 0 -36.5 16.5t-8.5 38.5zM497 1837q13 27 37 27h297q23 0 37.5 -6.5t30.5 -32.5l139 -230q12 -20 0 -39.5t-35 -19.5h-200q-33 0 -48.5 10t-29.5 25l-223 221q-18 18 -5 45z"/>
			<glyph unicode="&#xc9;" horiz-adv-x="1314"
				   d="M25 55l282 1323q4 23 23.5 39.5t42.5 16.5h954q23 0 36 -16.5t9 -39.5l-47 -217q-4 -23 -24.5 -39t-43.5 -16h-630l-47 -221h585q23 0 36 -16.5t9 -39.5l-47 -217q-4 -23 -24.5 -39t-42.5 -16h-586l-47 -229h647q23 0 35 -16.5t8 -39.5l-47 -217q-4 -23 -23.5 -39 t-42.5 -16h-970q-23 0 -36.5 16.5t-8.5 38.5zM697 1555.5q-5 19.5 12 33.5l243 236q29 27 45.5 33t38.5 6h314q29 0 32 -26t-18 -40l-324 -227q-20 -14 -40.5 -24.5t-53.5 -10.5h-217q-27 0 -32 19.5z"/>
			<glyph unicode="&#xca;" horiz-adv-x="1314"
				   d="M25 55l282 1323q4 23 23.5 39.5t42.5 16.5h954q23 0 36 -16.5t9 -39.5l-47 -217q-4 -23 -24.5 -39t-43.5 -16h-630l-47 -221h585q23 0 36 -16.5t9 -39.5l-47 -217q-4 -23 -24.5 -39t-42.5 -16h-586l-47 -229h647q23 0 35 -16.5t8 -39.5l-47 -217q-4 -23 -23.5 -39 t-42.5 -16h-970q-23 0 -36.5 16.5t-8.5 38.5zM452 1556.5q-2 20.5 13 32.5l264 236q25 23 43 31t41 8h199q23 0 37 -8.5t30 -30.5l160 -230q12 -20 0 -39.5t-35 -19.5h-115q-20 0 -31.5 6t-27.5 17l-143 88l-179 -88q-20 -10 -34.5 -16.5t-34.5 -6.5h-158q-27 0 -29 20.5z "/>
			<glyph unicode="&#xcb;" horiz-adv-x="1314"
				   d="M25 55l282 1323q4 23 23.5 39.5t42.5 16.5h954q23 0 36 -16.5t9 -39.5l-47 -217q-4 -23 -24.5 -39t-43.5 -16h-630l-47 -221h585q23 0 36 -16.5t9 -39.5l-47 -217q-4 -23 -24.5 -39t-42.5 -16h-586l-47 -229h647q23 0 35 -16.5t8 -39.5l-47 -217q-4 -23 -23.5 -39 t-42.5 -16h-970q-23 0 -36.5 16.5t-8.5 38.5zM466 1591l43 207q4 23 25 39t43 16h207q23 0 35 -16t8 -39l-43 -207q-4 -23 -24.5 -39t-43.5 -16h-207q-23 0 -36 16.5t-7 38.5zM989 1591l43 207q4 23 24.5 39t42.5 16h207q23 0 35 -16t8 -39l-43 -207q-4 -23 -24.5 -39 t-42.5 -16h-207q-23 0 -36 16.5t-7 38.5z"/>
			<glyph unicode="&#xcc;" horiz-adv-x="665"
				   d="M25 55l282 1323q4 23 23.5 39.5t42.5 16.5h268q23 0 36 -16.5t9 -39.5l-283 -1323q-4 -23 -23.5 -39t-41.5 -16h-268q-23 0 -36.5 16.5t-8.5 38.5zM147 1837q13 27 37 27h297q23 0 37.5 -6.5t30.5 -32.5l139 -230q12 -20 0 -39.5t-35 -19.5h-200q-33 0 -48.5 10t-29.5 25 l-223 221q-18 18 -5 45z"/>
			<glyph unicode="&#xcd;" horiz-adv-x="665"
				   d="M25 55l282 1323q4 23 23.5 39.5t42.5 16.5h268q23 0 36 -16.5t9 -39.5l-283 -1323q-4 -23 -23.5 -39t-41.5 -16h-268q-23 0 -36.5 16.5t-8.5 38.5zM375 1555.5q-5 19.5 12 33.5l243 236q29 27 45.5 33t38.5 6h314q29 0 32 -26t-18 -40l-324 -227q-20 -14 -40.5 -24.5 t-53.5 -10.5h-217q-27 0 -32 19.5z"/>
			<glyph unicode="&#xce;" horiz-adv-x="665"
				   d="M25 55l282 1323q4 23 23.5 39.5t42.5 16.5h268q23 0 36 -16.5t9 -39.5l-283 -1323q-4 -23 -23.5 -39t-41.5 -16h-268q-23 0 -36.5 16.5t-8.5 38.5zM120 1556.5q-2 20.5 13 32.5l264 236q25 23 43 31t41 8h199q23 0 37 -8.5t30 -30.5l160 -230q12 -20 0 -39.5t-35 -19.5 h-115q-20 0 -31.5 6t-27.5 17l-143 88l-179 -88q-20 -10 -34.5 -16.5t-34.5 -6.5h-158q-27 0 -29 20.5z"/>
			<glyph unicode="&#xcf;" horiz-adv-x="665"
				   d="M25 55l282 1323q4 23 23.5 39.5t42.5 16.5h268q23 0 36 -16.5t9 -39.5l-283 -1323q-4 -23 -23.5 -39t-41.5 -16h-268q-23 0 -36.5 16.5t-8.5 38.5zM120 1591l43 207q4 23 25 39t43 16h207q23 0 35 -16t8 -39l-43 -207q-4 -23 -24.5 -39t-43.5 -16h-207q-23 0 -36 16.5 t-7 38.5zM643 1591l43 207q4 23 24.5 39t42.5 16h207q23 0 35 -16t8 -39l-43 -207q-4 -23 -24.5 -39t-42.5 -16h-207q-23 0 -36 16.5t-7 38.5z"/>
			<glyph unicode="&#xd0;" horiz-adv-x="1546"
				   d="M47 637l37 176q4 23 24.5 39t43.5 16h108l109 510q4 23 23.5 39.5t41.5 16.5h522q125 0 234.5 -45.5t185.5 -125t111 -188t14 -233.5q-8 -43 -14 -79t-13.5 -68.5t-15.5 -67.5t-18 -76q-33 -127 -90.5 -228.5t-145.5 -173t-212 -110.5t-287 -39h-574q-23 0 -36 16.5 t-9 38.5l113 527h-109q-23 0 -36 16t-7 39zM524 328h219q258 0 318 235q20 88 34.5 155.5t30.5 151.5q37 236 -229 236h-209l-51 -238h156q23 0 35 -16t8 -39l-37 -176q-6 -23 -25.5 -39t-42.5 -16h-153z"/>
			<glyph unicode="&#xd1;" horiz-adv-x="1486"
				   d="M25 55l282 1323q4 23 23.5 39.5t42.5 16.5h172q35 0 52 -18.5t21 -29.5l363 -700l147 692q4 23 23.5 39.5t42.5 16.5h268q23 0 36 -16.5t9 -39.5l-282 -1323q-4 -23 -23.5 -39t-42.5 -16h-172q-35 0 -51 17.5t-27 33.5l-358 697l-148 -693q-4 -23 -23.5 -39t-41.5 -16 h-268q-23 0 -36.5 16.5t-8.5 38.5zM520 1575q10 45 34 95t61 90t86 66.5t108 26.5q63 0 101.5 -14t65 -31.5t49 -32t55.5 -14.5q25 0 40 12.5t27 28t23.5 28.5t27.5 13h156q18 0 26.5 -11t4.5 -28q-10 -47 -37 -96t-66 -89t-87 -66.5t-99 -26.5q-63 0 -101 14t-65 31.5 t-50.5 32t-55.5 14.5q-25 0 -40.5 -13.5t-26.5 -28.5t-22.5 -27.5t-27.5 -12.5h-156q-18 0 -26.5 11.5t-4.5 27.5z"/>
			<glyph unicode="&#xd2;" horiz-adv-x="1472"
				   d="M82 535q12 84 33.5 180t44.5 184q31 115 87 216.5t145 176t213 118.5t290 44q135 0 243.5 -44t181.5 -118.5t104.5 -176t13.5 -216.5q-14 -88 -35 -184.5t-43 -179.5q-31 -115 -88.5 -216.5t-146.5 -177t-213 -118.5t-289 -43q-135 0 -244 43t-180.5 118.5t-103.5 177 t-13 216.5zM463 545q-12 -102 35 -170t174 -68q129 0 204.5 68t106.5 170q10 37 21.5 82t21.5 92t18.5 91t12.5 79q6 51 -2 94t-34 75t-69 50t-106 18t-113.5 -18t-89.5 -50t-65.5 -75t-40.5 -94q-10 -35 -21.5 -79t-22 -91t-18.5 -92t-12 -82zM516 1837q13 27 37 27h297 q23 0 37.5 -6.5t30.5 -32.5l139 -230q12 -20 0 -39.5t-35 -19.5h-200q-33 0 -48.5 10t-29.5 25l-223 221q-18 18 -5 45z"/>
			<glyph unicode="&#xd3;" horiz-adv-x="1472"
				   d="M82 535q12 84 33.5 180t44.5 184q31 115 87 216.5t145 176t213 118.5t290 44q135 0 243.5 -44t181.5 -118.5t104.5 -176t13.5 -216.5q-14 -88 -35 -184.5t-43 -179.5q-31 -115 -88.5 -216.5t-146.5 -177t-213 -118.5t-289 -43q-135 0 -244 43t-180.5 118.5t-103.5 177 t-13 216.5zM463 545q-12 -102 35 -170t174 -68q129 0 204.5 68t106.5 170q10 37 21.5 82t21.5 92t18.5 91t12.5 79q6 51 -2 94t-34 75t-69 50t-106 18t-113.5 -18t-89.5 -50t-65.5 -75t-40.5 -94q-10 -35 -21.5 -79t-22 -91t-18.5 -92t-12 -82zM758 1555.5q-5 19.5 12 33.5 l243 236q29 27 45.5 33t38.5 6h314q29 0 32 -26t-18 -40l-324 -227q-20 -14 -40.5 -24.5t-53.5 -10.5h-217q-27 0 -32 19.5z"/>
			<glyph unicode="&#xd4;" horiz-adv-x="1472"
				   d="M82 535q12 84 33.5 180t44.5 184q31 115 87 216.5t145 176t213 118.5t290 44q135 0 243.5 -44t181.5 -118.5t104.5 -176t13.5 -216.5q-14 -88 -35 -184.5t-43 -179.5q-31 -115 -88.5 -216.5t-146.5 -177t-213 -118.5t-289 -43q-135 0 -244 43t-180.5 118.5t-103.5 177 t-13 216.5zM463 545q-12 -102 35 -170t174 -68q129 0 204.5 68t106.5 170q10 37 21.5 82t21.5 92t18.5 91t12.5 79q6 51 -2 94t-34 75t-69 50t-106 18t-113.5 -18t-89.5 -50t-65.5 -75t-40.5 -94q-10 -35 -21.5 -79t-22 -91t-18.5 -92t-12 -82zM505 1556.5q-2 20.5 13 32.5 l264 236q25 23 43 31t41 8h199q23 0 37 -8.5t30 -30.5l160 -230q12 -20 0 -39.5t-35 -19.5h-115q-20 0 -31.5 6t-27.5 17l-143 88l-179 -88q-20 -10 -34.5 -16.5t-34.5 -6.5h-158q-27 0 -29 20.5z"/>
			<glyph unicode="&#xd5;" horiz-adv-x="1472"
				   d="M82 535q12 84 33.5 180t44.5 184q31 115 87 216.5t145 176t213 118.5t290 44q135 0 243.5 -44t181.5 -118.5t104.5 -176t13.5 -216.5q-14 -88 -35 -184.5t-43 -179.5q-31 -115 -88.5 -216.5t-146.5 -177t-213 -118.5t-289 -43q-135 0 -244 43t-180.5 118.5t-103.5 177 t-13 216.5zM463 545q-12 -102 35 -170t174 -68q129 0 204.5 68t106.5 170q10 37 21.5 82t21.5 92t18.5 91t12.5 79q6 51 -2 94t-34 75t-69 50t-106 18t-113.5 -18t-89.5 -50t-65.5 -75t-40.5 -94q-10 -35 -21.5 -79t-22 -91t-18.5 -92t-12 -82zM536 1575q10 45 34 95t61 90 t86 66.5t108 26.5q63 0 101.5 -14t65 -31.5t49 -32t55.5 -14.5q25 0 40 12.5t27 28t23.5 28.5t27.5 13h156q18 0 26.5 -11t4.5 -28q-10 -47 -37 -96t-66 -89t-87 -66.5t-99 -26.5q-63 0 -101 14t-65 31.5t-50.5 32t-55.5 14.5q-25 0 -40.5 -13.5t-26.5 -28.5t-22.5 -27.5 t-27.5 -12.5h-156q-18 0 -26.5 11.5t-4.5 27.5z"/>
			<glyph unicode="&#xd6;" horiz-adv-x="1472"
				   d="M82 535q12 84 33.5 180t44.5 184q31 115 87 216.5t145 176t213 118.5t290 44q135 0 243.5 -44t181.5 -118.5t104.5 -176t13.5 -216.5q-14 -88 -35 -184.5t-43 -179.5q-31 -115 -88.5 -216.5t-146.5 -177t-213 -118.5t-289 -43q-135 0 -244 43t-180.5 118.5t-103.5 177 t-13 216.5zM463 545q-12 -102 35 -170t174 -68q129 0 204.5 68t106.5 170q10 37 21.5 82t21.5 92t18.5 91t12.5 79q6 51 -2 94t-34 75t-69 50t-106 18t-113.5 -18t-89.5 -50t-65.5 -75t-40.5 -94q-10 -35 -21.5 -79t-22 -91t-18.5 -92t-12 -82zM518 1591l43 207q4 23 25 39 t43 16h207q23 0 35 -16t8 -39l-43 -207q-4 -23 -24.5 -39t-43.5 -16h-207q-23 0 -36 16.5t-7 38.5zM1041 1591l43 207q4 23 24.5 39t42.5 16h207q23 0 35 -16t8 -39l-43 -207q-4 -23 -24.5 -39t-42.5 -16h-207q-23 0 -36 16.5t-7 38.5z"/>
			<glyph unicode="&#xd7;" horiz-adv-x="1265"
				   d="M45 405.5q4 22.5 27 38.5l325 263l-198 249q-14 16 -10 39t26 39l191 160q18 16 40.5 16t36.5 -16l199 -250l319 256q23 16 44.5 16.5t33.5 -16.5l160 -201q12 -16 8 -38.5t-26 -38.5l-320 -256l203 -260q14 -16 9 -39t-26 -39l-190 -160q-20 -16 -41.5 -16t-36.5 16 l-203 260l-325 -262q-23 -16 -45.5 -16t-32.5 16l-158 201q-14 16 -10 38.5z"/>
			<glyph unicode="&#xd8;" horiz-adv-x="1544"
				   d="M-25 375l27 119q6 29 18.5 43t40.5 24l64 23q12 76 31 157.5t39 157.5q31 115 87 216.5t145 176t213 118.5t290 44q111 0 203 -29.5t162.5 -82t115.5 -124t59 -157.5l84 31q14 6 23 6q18 0 28.5 -12.5t6.5 -30.5l-25 -119q-10 -51 -59 -68l-64 -22q-14 -78 -32.5 -159 t-36.5 -152q-31 -115 -88.5 -216.5t-146.5 -177t-213 -118.5t-290 -43q-111 0 -203 28.5t-161.5 79.5t-115.5 123t-60 156l-82 -29q-18 -6 -25 -6q-18 0 -28.5 12t-6.5 31zM494 502q0 -86 49 -140.5t164 -54.5q129 0 204.5 68t106.5 170q10 33 19.5 72.5t19.5 82.5zM530 727 l564 201q2 86 -48.5 142t-164.5 56q-63 0 -113.5 -18t-89.5 -50t-66 -75t-41 -94q-20 -68 -41 -162z"/>
			<glyph unicode="&#xd9;" horiz-adv-x="1505"
				   d="M116.5 311.5q-30.5 108.5 0.5 249.5l174 817q4 23 23.5 39.5t41.5 16.5h269q23 0 36 -16.5t9 -39.5l-172 -809q-27 -123 18 -192.5t168 -69.5t198.5 69.5t102.5 192.5l172 809q4 23 23.5 39.5t42.5 16.5h268q23 0 36 -16.5t9 -39.5l-174 -817q-59 -285 -238.5 -433 t-488.5 -148q-125 0 -232.5 37.5t-181.5 111.5t-104.5 182.5zM550 1837q13 27 37 27h297q23 0 37.5 -6.5t30.5 -32.5l139 -230q12 -20 0 -39.5t-35 -19.5h-200q-33 0 -48.5 10t-29.5 25l-223 221q-18 18 -5 45z"/>
			<glyph unicode="&#xda;" horiz-adv-x="1505"
				   d="M116.5 311.5q-30.5 108.5 0.5 249.5l174 817q4 23 23.5 39.5t41.5 16.5h269q23 0 36 -16.5t9 -39.5l-172 -809q-27 -123 18 -192.5t168 -69.5t198.5 69.5t102.5 192.5l172 809q4 23 23.5 39.5t42.5 16.5h268q23 0 36 -16.5t9 -39.5l-174 -817q-59 -285 -238.5 -433 t-488.5 -148q-125 0 -232.5 37.5t-181.5 111.5t-104.5 182.5zM752 1555.5q-5 19.5 12 33.5l243 236q29 27 45.5 33t38.5 6h314q29 0 32 -26t-18 -40l-324 -227q-20 -14 -40.5 -24.5t-53.5 -10.5h-217q-27 0 -32 19.5z"/>
			<glyph unicode="&#xdb;" horiz-adv-x="1505"
				   d="M116.5 311.5q-30.5 108.5 0.5 249.5l174 817q4 23 23.5 39.5t41.5 16.5h269q23 0 36 -16.5t9 -39.5l-172 -809q-27 -123 18 -192.5t168 -69.5t198.5 69.5t102.5 192.5l172 809q4 23 23.5 39.5t42.5 16.5h268q23 0 36 -16.5t9 -39.5l-174 -817q-59 -285 -238.5 -433 t-488.5 -148q-125 0 -232.5 37.5t-181.5 111.5t-104.5 182.5zM528 1556.5q-2 20.5 13 32.5l264 236q25 23 43 31t41 8h199q23 0 37 -8.5t30 -30.5l160 -230q12 -20 0 -39.5t-35 -19.5h-115q-20 0 -31.5 6t-27.5 17l-143 88l-179 -88q-20 -10 -34.5 -16.5t-34.5 -6.5h-158 q-27 0 -29 20.5z"/>
			<glyph unicode="&#xdc;" horiz-adv-x="1505"
				   d="M116.5 311.5q-30.5 108.5 0.5 249.5l174 817q4 23 23.5 39.5t41.5 16.5h269q23 0 36 -16.5t9 -39.5l-172 -809q-27 -123 18 -192.5t168 -69.5t198.5 69.5t102.5 192.5l172 809q4 23 23.5 39.5t42.5 16.5h268q23 0 36 -16.5t9 -39.5l-174 -817q-59 -285 -238.5 -433 t-488.5 -148q-125 0 -232.5 37.5t-181.5 111.5t-104.5 182.5zM530 1591l43 207q4 23 25 39t43 16h207q23 0 35 -16t8 -39l-43 -207q-4 -23 -24.5 -39t-43.5 -16h-207q-23 0 -36 16.5t-7 38.5zM1053 1591l43 207q4 23 24.5 39t42.5 16h207q23 0 35 -16t8 -39l-43 -207 q-4 -23 -24.5 -39t-42.5 -16h-207q-23 0 -36 16.5t-7 38.5z"/>
			<glyph unicode="&#xdd;" horiz-adv-x="1409"
				   d="M199 1362q-10 27 7 49.5t44 22.5h258q41 0 56.5 -20.5t19.5 -31.5l157 -497l361 497q6 10 30.5 31t65.5 21h307q33 0 37 -25t-12 -47l-658 -870l-94 -437q-4 -23 -23.5 -39t-41.5 -16h-275q-23 0 -36 16.5t-9 38.5l94 437zM697 1555.5q-5 19.5 12 33.5l243 236 q29 27 45.5 33t38.5 6h314q29 0 32 -26t-18 -40l-324 -227q-20 -14 -40.5 -24.5t-53.5 -10.5h-217q-27 0 -32 19.5z"/>
			<glyph unicode="&#xde;" horiz-adv-x="1406"
				   d="M25 59l282 1319q4 23 23.5 39.5t42.5 16.5h268q23 0 36 -16.5t9 -39.5l-39 -180h240q115 0 214 -32.5t167.5 -97t97.5 -158t4 -212.5q-27 -121 -76 -206.5t-126.5 -143t-187.5 -84t-255 -26.5h-283l-39 -183q-4 -23 -23.5 -39t-41.5 -16h-268q-23 0 -37.5 16.5t-7.5 42.5 zM510 557h252q86 0 150.5 38t82.5 124q16 86 -32 124t-134 38h-251z"/>
			<glyph unicode="&#xdf;" horiz-adv-x="1351"
				   d="M2 55l184 869q27 123 74 221t124 166.5t188.5 105.5t265.5 37q123 0 220 -37t161.5 -99.5t92 -143t9.5 -168.5q-12 -57 -31.5 -98.5t-43 -71t-49.5 -51t-52 -37.5q20 -16 42.5 -43t40 -65t23.5 -88t-6 -114q-45 -215 -188.5 -326.5t-413.5 -111.5h-115q-23 0 -36 16.5 t-9 38.5l45 207q4 23 23.5 39t42.5 16h84q78 0 136 31t75 101q16 70 -30 100.5t-124 30.5h-94q-43 0 -37 45l49 227q10 45 56 45h63q72 0 127 28.5t70 90.5q12 61 -35 91t-143 30q-94 0 -156 -44t-90 -169l-185 -869q-4 -23 -23.5 -39t-41.5 -16h-248q-23 0 -36 16.5 t-9 38.5z"/>
			<glyph unicode="&#xe0;"
				   d="M45 459q2 14 6 36.5t9.5 46t10.5 45t9 38.5q31 121 84 208t122.5 143t153.5 82.5t176 26.5q59 0 104.5 -12t78 -30.5t53 -40t31.5 -39.5l10 47q4 23 23.5 39t41.5 16h259q23 0 36 -16.5t9 -38.5l-201 -955q-4 -23 -23.5 -39t-42.5 -16h-260q-23 0 -36 16.5t-9 38.5l10 47 q-16 -25 -38.5 -47t-57.5 -39.5t-85 -26.5t-118 -9q-78 0 -150.5 29.5t-124.5 89t-76.5 149.5t-4.5 211zM373 1516q10 30 38 30h273q23 0 37 -6t30 -33l140 -229q10 -18 -0.5 -38.5t-34.5 -20.5h-180q-33 0 -48.5 10t-29.5 24l-217 215q-18 18 -8 48zM416 406.5 q4 -31.5 20.5 -56t47 -39t77.5 -14.5q45 0 80 14.5t61.5 38t44 52t27.5 59.5q12 31 20.5 71.5t10.5 71.5t-3 59.5t-21.5 52t-45 38t-73.5 14.5q-96 0 -147.5 -53t-74.5 -125q-10 -31 -15 -57.5t-9 -57.5q-4 -37 0 -68.5z"/>
			<glyph unicode="&#xe1;"
				   d="M45 459q2 14 6 36.5t9.5 46t10.5 45t9 38.5q31 121 84 208t122.5 143t153.5 82.5t176 26.5q59 0 104.5 -12t78 -30.5t53 -40t31.5 -39.5l10 47q4 23 23.5 39t41.5 16h259q23 0 36 -16.5t9 -38.5l-201 -955q-4 -23 -23.5 -39t-42.5 -16h-260q-23 0 -36 16.5t-9 38.5l10 47 q-16 -25 -38.5 -47t-57.5 -39.5t-85 -26.5t-118 -9q-78 0 -150.5 29.5t-124.5 89t-76.5 149.5t-4.5 211zM416 406.5q4 -31.5 20.5 -56t47 -39t77.5 -14.5q45 0 80 14.5t61.5 38t44 52t27.5 59.5q12 31 20.5 71.5t10.5 71.5t-3 59.5t-21.5 52t-45 38t-73.5 14.5 q-96 0 -147.5 -53t-74.5 -125q-10 -31 -15 -57.5t-9 -57.5q-4 -37 0 -68.5zM611 1239.5q-3 20.5 14 34.5l241 233q29 29 45.5 34t38.5 5h293q29 0 32 -25.5t-17 -39.5l-324 -228q-20 -14 -39.5 -24t-52.5 -10h-201q-27 0 -30 20.5z"/>
			<glyph unicode="&#xe2;"
				   d="M45 459q2 14 6 36.5t9.5 46t10.5 45t9 38.5q31 121 84 208t122.5 143t153.5 82.5t176 26.5q59 0 104.5 -12t78 -30.5t53 -40t31.5 -39.5l10 47q4 23 23.5 39t41.5 16h259q23 0 36 -16.5t9 -38.5l-201 -955q-4 -23 -23.5 -39t-42.5 -16h-260q-23 0 -36 16.5t-9 38.5l10 47 q-16 -25 -38.5 -47t-57.5 -39.5t-85 -26.5t-118 -9q-78 0 -150.5 29.5t-124.5 89t-76.5 149.5t-4.5 211zM356 1239.5q-2 20.5 13 32.5l264 235q25 23 41 31t43 8h180q23 0 37 -8t31 -31l159 -229q12 -20 0 -39.5t-34 -19.5h-105q-20 0 -31.5 6t-27.5 16l-150 90l-164 -90 q-20 -10 -34.5 -16t-34.5 -6h-158q-27 0 -29 20.5zM416 406.5q4 -31.5 20.5 -56t47 -39t77.5 -14.5q45 0 80 14.5t61.5 38t44 52t27.5 59.5q12 31 20.5 71.5t10.5 71.5t-3 59.5t-21.5 52t-45 38t-73.5 14.5q-96 0 -147.5 -53t-74.5 -125q-10 -31 -15 -57.5t-9 -57.5 q-4 -37 0 -68.5z"/>
			<glyph unicode="&#xe3;"
				   d="M45 459q2 14 6 36.5t9.5 46t10.5 45t9 38.5q31 121 84 208t122.5 143t153.5 82.5t176 26.5q59 0 104.5 -12t78 -30.5t53 -40t31.5 -39.5l10 47q4 23 23.5 39t41.5 16h259q23 0 36 -16.5t9 -38.5l-201 -955q-4 -23 -23.5 -39t-42.5 -16h-260q-23 0 -36 16.5t-9 38.5l10 47 q-16 -25 -38.5 -47t-57.5 -39.5t-85 -26.5t-118 -9q-78 0 -150.5 29.5t-124.5 89t-76.5 149.5t-4.5 211zM382 1257q10 45 34 95.5t61 90.5t86 66.5t108 26.5q61 0 95 -14.5t57.5 -31.5t44 -31.5t53.5 -14.5q25 0 40 12t27.5 27.5t24 29t27.5 13.5h156q18 0 26 -11.5t4 -27.5 q-10 -47 -36.5 -96.5t-65.5 -89t-87.5 -66.5t-99.5 -27q-61 0 -95 14.5t-58.5 32t-45 31.5t-52.5 14q-25 0 -40.5 -13t-26.5 -28.5t-22.5 -27.5t-27.5 -12h-156q-18 0 -26.5 11t-4.5 27zM416 406.5q4 -31.5 20.5 -56t47 -39t77.5 -14.5q45 0 80 14.5t61.5 38t44 52 t27.5 59.5q12 31 20.5 71.5t10.5 71.5t-3 59.5t-21.5 52t-45 38t-73.5 14.5q-96 0 -147.5 -53t-74.5 -125q-10 -31 -15 -57.5t-9 -57.5q-4 -37 0 -68.5z"/>
			<glyph unicode="&#xe4;"
				   d="M45 459q2 14 6 36.5t9.5 46t10.5 45t9 38.5q31 121 84 208t122.5 143t153.5 82.5t176 26.5q59 0 104.5 -12t78 -30.5t53 -40t31.5 -39.5l10 47q4 23 23.5 39t41.5 16h259q23 0 36 -16.5t9 -38.5l-201 -955q-4 -23 -23.5 -39t-42.5 -16h-260q-23 0 -36 16.5t-9 38.5l10 47 q-16 -25 -38.5 -47t-57.5 -39.5t-85 -26.5t-118 -9q-78 0 -150.5 29.5t-124.5 89t-76.5 149.5t-4.5 211zM382 1274l43 207q4 23 25 39t43 16h207q23 0 35 -16.5t8 -38.5l-43 -207q-4 -23 -24.5 -39t-43.5 -16h-207q-23 0 -35 16t-8 39zM416 406.5q4 -31.5 20.5 -56t47 -39 t77.5 -14.5q45 0 80 14.5t61.5 38t44 52t27.5 59.5q12 31 20.5 71.5t10.5 71.5t-3 59.5t-21.5 52t-45 38t-73.5 14.5q-96 0 -147.5 -53t-74.5 -125q-10 -31 -15 -57.5t-9 -57.5q-4 -37 0 -68.5zM843 1274l43 207q4 23 24.5 39t43.5 16h207q23 0 35 -16.5t8 -38.5l-43 -207 q-4 -23 -24.5 -39t-43.5 -16h-207q-23 0 -35 16t-8 39z"/>
			<glyph unicode="&#xe5;"
				   d="M45 459q2 14 6 36.5t9.5 46t10.5 45t9 38.5q31 121 84 208t122.5 143t153.5 82.5t176 26.5q59 0 104.5 -12t78 -30.5t53 -40t31.5 -39.5l10 47q4 23 23.5 39t41.5 16h259q23 0 36 -16.5t9 -38.5l-201 -955q-4 -23 -23.5 -39t-42.5 -16h-260q-23 0 -36 16.5t-9 38.5l10 47 q-16 -25 -38.5 -47t-57.5 -39.5t-85 -26.5t-118 -9q-78 0 -150.5 29.5t-124.5 89t-76.5 149.5t-4.5 211zM416 406.5q4 -31.5 20.5 -56t47 -39t77.5 -14.5q45 0 80 14.5t61.5 38t44 52t27.5 59.5q12 31 20.5 71.5t10.5 71.5t-3 59.5t-21.5 52t-45 38t-73.5 14.5 q-96 0 -147.5 -53t-74.5 -125q-10 -31 -15 -57.5t-9 -57.5q-4 -37 0 -68.5zM592 1397q16 80 78.5 130t142.5 50q39 0 72.5 -14.5t57 -40t33 -60.5t1.5 -73q-16 -80 -79 -130.5t-143 -50.5q-41 0 -73.5 14.5t-56 40t-32.5 59.5t-1 75zM723 1393q-6 -27 8 -44.5t41 -17.5 t47 17.5t26 44.5t-8 44t-41 17t-47 -17t-26 -44z"/>
			<glyph unicode="&#xe6;" horiz-adv-x="1900"
				   d="M-16 303q29 135 151.5 223t364.5 129l248 41q10 49 -10.5 81t-86.5 32q-47 0 -74.5 -13.5t-41.5 -23.5q-23 -16 -40.5 -20t-39.5 -4h-260q-20 0 -30.5 12t-4.5 33q14 47 53 98t105.5 94t158.5 71.5t213 28.5q102 0 181 -23.5t135 -64.5q72 43 159.5 65.5t198.5 22.5 q135 0 230.5 -50t152.5 -130t74.5 -179t-2.5 -198l-13 -57q-4 -23 -23.5 -39t-41.5 -16h-682q-10 -47 0 -78t33.5 -49.5t54.5 -25.5t61 -7q61 0 100.5 12.5t67.5 34.5q27 18 38 23.5t36 5.5h266q45 0 35 -45q-4 -25 -37 -75t-101.5 -102.5t-177 -91t-266.5 -38.5 q-127 0 -226 46t-161 132q-59 -59 -122.5 -95t-127 -54.5t-123 -23.5t-108.5 -5q-80 0 -145.5 24.5t-108.5 67.5t-60.5 102t-2.5 129zM356 326q-8 -39 14.5 -54.5t69.5 -15.5q45 0 87 15.5t77 42t58.5 62.5t31.5 77l-194 -29q-57 -10 -95 -34.5t-49 -63.5zM1106 643h369 q6 63 -30 114.5t-120 51.5q-86 0 -141.5 -51t-77.5 -115z"/>
			<glyph unicode="&#xe7;" horiz-adv-x="1230"
				   d="M43 461q6 31 16.5 82t18.5 82q53 217 212 338.5t421 121.5q147 0 242.5 -46t150.5 -108.5t75.5 -126t16.5 -95.5q-4 -23 -24.5 -39.5t-43.5 -16.5h-268q-23 0 -33 12.5t-16 28.5q-16 35 -48 54.5t-99 19.5q-82 0 -140.5 -45t-81.5 -119q-10 -31 -18 -71.5t-12 -71.5 q-10 -74 29.5 -119t121.5 -45q68 0 108 19.5t70 54.5q14 16 29.5 28.5t38.5 12.5h268q23 0 37 -16.5t6 -39.5q-10 -33 -38.5 -96t-95 -125.5t-179.5 -108.5t-291 -46h-20l-62 -91q14 8 36 14.5t44 6.5q63 0 98 -56.5t19 -129.5q-16 -74 -63.5 -124.5t-155.5 -50.5 q-33 0 -70 10.5t-62.5 27t-36 34t12.5 33.5l43 33q20 14 30.5 14t21.5 -6t25.5 -13.5t41.5 -7.5q29 0 50 12.5t28 43.5q6 29 -9.5 42t-46.5 13q-14 0 -30.5 -4t-32 -7t-27.5 -2t-20 11l-29 43q-8 16 -11 30.5t13 37.5l72 104q-78 20 -145.5 61t-114.5 100.5t-67.5 135.5 t-4.5 166z"/>
			<glyph unicode="&#xe8;" horiz-adv-x="1239"
				   d="M52.5 318.5q-23.5 105.5 4.5 234.5q25 119 76 217t131 169t188.5 108.5t249.5 37.5q135 0 230.5 -50t153 -130t75 -179t-3.5 -198l-12 -57q-4 -23 -23.5 -39t-42.5 -16h-682q-10 -47 0.5 -78t34 -49.5t54 -25.5t61.5 -7q61 0 100 12.5t68 34.5q27 18 38 23.5t35 5.5h267 q45 0 35 -45q-4 -25 -37 -75t-101.5 -102.5t-177 -91t-266.5 -38.5q-119 0 -214 41.5t-156.5 116.5t-85 180.5zM359 1516q10 30 38 30h273q23 0 37 -6t30 -33l140 -229q10 -18 -0.5 -38.5t-34.5 -20.5h-180q-33 0 -48.5 10t-29.5 24l-217 215q-18 18 -8 48zM444 643h369 q6 63 -29.5 114.5t-119.5 51.5q-86 0 -141.5 -51t-78.5 -115z"/>
			<glyph unicode="&#xe9;" horiz-adv-x="1239"
				   d="M52.5 318.5q-23.5 105.5 4.5 234.5q25 119 76 217t131 169t188.5 108.5t249.5 37.5q135 0 230.5 -50t153 -130t75 -179t-3.5 -198l-12 -57q-4 -23 -23.5 -39t-42.5 -16h-682q-10 -47 0.5 -78t34 -49.5t54 -25.5t61.5 -7q61 0 100 12.5t68 34.5q27 18 38 23.5t35 5.5h267 q45 0 35 -45q-4 -25 -37 -75t-101.5 -102.5t-177 -91t-266.5 -38.5q-119 0 -214 41.5t-156.5 116.5t-85 180.5zM444 643h369q6 63 -29.5 114.5t-119.5 51.5q-86 0 -141.5 -51t-78.5 -115zM570 1239.5q-3 20.5 14 34.5l241 233q29 29 45.5 34t38.5 5h293q29 0 32 -25.5 t-17 -39.5l-324 -228q-20 -14 -39.5 -24t-52.5 -10h-201q-27 0 -30 20.5z"/>
			<glyph unicode="&#xea;" horiz-adv-x="1239"
				   d="M52.5 318.5q-23.5 105.5 4.5 234.5q25 119 76 217t131 169t188.5 108.5t249.5 37.5q135 0 230.5 -50t153 -130t75 -179t-3.5 -198l-12 -57q-4 -23 -23.5 -39t-42.5 -16h-682q-10 -47 0.5 -78t34 -49.5t54 -25.5t61.5 -7q61 0 100 12.5t68 34.5q27 18 38 23.5t35 5.5h267 q45 0 35 -45q-4 -25 -37 -75t-101.5 -102.5t-177 -91t-266.5 -38.5q-119 0 -214 41.5t-156.5 116.5t-85 180.5zM329 1239.5q-2 20.5 13 32.5l264 235q25 23 41 31t43 8h180q23 0 37 -8t31 -31l159 -229q12 -20 0 -39.5t-34 -19.5h-105q-20 0 -31.5 6t-27.5 16l-150 90 l-164 -90q-20 -10 -34.5 -16t-34.5 -6h-158q-27 0 -29 20.5zM444 643h369q6 63 -29.5 114.5t-119.5 51.5q-86 0 -141.5 -51t-78.5 -115z"/>
			<glyph unicode="&#xeb;" horiz-adv-x="1239"
				   d="M52.5 318.5q-23.5 105.5 4.5 234.5q25 119 76 217t131 169t188.5 108.5t249.5 37.5q135 0 230.5 -50t153 -130t75 -179t-3.5 -198l-12 -57q-4 -23 -23.5 -39t-42.5 -16h-682q-10 -47 0.5 -78t34 -49.5t54 -25.5t61.5 -7q61 0 100 12.5t68 34.5q27 18 38 23.5t35 5.5h267 q45 0 35 -45q-4 -25 -37 -75t-101.5 -102.5t-177 -91t-266.5 -38.5q-119 0 -214 41.5t-156.5 116.5t-85 180.5zM354 1274l43 207q4 23 25 39t43 16h207q23 0 35 -16.5t8 -38.5l-43 -207q-4 -23 -24.5 -39t-43.5 -16h-207q-23 0 -35 16t-8 39zM444 643h369q6 63 -29.5 114.5 t-119.5 51.5q-86 0 -141.5 -51t-78.5 -115zM815 1274l43 207q4 23 24.5 39t43.5 16h207q23 0 35 -16.5t8 -38.5l-43 -207q-4 -23 -24.5 -39t-43.5 -16h-207q-23 0 -35 16t-8 39z"/>
			<glyph unicode="&#xec;" horiz-adv-x="606"
				   d="M2 55l203 955q4 23 24.5 39t42.5 16h258q23 0 35.5 -16.5t7.5 -38.5l-202 -955q-4 -23 -23.5 -39t-42.5 -16h-258q-23 0 -36 16.5t-9 38.5zM80 1516q10 30 38 30h273q23 0 37 -6t30 -33l140 -229q10 -18 -0.5 -38.5t-34.5 -20.5h-180q-33 0 -48.5 10t-29.5 24l-217 215 q-18 18 -8 48z"/>
			<glyph unicode="&#xed;" horiz-adv-x="606"
				   d="M2 55l203 955q4 23 24.5 39t42.5 16h258q23 0 35.5 -16.5t7.5 -38.5l-202 -955q-4 -23 -23.5 -39t-42.5 -16h-258q-23 0 -36 16.5t-9 38.5zM285 1239.5q-3 20.5 14 34.5l241 233q29 29 45.5 34t38.5 5h293q29 0 32 -25.5t-17 -39.5l-324 -228q-20 -14 -39.5 -24 t-52.5 -10h-201q-27 0 -30 20.5z"/>
			<glyph unicode="&#xee;" horiz-adv-x="606"
				   d="M2 55l203 955q4 23 24.5 39t42.5 16h258q23 0 35.5 -16.5t7.5 -38.5l-202 -955q-4 -23 -23.5 -39t-42.5 -16h-258q-23 0 -36 16.5t-9 38.5zM41 1239.5q-2 20.5 13 32.5l264 235q25 23 41 31t43 8h180q23 0 37 -8t31 -31l159 -229q12 -20 0 -39.5t-34 -19.5h-105 q-20 0 -31.5 6t-27.5 16l-150 90l-164 -90q-20 -10 -34.5 -16t-34.5 -6h-158q-27 0 -29 20.5z"/>
			<glyph unicode="&#xef;" horiz-adv-x="606"
				   d="M2 55l203 955q4 23 24.5 39t42.5 16h258q23 0 35.5 -16.5t7.5 -38.5l-202 -955q-4 -23 -23.5 -39t-42.5 -16h-258q-23 0 -36 16.5t-9 38.5zM55 1274l43 207q4 23 25 39t43 16h207q23 0 35 -16.5t8 -38.5l-43 -207q-4 -23 -24.5 -39t-43.5 -16h-207q-23 0 -35 16t-8 39z M516 1274l43 207q4 23 24.5 39t43.5 16h207q23 0 35 -16.5t8 -38.5l-43 -207q-4 -23 -24.5 -39t-43.5 -16h-207q-23 0 -35 16t-8 39z"/>
			<glyph unicode="&#xf0;" horiz-adv-x="1216"
				   d="M39 481q53 250 206.5 366t399.5 116q20 0 52 -2.5t53 -4.5q-10 37 -23.5 69t-30.5 62l-204 -75q-23 -8 -44.5 -5t-15.5 42l23 98q8 51 59 67l66 25l-105 109q-16 16 -21 26t-3 19q10 41 49 41h319q25 0 40 -7.5t30 -19.5l37 -43l170 63q23 10 43 3t14 -39l-20 -99 q-10 -51 -60 -67l-35 -13q41 -68 68 -145.5t36 -168.5t0 -198.5t-38 -238.5q-55 -250 -217 -365.5t-408 -115.5q-92 0 -182 31.5t-155.5 94t-97.5 156.5t-5 219zM406 471q-16 -72 6 -123t112 -51q92 0 134 51t59 123q8 37 7 68.5t-13.5 55t-40 37t-72.5 13.5q-92 0 -134 -51 t-58 -123z"/>
			<glyph unicode="&#xf1;" horiz-adv-x="1316"
				   d="M2 55l203 955q4 23 24.5 39t42.5 16h248q23 0 35 -16.5t8 -38.5l-10 -47q43 43 114.5 82.5t180.5 39.5q92 0 170 -27.5t130 -85t71.5 -145.5t-5.5 -209l-120 -563q-4 -23 -23.5 -39t-42.5 -16h-258q-23 0 -36 16.5t-9 38.5l111 518q18 88 -13.5 141.5t-124.5 53.5 q-92 0 -145 -53t-72 -142l-110 -518q-4 -23 -23.5 -39t-42.5 -16h-258q-23 0 -36 16.5t-9 38.5zM395 1257q10 45 34 95.5t61 90.5t86 66.5t108 26.5q61 0 95 -14.5t57.5 -31.5t44 -31.5t53.5 -14.5q25 0 40 12t27.5 27.5t24 29t27.5 13.5h156q18 0 26 -11.5t4 -27.5 q-10 -47 -36.5 -96.5t-65.5 -89t-87.5 -66.5t-99.5 -27q-61 0 -95 14.5t-58.5 32t-45 31.5t-52.5 14q-25 0 -40.5 -13t-26.5 -28.5t-22.5 -27.5t-27.5 -12h-156q-18 0 -26.5 11t-4.5 27z"/>
			<glyph unicode="&#xf2;" horiz-adv-x="1259"
				   d="M41 463q6 31 16.5 79t18.5 79q25 98 74 182t126.5 147.5t185 99t249.5 35.5q111 0 205 -38.5t159.5 -105.5t97 -155t13.5 -186q-4 -31 -14.5 -79t-20.5 -79q-25 -98 -72 -182t-122.5 -146.5t-184 -98t-256.5 -35.5q-111 0 -204 38.5t-159.5 105t-97 154t-14.5 185.5z M388 1516q10 30 38 30h273q23 0 37 -6t30 -33l140 -229q10 -18 -0.5 -38.5t-34.5 -20.5h-180q-33 0 -48.5 10t-29.5 24l-217 215q-18 18 -8 48zM412 463q-10 -78 29.5 -122t121.5 -44t142.5 44t82.5 122q10 31 17.5 69.5t11.5 69.5q10 78 -31 122t-122 44q-82 0 -141.5 -44 t-82.5 -122q-10 -31 -17 -69.5t-11 -69.5z"/>
			<glyph unicode="&#xf3;" horiz-adv-x="1259"
				   d="M41 463q6 31 16.5 79t18.5 79q25 98 74 182t126.5 147.5t185 99t249.5 35.5q111 0 205 -38.5t159.5 -105.5t97 -155t13.5 -186q-4 -31 -14.5 -79t-20.5 -79q-25 -98 -72 -182t-122.5 -146.5t-184 -98t-256.5 -35.5q-111 0 -204 38.5t-159.5 105t-97 154t-14.5 185.5z M412 463q-10 -78 29.5 -122t121.5 -44t142.5 44t82.5 122q10 31 17.5 69.5t11.5 69.5q10 78 -31 122t-122 44q-82 0 -141.5 -44t-82.5 -122q-10 -31 -17 -69.5t-11 -69.5zM592 1239.5q-3 20.5 14 34.5l241 233q29 29 45.5 34t38.5 5h293q29 0 32 -25.5t-17 -39.5l-324 -228 q-20 -14 -39.5 -24t-52.5 -10h-201q-27 0 -30 20.5z"/>
			<glyph unicode="&#xf4;" horiz-adv-x="1259"
				   d="M41 463q6 31 16.5 79t18.5 79q25 98 74 182t126.5 147.5t185 99t249.5 35.5q111 0 205 -38.5t159.5 -105.5t97 -155t13.5 -186q-4 -31 -14.5 -79t-20.5 -79q-25 -98 -72 -182t-122.5 -146.5t-184 -98t-256.5 -35.5q-111 0 -204 38.5t-159.5 105t-97 154t-14.5 185.5z M337 1239.5q-2 20.5 13 32.5l264 235q25 23 41 31t43 8h180q23 0 37 -8t31 -31l159 -229q12 -20 0 -39.5t-34 -19.5h-105q-20 0 -31.5 6t-27.5 16l-150 90l-164 -90q-20 -10 -34.5 -16t-34.5 -6h-158q-27 0 -29 20.5zM412 463q-10 -78 29.5 -122t121.5 -44t142.5 44 t82.5 122q10 31 17.5 69.5t11.5 69.5q10 78 -31 122t-122 44q-82 0 -141.5 -44t-82.5 -122q-10 -31 -17 -69.5t-11 -69.5z"/>
			<glyph unicode="&#xf5;" horiz-adv-x="1259"
				   d="M41 463q6 31 16.5 79t18.5 79q25 98 74 182t126.5 147.5t185 99t249.5 35.5q111 0 205 -38.5t159.5 -105.5t97 -155t13.5 -186q-4 -31 -14.5 -79t-20.5 -79q-25 -98 -72 -182t-122.5 -146.5t-184 -98t-256.5 -35.5q-111 0 -204 38.5t-159.5 105t-97 154t-14.5 185.5z M350 1257q10 45 34 95.5t61 90.5t86 66.5t108 26.5q61 0 95 -14.5t57.5 -31.5t44 -31.5t53.5 -14.5q25 0 40 12t27.5 27.5t24 29t27.5 13.5h156q18 0 26 -11.5t4 -27.5q-10 -47 -36.5 -96.5t-65.5 -89t-87.5 -66.5t-99.5 -27q-61 0 -95 14.5t-58.5 32t-45 31.5t-52.5 14 q-25 0 -40.5 -13t-26.5 -28.5t-22.5 -27.5t-27.5 -12h-156q-18 0 -26.5 11t-4.5 27zM412 463q-10 -78 29.5 -122t121.5 -44t142.5 44t82.5 122q10 31 17.5 69.5t11.5 69.5q10 78 -31 122t-122 44q-82 0 -141.5 -44t-82.5 -122q-10 -31 -17 -69.5t-11 -69.5z"/>
			<glyph unicode="&#xf6;" horiz-adv-x="1259"
				   d="M41 463q6 31 16.5 79t18.5 79q25 98 74 182t126.5 147.5t185 99t249.5 35.5q111 0 205 -38.5t159.5 -105.5t97 -155t13.5 -186q-4 -31 -14.5 -79t-20.5 -79q-25 -98 -72 -182t-122.5 -146.5t-184 -98t-256.5 -35.5q-111 0 -204 38.5t-159.5 105t-97 154t-14.5 185.5z M362 1274l43 207q4 23 25 39t43 16h207q23 0 35 -16.5t8 -38.5l-43 -207q-4 -23 -24.5 -39t-43.5 -16h-207q-23 0 -35 16t-8 39zM412 463q-10 -78 29.5 -122t121.5 -44t142.5 44t82.5 122q10 31 17.5 69.5t11.5 69.5q10 78 -31 122t-122 44q-82 0 -141.5 -44t-82.5 -122 q-10 -31 -17 -69.5t-11 -69.5zM823 1274l43 207q4 23 24.5 39t43.5 16h207q23 0 35 -16.5t8 -38.5l-43 -207q-4 -23 -24.5 -39t-43.5 -16h-207q-23 0 -35 16t-8 39z"/>
			<glyph unicode="&#xf7;" horiz-adv-x="1077"
				   d="M59 512l43 207q4 23 24.5 39t43.5 16h809q23 0 35 -16.5t8 -38.5l-43 -207q-4 -23 -24.5 -39t-43.5 -16h-809q-23 0 -35 16t-8 39zM244 84l49 233q4 23 24.5 39.5t42.5 16.5h254q23 0 35.5 -16.5t7.5 -39.5l-49 -233q-4 -23 -24.5 -39t-42.5 -16h-254q-23 0 -35 16t-8 39 zM420 911l49 234q4 23 24.5 39t43.5 16h254q23 0 35 -16.5t8 -38.5l-50 -234q-4 -23 -24.5 -39t-42.5 -16h-254q-23 0 -35 16.5t-8 38.5z"/>
			<glyph unicode="&#xf8;" horiz-adv-x="1345"
				   d="M-59 229l26 119q8 51 60 68l53 18l4 29q6 31 16.5 79t18.5 79q25 98 74 182t126.5 147.5t185 99t249.5 35.5q150 0 268.5 -70.5t173.5 -183.5l119 43q18 6 24 7q18 0 27.5 -12.5t5.5 -30.5l-24 -119q-10 -51 -60 -68l-55 -20l-4 -31q-4 -31 -14.5 -79t-20.5 -79 q-25 -98 -72 -182t-122.5 -146.5t-184 -98t-256.5 -35.5q-76 0 -144.5 18t-126 52t-101.5 81t-70 102l-119 -40q-16 -6 -23 -7q-18 0 -28 12.5t-6 30.5zM469 360q39 -63 137 -63q82 0 142 44t83 122q2 6 3.5 13t5.5 16zM483 602l361 105q-39 61 -137 61q-82 0 -141.5 -44 t-82.5 -122z"/>
			<glyph unicode="&#xf9;" horiz-adv-x="1296"
				   d="M65.5 238q-20.5 88 6.5 208l118 564q4 23 25 39t43 16h258q23 0 35 -16.5t8 -38.5l-108 -518q-20 -88 7 -141.5t117 -53.5t139.5 53t69.5 142l109 518q4 23 24.5 39t43.5 16h258q23 0 35 -16.5t8 -38.5l-203 -955q-4 -23 -23.5 -39t-42.5 -16h-237q-23 0 -36 16.5 t-9 38.5l10 47q-23 -23 -47.5 -44t-58 -38.5t-80 -28.5t-109.5 -11q-84 0 -160 27.5t-128 85t-72.5 145.5zM390 1516q10 30 38 30h273q23 0 37 -6t30 -33l140 -229q10 -18 -0.5 -38.5t-34.5 -20.5h-180q-33 0 -48.5 10t-29.5 24l-217 215q-18 18 -8 48z"/>
			<glyph unicode="&#xfa;" horiz-adv-x="1296"
				   d="M65.5 238q-20.5 88 6.5 208l118 564q4 23 25 39t43 16h258q23 0 35 -16.5t8 -38.5l-108 -518q-20 -88 7 -141.5t117 -53.5t139.5 53t69.5 142l109 518q4 23 24.5 39t43.5 16h258q23 0 35 -16.5t8 -38.5l-203 -955q-4 -23 -23.5 -39t-42.5 -16h-237q-23 0 -36 16.5 t-9 38.5l10 47q-23 -23 -47.5 -44t-58 -38.5t-80 -28.5t-109.5 -11q-84 0 -160 27.5t-128 85t-72.5 145.5zM592 1239.5q-3 20.5 14 34.5l241 233q29 29 45.5 34t38.5 5h293q29 0 32 -25.5t-17 -39.5l-324 -228q-20 -14 -39.5 -24t-52.5 -10h-201q-27 0 -30 20.5z"/>
			<glyph unicode="&#xfb;" horiz-adv-x="1296"
				   d="M65.5 238q-20.5 88 6.5 208l118 564q4 23 25 39t43 16h258q23 0 35 -16.5t8 -38.5l-108 -518q-20 -88 7 -141.5t117 -53.5t139.5 53t69.5 142l109 518q4 23 24.5 39t43.5 16h258q23 0 35 -16.5t8 -38.5l-203 -955q-4 -23 -23.5 -39t-42.5 -16h-237q-23 0 -36 16.5 t-9 38.5l10 47q-23 -23 -47.5 -44t-58 -38.5t-80 -28.5t-109.5 -11q-84 0 -160 27.5t-128 85t-72.5 145.5zM358 1239.5q-2 20.5 13 32.5l264 235q25 23 41 31t43 8h180q23 0 37 -8t31 -31l159 -229q12 -20 0 -39.5t-34 -19.5h-105q-20 0 -31.5 6t-27.5 16l-150 90l-164 -90 q-20 -10 -34.5 -16t-34.5 -6h-158q-27 0 -29 20.5z"/>
			<glyph unicode="&#xfc;" horiz-adv-x="1296"
				   d="M65.5 238q-20.5 88 6.5 208l118 564q4 23 25 39t43 16h258q23 0 35 -16.5t8 -38.5l-108 -518q-20 -88 7 -141.5t117 -53.5t139.5 53t69.5 142l109 518q4 23 24.5 39t43.5 16h258q23 0 35 -16.5t8 -38.5l-203 -955q-4 -23 -23.5 -39t-42.5 -16h-237q-23 0 -36 16.5 t-9 38.5l10 47q-23 -23 -47.5 -44t-58 -38.5t-80 -28.5t-109.5 -11q-84 0 -160 27.5t-128 85t-72.5 145.5zM382 1274l43 207q4 23 25 39t43 16h207q23 0 35 -16.5t8 -38.5l-43 -207q-4 -23 -24.5 -39t-43.5 -16h-207q-23 0 -35 16t-8 39zM843 1274l43 207q4 23 24.5 39 t43.5 16h207q23 0 35 -16.5t8 -38.5l-43 -207q-4 -23 -24.5 -39t-43.5 -16h-207q-23 0 -35 16t-8 39z"/>
			<glyph unicode="&#xfd;"
				   d="M91 -368.5q-11 20.5 3 42.5l242 377l-211 950q-6 25 15.5 44.5t45.5 19.5h260q25 0 35.5 -16.5t14.5 -32.5l114 -533l338 533q10 16 27.5 32.5t42.5 16.5h293q25 0 36 -20.5t-4 -43.5l-856 -1341q-10 -16 -27.5 -32.5t-41.5 -16.5h-291q-25 0 -36 20.5zM574 1239.5 q-3 20.5 14 34.5l241 233q29 29 45.5 34t38.5 5h293q29 0 32 -25.5t-17 -39.5l-324 -228q-20 -14 -39.5 -24t-52.5 -10h-201q-27 0 -30 20.5z"/>
			<glyph unicode="&#xfe;" horiz-adv-x="1298"
				   d="M-80 -334l369 1733q4 23 23.5 39t41.5 16h258q23 0 36.5 -16.5t8.5 -38.5l-94 -436q20 20 44 41.5t55.5 40t75.5 29.5t106 11q84 0 161.5 -29.5t133 -89t79 -149.5t3.5 -211q-2 -16 -6.5 -37.5t-9.5 -45t-10 -46t-9 -37.5q-59 -242 -189.5 -351t-347.5 -109 q-59 0 -104 12t-79 30.5t-54.5 40t-30.5 39.5l-92 -436q-4 -23 -24.5 -39t-43.5 -16h-258q-23 0 -35 16.5t-8 38.5zM457 461q-2 -31 3 -59.5t22.5 -52t47 -38t74.5 -14.5q96 0 148 53t75 125q10 31 15.5 57.5t9.5 57.5q4 37 0 68.5t-21.5 56t-48 39t-77.5 14.5 q-45 0 -81 -14.5t-62.5 -38t-45 -52t-29.5 -59.5q-10 -31 -18 -71.5t-12 -71.5z"/>
			<glyph unicode="&#xff;"
				   d="M91 -368.5q-11 20.5 3 42.5l242 377l-211 950q-6 25 15.5 44.5t45.5 19.5h260q25 0 35.5 -16.5t14.5 -32.5l114 -533l338 533q10 16 27.5 32.5t42.5 16.5h293q25 0 36 -20.5t-4 -43.5l-856 -1341q-10 -16 -27.5 -32.5t-41.5 -16.5h-291q-25 0 -36 20.5zM358 1274l43 207 q4 23 25 39t43 16h207q23 0 35 -16.5t8 -38.5l-43 -207q-4 -23 -24.5 -39t-43.5 -16h-207q-23 0 -35 16t-8 39zM819 1274l43 207q4 23 24.5 39t43.5 16h207q23 0 35 -16.5t8 -38.5l-43 -207q-4 -23 -24.5 -39t-43.5 -16h-207q-23 0 -35 16t-8 39z"/>
			<glyph unicode="&#x152;" horiz-adv-x="2009"
				   d="M88 592q6 41 13.5 75.5t14.5 67.5t15 69t19 79q33 125 94 227t153 174t215 111t281 39h1126q23 0 36 -16.5t9 -39.5l-47 -217q-4 -23 -24.5 -39t-42.5 -16h-570l-47 -221h525q23 0 36 -16.5t9 -39.5l-48 -217q-4 -23 -24.5 -39t-42.5 -16h-524l-47 -229h585 q23 0 35 -16.5t8 -39.5l-47 -217q-4 -23 -23.5 -39t-41.5 -16h-1112q-127 0 -233.5 45t-180.5 125t-107.5 187.5t-11.5 234.5zM461 563q-41 -236 219 -235h158l163 778h-147q-267 0 -328 -236q-23 -84 -37 -151.5t-28 -155.5z"/>
			<glyph unicode="&#x153;" horiz-adv-x="1994"
				   d="M41 463q6 31 16.5 79t18.5 79q25 98 74 182t126.5 147.5t185 99t249.5 35.5q100 0 186 -32.5t152 -89.5q78 59 179 90.5t230 31.5q135 0 230.5 -50t152.5 -130t74.5 -179t-2.5 -198l-12 -57q-4 -23 -23.5 -39t-42.5 -16h-682q-10 -47 0 -78t33.5 -49.5t54.5 -25.5t62 -7 q61 0 100 12.5t67 34.5q27 18 38.5 23.5t35.5 5.5h266q45 0 35 -45q-4 -25 -36.5 -75t-101.5 -102.5t-177.5 -91t-265.5 -38.5q-205 0 -332 114q-74 -53 -176.5 -83.5t-239.5 -30.5q-111 0 -204 38.5t-159.5 105t-97 154t-14.5 185.5zM412 463q-10 -78 29.5 -122t121.5 -44 t142.5 44t82.5 122q10 31 17.5 69.5t11.5 69.5q10 78 -31 122t-122 44q-82 0 -141.5 -44t-82.5 -122q-10 -31 -17 -69.5t-11 -69.5zM1200 643h369q6 63 -30 114.5t-120 51.5q-86 0 -141 -51t-78 -115z"/>
			<glyph unicode="&#x178;" horiz-adv-x="1409"
				   d="M199 1362q-10 27 7 49.5t44 22.5h258q41 0 56.5 -20.5t19.5 -31.5l157 -497l361 497q6 10 30.5 31t65.5 21h307q33 0 37 -25t-12 -47l-658 -870l-94 -437q-4 -23 -23.5 -39t-41.5 -16h-275q-23 0 -36 16.5t-9 38.5l94 437zM448 1591l43 207q4 23 25 39t43 16h207 q23 0 35 -16t8 -39l-43 -207q-4 -23 -24.5 -39t-43.5 -16h-207q-23 0 -36 16.5t-7 38.5zM971 1591l43 207q4 23 24.5 39t42.5 16h207q23 0 35 -16t8 -39l-43 -207q-4 -23 -24.5 -39t-42.5 -16h-207q-23 0 -36 16.5t-7 38.5z"/>
			<glyph unicode="&#x2c6;" horiz-adv-x="835"
				   d="M61 1239.5q-2 20.5 13 32.5l264 235q25 23 41 31t43 8h180q23 0 37 -8t31 -31l159 -229q12 -20 0 -39.5t-34 -19.5h-105q-20 0 -31.5 6t-27.5 16l-150 90l-164 -90q-20 -10 -34.5 -16t-34.5 -6h-158q-27 0 -29 20.5z"/>
			<glyph unicode="&#x2dc;" horiz-adv-x="909"
				   d="M63 1257q10 45 34 95.5t61 90.5t86 66.5t108 26.5q61 0 95 -14.5t57.5 -31.5t44 -31.5t53.5 -14.5q25 0 40 12t27.5 27.5t24 29t27.5 13.5h156q18 0 26 -11.5t4 -27.5q-10 -47 -36.5 -96.5t-65.5 -89t-87.5 -66.5t-99.5 -27q-61 0 -95 14.5t-58.5 32t-45 31.5t-52.5 14 q-25 0 -40.5 -13t-26.5 -28.5t-22.5 -27.5t-27.5 -12h-156q-18 0 -26.5 11t-4.5 27z"/>
			<glyph unicode="&#x2000;" horiz-adv-x="942"/>
			<glyph unicode="&#x2001;" horiz-adv-x="1884"/>
			<glyph unicode="&#x2002;" horiz-adv-x="942"/>
			<glyph unicode="&#x2003;" horiz-adv-x="1884"/>
			<glyph unicode="&#x2004;" horiz-adv-x="628"/>
			<glyph unicode="&#x2005;" horiz-adv-x="471"/>
			<glyph unicode="&#x2006;" horiz-adv-x="314"/>
			<glyph unicode="&#x2007;" horiz-adv-x="314"/>
			<glyph unicode="&#x2008;" horiz-adv-x="235"/>
			<glyph unicode="&#x2009;" horiz-adv-x="376"/>
			<glyph unicode="&#x200a;" horiz-adv-x="104"/>
			<glyph unicode="&#x2010;" horiz-adv-x="985"
				   d="M94 512l43 207q4 23 24.5 39t43.5 16h645q23 0 35 -16.5t8 -38.5l-43 -207q-4 -23 -24.5 -39t-43.5 -16h-645q-23 0 -35 16t-8 39z"/>
			<glyph unicode="&#x2011;" horiz-adv-x="985"
				   d="M94 512l43 207q4 23 24.5 39t43.5 16h645q23 0 35 -16.5t8 -38.5l-43 -207q-4 -23 -24.5 -39t-43.5 -16h-645q-23 0 -35 16t-8 39z"/>
			<glyph unicode="&#x2012;" horiz-adv-x="985"
				   d="M94 512l43 207q4 23 24.5 39t43.5 16h645q23 0 35 -16.5t8 -38.5l-43 -207q-4 -23 -24.5 -39t-43.5 -16h-645q-23 0 -35 16t-8 39z"/>
			<glyph unicode="&#x2013;" horiz-adv-x="1169"
				   d="M94 512l43 207q4 23 24.5 39t43.5 16h829q23 0 35 -16.5t8 -38.5l-43 -207q-4 -23 -24.5 -39t-42.5 -16h-830q-23 0 -35 16t-8 39z"/>
			<glyph unicode="&#x2014;" horiz-adv-x="1558"
				   d="M94 512l43 207q4 23 24.5 39t43.5 16h1218q23 0 35 -16.5t8 -38.5l-43 -207q-4 -23 -24.5 -39t-42.5 -16h-1219q-23 0 -35 16t-8 39z"/>
			<glyph unicode="&#x2018;" horiz-adv-x="581"
				   d="M139 940q-10 18 2 41l246 408q12 20 37 42.5t65 22.5h154q18 0 30.5 -14.5t4.5 -34.5l-150 -404q-10 -29 -36.5 -54t-67.5 -25h-252q-23 0 -33 18z"/>
			<glyph unicode="&#x2019;" horiz-adv-x="571"
				   d="M158 971l149 403q10 29 37 54.5t68 25.5h252q23 0 33 -18.5t-3 -40.5l-245 -408q-12 -20 -37 -42.5t-66 -22.5h-153q-18 0 -30.5 14t-4.5 35z"/>
			<glyph unicode="&#x201a;" horiz-adv-x="591"
				   d="M-86 -104l149 403q10 29 37 54.5t68 25.5h252q23 0 33 -18.5t-2 -41.5l-246 -407q-12 -20 -37 -43t-66 -23h-153q-18 0 -30.5 14.5t-4.5 35.5z"/>
			<glyph unicode="&#x201c;" horiz-adv-x="1062"
				   d="M139 940q-10 18 2 41l246 408q12 20 37 42.5t65 22.5h154q18 0 30.5 -14.5t4.5 -34.5l-150 -404q-10 -29 -36.5 -54t-67.5 -25h-252q-23 0 -33 18zM620 940q-10 18 3 41l245 408q12 20 37 42.5t66 22.5h153q18 0 30.5 -14.5t4.5 -34.5l-149 -404q-10 -29 -37 -54t-68 -25 h-252q-23 0 -33 18z"/>
			<glyph unicode="&#x201d;" horiz-adv-x="1052"
				   d="M158 971l149 403q10 29 37 54.5t68 25.5h252q23 0 33 -18.5t-3 -40.5l-245 -408q-12 -20 -37 -42.5t-66 -22.5h-153q-18 0 -30.5 14t-4.5 35zM639 971l149 403q10 29 37 54.5t68 25.5h252q23 0 33 -18.5t-2 -40.5l-246 -408q-12 -20 -37 -42.5t-66 -22.5h-153 q-18 0 -30.5 14t-4.5 35z"/>
			<glyph unicode="&#x201e;" horiz-adv-x="1073"
				   d="M-86 -104l149 403q10 29 37 54.5t68 25.5h252q23 0 33 -18.5t-2 -41.5l-246 -407q-12 -20 -37 -43t-66 -23h-153q-18 0 -30.5 14.5t-4.5 35.5zM395 -104l150 403q10 29 36.5 54.5t67.5 25.5h252q23 0 33 -18.5t-2 -41.5l-246 -407q-12 -20 -36.5 -43t-65.5 -23h-154 q-18 0 -30.5 14.5t-4.5 35.5z"/>
			<glyph unicode="&#x2022;" horiz-adv-x="802"
				   d="M132 511q-11 48 1 103t44 103.5t75 85.5t96 57.5t109 20.5q55 0 99 -20.5t72.5 -57.5t39 -85t-1.5 -104q-12 -55 -43 -103t-74 -85t-96.5 -57.5t-108.5 -20.5t-99 20.5t-73 57.5t-40 85z"/>
			<glyph unicode="&#x2026;" horiz-adv-x="1630"
				   d="M-10 55l57 269q4 23 24.5 39t43.5 16h268q23 0 35 -16.5t8 -38.5l-57 -269q-4 -23 -23.5 -39t-42.5 -16h-268q-23 0 -36 16.5t-9 38.5zM512 55l57 269q4 23 24.5 39t43.5 16h268q23 0 35 -16.5t8 -38.5l-57 -269q-4 -23 -23.5 -39t-42.5 -16h-268q-23 0 -36 16.5t-9 38.5 zM1034 55l57 269q4 23 24.5 39t43.5 16h268q23 0 35 -16.5t8 -38.5l-57 -269q-4 -23 -23.5 -39t-42.5 -16h-268q-23 0 -36 16.5t-9 38.5z"/>
			<glyph unicode="&#x202f;" horiz-adv-x="376"/>
			<glyph unicode="&#x2039;" horiz-adv-x="704"
				   d="M63 606l29 135q4 18 15.5 32.5t25.5 25.5l512 411q23 18 48.5 6t19.5 -40l-60 -275q-6 -35 -18 -53.5t-37 -38.5l-209 -166l135 -166q16 -20 20.5 -38.5t-3.5 -53.5l-45 -219q-6 -33 -34 -41t-46 14l-336 410q-23 25 -17 57z"/>
			<glyph unicode="&#x203a;" horiz-adv-x="710"
				   d="M20 170l60 274q6 35 18.5 53.5t36.5 39.5l209 165l-135 166q-16 20 -20.5 39t4.5 54l45 219q6 33 33.5 41t45.5 -15l336 -409q23 -25 17 -58l-29 -135q-4 -18 -15.5 -32.5t-25.5 -24.5l-512 -412q-23 -18 -48.5 -6t-19.5 41z"/>
			<glyph unicode="&#x205f;" horiz-adv-x="471"/>
			<glyph unicode="&#x20ac;" horiz-adv-x="1622"
				   d="M61 618l41 197q4 23 24.5 39t43.5 16h123q31 125 92 231.5t154.5 184.5t217.5 123t279 45q119 0 230.5 -38t193.5 -103.5t124 -156.5t22 -195q-4 -18 -19.5 -32t-34.5 -14h-268q-35 0 -42 13.5t-15 46.5q-10 31 -23.5 58.5t-39 48t-67.5 32.5t-110 12q-129 0 -208 -72.5 t-107 -183.5h299q23 0 35 -16t8 -39l-41 -197q-4 -23 -24.5 -39t-43.5 -16h-299q-18 -111 30 -183.5t177 -72.5q68 0 115 12.5t81.5 33t59.5 48t47 58.5q23 33 35 46t47 13h268q18 0 29.5 -13t7.5 -32q-25 -104 -90 -195.5t-161.5 -157t-220.5 -103t-267 -37.5 q-133 0 -241.5 44t-181.5 122.5t-104.5 185t-9.5 231.5h-123q-23 0 -35 16.5t-8 38.5z"/>
			<glyph unicode="&#x2122;" horiz-adv-x="1343"
				   d="M225 1303l19 86q4 20 18 32.5t35 12.5h393q43 0 37 -45l-18 -86q-10 -45 -56 -46h-106l-70 -323q-4 -20 -18.5 -32.5t-34.5 -12.5h-90q-43 0 -37 45l70 323h-107q-45 0 -35 46zM690 934l98 455q4 20 18.5 32.5t35.5 12.5h84q23 0 33 -15.5t14 -27.5l67 -168l142 168 q10 12 25.5 27.5t37.5 15.5h96q20 0 30.5 -12.5t6.5 -32.5l-98 -455q-10 -45 -53 -45h-90q-20 0 -30.5 12t-6.5 33l41 190l-45 -55q-14 -16 -29.5 -32.5t-34.5 -16.5h-57q-18 0 -27.5 16.5t-15.5 32.5l-21 55l-41 -190q-4 -20 -18 -32.5t-35 -12.5h-90q-20 0 -30.5 12 t-6.5 33z"/>
			<glyph unicode="&#x25fc;" horiz-adv-x="1064" d="M0 0v1065h1065v-1065h-1065z"/>
			</font>
</defs>
</svg>
